{
.appVersion = "913";
copyright = "Copyright (c) 2011 The Cabin Project Authors (www.impallari.com impallari@gmail.com)";
customParameters = (
{
name = licenseURL;
value = "http://scripts.sil.org/OFL";
},
{
name = description;
value = "Copyright (c) 2011 by Pablo Impallari. www.impallari.com Copyright (c) 2011 by Igino Marini. www.ikern.com All rights reserved.";
},
{
name = trademark;
value = "Cabin is a trademark of Pablo Impallari. www.impallari.com Igino Marini. www.ikern.com.";
},
{
name = license;
value = "This Font Software is licensed under the SIL Open Font License, Version 1.1. This license is available with a FAQ at: http://scripts.sil.org/OFL";
},
{
name = fsType;
value = 0;
},
{
name = "Use Typo Metrics";
value = 1;
},
{
name = vendorID;
value = IMPA;
}
);
date = "2011-03-21 07:48:50 +0000";
designer = "Pablo Impallari";
designerURL = "http://www.impallari.com";
familyName = Cabin;
featurePrefixes = (
{
automatic = 1;
code = "languagesystem DFLT dflt;\012";
name = Languagesystems;
},
{
automatic = 1;
code = "languagesystem DFLT dflt;\012";
name = Languagesystems;
}
);
features = (
{
automatic = 1;
code = "feature subs;\012feature sups;\012feature frac;\012feature ordn;\012feature c2sc;\012";
name = aalt;
},
{
automatic = 1;
code = "sub zero by zeroinferior;\012sub one by oneinferior;\012sub two by twoinferior;\012sub three by threeinferior;\012sub four by fourinferior;\012sub five by fiveinferior;\012sub six by sixinferior;\012sub seven by seveninferior;\012sub eight by eightinferior;\012sub nine by nineinferior;\012";
name = subs;
},
{
automatic = 1;
code = "sub zero by zerosuperior;\012sub one by onesuperior;\012sub two by twosuperior;\012sub three by threesuperior;\012sub four by foursuperior;\012sub five by fivesuperior;\012sub six by sixsuperior;\012sub seven by sevensuperior;\012sub eight by eightsuperior;\012sub nine by ninesuperior;\012";
name = sups;
},
{
automatic = 1;

glyphs = (
{
glyphname = A;
lastChange = "2016-08-27 22:34:25 +0000";
layers = (
{
anchors = (
{
name = bottom;
position = "{308, 0}";
},
{
name = ogonek;
position = "{554, 10}";
},
{
name = top;
position = "{308, 700}";
}
);
layerId = UUID0;
paths = (
{
closed = 1;
nodes = (
"107 0 LINE",
"174 189 LINE",
"442 189 LINE",
"509 0 LINE",
"609 0 LINE",
"358 700 LINE",
"258 700 LINE",
"7 0 LINE"
);
},
{
closed = 1;
nodes = (
"308 567 LINE",
"412 275 LINE",
"204 275 LINE"
);
}
);
width = 616;
},
{
anchors = (
{
name = bottom;
position = "{313, 0}";
},
{
name = ogonek;
position = "{562, 10}";
},
{
name = top;
position = "{313, 700}";
}
);
layerId = "7C863538-AAB4-42AD-A9FE-7240E615272A";
paths = (
{
closed = 1;
nodes = (
"136 0 LINE",
"196 169 LINE",
"429 169 LINE",
"489 0 LINE",
"622 0 LINE",
"373 700 LINE",
"252 700 LINE",
"3 0 LINE"
);
},
{
closed = 1;
nodes = (
"312 498 LINE",
"385 293 LINE",
"240 293 LINE"
);
}
);
width = 625;
}
);
leftKerningGroup = A;
rightKerningGroup = A;
unicode = 0041;
},
{
glyphname = AE;
lastChange = "2016-08-27 22:34:25 +0000";
layers = (
{
layerId = UUID0;
paths = (
{
closed = 1;
nodes = (
"86 0 LINE",
"178 180 LINE",
"392 180 LINE",
"392 0 LINE",
"828 0 LINE",
"828 86 LINE",
"506 86 LINE",
"506 323 LINE",
"747 323 LINE",
"747 409 LINE",
"506 409 LINE",
"506 613 LINE",
"818 613 LINE",
"818 700 LINE",
"335 700 LINE",
"-7 0 LINE"
);
},
{
closed = 1;
nodes = (
"392 611 LINE",
"392 272 LINE",
"221 272 LINE"
);
}
);
width = 865;
},
{
layerId = "7C863538-AAB4-42AD-A9FE-7240E615272A";
paths = (
{
closed = 1;
nodes = (
"122 0 LINE",
"203 169 LINE",
"397 169 LINE",
"397 0 LINE",
"833 0 LINE",
"833 124 LINE",
"528 124 LINE",
"528 303 LINE",
"756 303 LINE",
"756 427 LINE",
"528 427 LINE",
"528 576 LINE",
"824 576 LINE",
"824 700 LINE",
"330 700 LINE",
"-11 0 LINE"
);
},
{
closed = 1;
nodes = (
"397 573 LINE",
"397 293 LINE",
"262 293 LINE"
);
}
);
width = 867;
}
);
rightKerningGroup = E;
unicode = 00C6;
},
{
glyphname = B;
lastChange = "2016-08-27 22:34:25 +0000";
layers = (
{
layerId = UUID0;
paths = (
{
closed = 1;
nodes = (
"320 0 LINE SMOOTH",
"435 0 OFFCURVE",
"562 29 OFFCURVE",
"562 208 CURVE SMOOTH",
"562 283 OFFCURVE",
"536 338 OFFCURVE",
"445 373 CURVE",
"499 429 OFFCURVE",
"502 468 OFFCURVE",
"502 527 CURVE SMOOTH",
"502 675 OFFCURVE",
"402 700 OFFCURVE",
"238 700 CURVE SMOOTH",
"80 700 LINE",
"80 0 LINE"
);
},
{
closed = 1;
nodes = (
"175 323 LINE",
"323 323 LINE SMOOTH",
"397 323 OFFCURVE",
"463 301 OFFCURVE",
"463 199 CURVE SMOOTH",
"463 98 OFFCURVE",
"388 86 OFFCURVE",
"273 86 CURVE SMOOTH",
"175 86 LINE"
);
},
{
closed = 1;
nodes = (
"175 615 LINE",
"265 615 LINE SMOOTH",
"342 615 OFFCURVE",
"404 608 OFFCURVE",
"404 520 CURVE SMOOTH",
"404 415 OFFCURVE",
"349 409 OFFCURVE",
"293 409 CURVE SMOOTH",
"175 409 LINE"
);
}
);
width = 597;
},
{
layerId = "7C863538-AAB4-42AD-A9FE-7240E615272A";
paths = (
{
closed = 1;
nodes = (
"347 0 LINE SMOOTH",
"464 0 OFFCURVE",
"597 44 OFFCURVE",
"597 206 CURVE SMOOTH",
"597 295 OFFCURVE",
"556 343 OFFCURVE",
"475 374 CURVE",
"516 408 OFFCURVE",
"534 457 OFFCURVE",
"534 520 CURVE SMOOTH",
"534 675 OFFCURVE",
"427 700 OFFCURVE",
"266 700 CURVE SMOOTH",
"77 700 LINE",
"77 0 LINE"
);
},
{
closed = 1;
nodes = (
"205 318 LINE",
"338 318 LINE SMOOTH",
"410 318 OFFCURVE",
"465 294 OFFCURVE",
"465 213 CURVE SMOOTH",
"465 134 OFFCURVE",
"413 109 OFFCURVE",
"331 109 CURVE SMOOTH",
"205 109 LINE"
);
},
{
closed = 1;
nodes = (
"205 591 LINE",
"318 591 LINE SMOOTH",
"377 591 OFFCURVE",
"415 574 OFFCURVE",
"415 501 CURVE SMOOTH",
"415 434 OFFCURVE",
"366 419 OFFCURVE",
"330 419 CURVE SMOOTH",
"205 419 LINE"
);
}
);
width = 626;
}
);
leftKerningGroup = I;
unicode = 0042;
},
{
glyphname = C;
lastChange = "2016-08-27 22:34:25 +0000";
layers = (
{
layerId = UUID0;
paths = (
{
closed = 1;
nodes = (
"460 -14 OFFCURVE",
"532 3 OFFCURVE",
"583 26 CURVE",
"573 114 LINE",
"518 95 OFFCURVE",
"461 72 OFFCURVE",
"391 72 CURVE SMOOTH",
"228 72 OFFCURVE",
"143 195 OFFCURVE",
"143 350 CURVE SMOOTH",
"143 505 OFFCURVE",
"228 628 OFFCURVE",
"389 628 CURVE SMOOTH",
"461 628 OFFCURVE",
"518 604 OFFCURVE",
"573 585 CURVE",
"583 673 LINE",
"535 696 OFFCURVE",
"460 714 OFFCURVE",
"389 714 CURVE SMOOTH",
"187 714 OFFCURVE",
"39 572 OFFCURVE",
"39 350 CURVE SMOOTH",
"39 128 OFFCURVE",
"187 -14 OFFCURVE",
"390 -14 CURVE SMOOTH",
"390 -14 LINE"
);
}
);
width = 616;
},
{
layerId = "7C863538-AAB4-42AD-A9FE-7240E615272A";
paths = (
{
closed = 1;
nodes = (
"453 -14 OFFCURVE",
"528 2 OFFCURVE",
"579 27 CURVE",
"565 149 LINE",
"507 126 OFFCURVE",
"453 109 OFFCURVE",
"380 109 CURVE SMOOTH",
"244 109 OFFCURVE",
"175 210 OFFCURVE",
"175 350 CURVE SMOOTH",
"175 490 OFFCURVE",
"244 591 OFFCURVE",
"380 591 CURVE SMOOTH",
"453 591 OFFCURVE",
"507 574 OFFCURVE",
"565 551 CURVE",
"579 673 LINE",
"528 698 OFFCURVE",
"453 714 OFFCURVE",
"380 714 CURVE SMOOTH",
"180 714 OFFCURVE",
"35 570 OFFCURVE",
"35 350 CURVE SMOOTH",
"35 130 OFFCURVE",
"180 -14 OFFCURVE",
"380 -14 CURVE SMOOTH",
"380 -14 LINE"
);
}
);
width = 609;
}
);
leftKerningGroup = O;
rightKerningGroup = C;
unicode = 0043;
},
{
glyphname = D;
lastChange = "2016-08-27 22:34:25 +0000";
layers = (
{
layerId = UUID0;
paths = (
{
closed = 1;
nodes = (
"339 0 LINE SMOOTH",
"542 0 OFFCURVE",
"687 129 OFFCURVE",
"687 350 CURVE SMOOTH",
"687 571 OFFCURVE",
"542 700 OFFCURVE",
"339 700 CURVE SMOOTH",
"80 700 LINE",
"80 0 LINE"
);
},
{
closed = 1;
nodes = (
"175 614 LINE",
"339 614 LINE SMOOTH",
"499 614 OFFCURVE",
"583 507 OFFCURVE",
"583 350 CURVE SMOOTH",
"583 193 OFFCURVE",
"499 86 OFFCURVE",
"339 86 CURVE SMOOTH",
"175 86 LINE"
);
}
);
width = 727;
},
{
layerId = "7C863538-AAB4-42AD-A9FE-7240E615272A";
paths = (
{
closed = 1;
nodes = (
"339 0 LINE SMOOTH",
"539 0 OFFCURVE",
"684 130 OFFCURVE",
"684 350 CURVE SMOOTH",
"684 570 OFFCURVE",
"539 700 OFFCURVE",
"339 700 CURVE SMOOTH",
"77 700 LINE",
"77 0 LINE"
);
},
{
closed = 1;
nodes = (
"205 577 LINE",
"339 577 LINE SMOOTH",
"475 577 OFFCURVE",
"544 490 OFFCURVE",
"544 350 CURVE SMOOTH",
"544 210 OFFCURVE",
"475 123 OFFCURVE",
"339 123 CURVE SMOOTH",
"205 123 LINE"
);
}
);
width = 720;
}
);
leftKerningGroup = I;
rightKerningGroup = D;
unicode = 0044;
},
{
glyphname = Eth;
lastChange = "2016-08-27 22:34:25 +0000";
layers = (
{
layerId = UUID0;
paths = (
{
closed = 1;
nodes = (
"345 0 LINE SMOOTH",
"546 0 OFFCURVE",
"690 129 OFFCURVE",
"690 350 CURVE SMOOTH",
"690 571 OFFCURVE",
"546 700 OFFCURVE",
"345 700 CURVE SMOOTH",
"89 700 LINE",
"89 377 LINE",
"-8 377 LINE",
"-8 313 LINE",
"89 313 LINE",
"89 0 LINE"
);
},
{
closed = 1;
nodes = (
"179 313 LINE",
"312 313 LINE",
"312 377 LINE",
"179 377 LINE",
"179 614 LINE",
"345 614 LINE SMOOTH",
"506 614 OFFCURVE",
"588 509 OFFCURVE",
"588 350 CURVE SMOOTH",
"588 191 OFFCURVE",
"506 87 OFFCURVE",
"345 87 CURVE SMOOTH",
"179 87 LINE"
);
}
);
width = 730;
},
{
layerId = "7C863538-AAB4-42AD-A9FE-7240E615272A";
paths = (
{
closed = 1;
nodes = (
"350 0 LINE SMOOTH",
"550 0 OFFCURVE",
"695 130 OFFCURVE",
"695 350 CURVE SMOOTH",
"695 570 OFFCURVE",
"550 700 OFFCURVE",
"350 700 CURVE SMOOTH",
"88 700 LINE",
"88 393 LINE",
"-4 393 LINE",
"-4 299 LINE",
"88 299 LINE",
"88 0 LINE"
);
},
{
closed = 1;
nodes = (
"216 299 LINE",
"338 299 LINE",
"338 393 LINE",
"216 393 LINE",
"216 577 LINE",
"350 577 LINE SMOOTH",
"486 577 OFFCURVE",
"555 490 OFFCURVE",
"555 350 CURVE SMOOTH",
"555 210 OFFCURVE",
"486 123 OFFCURVE",
"350 123 CURVE SMOOTH",
"216 123 LINE"
);
}
);
width = 731;
}
);
leftKerningGroup = I;
rightKerningGroup = D;
unicode = 00D0;
},
{
glyphname = E;
lastChange = "2016-08-27 22:23:13 +0000";
layers = (
{
anchors = (
{
name = bottom;
position = "{277, 0}";
},
{
name = ogonek;
position = "{499, 10}";
},
{
name = top;
position = "{277, 700}";
},
{
name = topleft;
position = "{20, 700}";
}
);
layerId = UUID0;
paths = (
{
closed = 1;
nodes = (
"516 0 LINE",
"516 86 LINE",
"175 86 LINE",
"175 323 LINE",
"439 323 LINE",
"439 409 LINE",
"175 409 LINE",
"175 614 LINE",
"507 614 LINE",
"507 700 LINE",
"80 700 LINE",
"80 0 LINE"
);
}
);
width = 554;
},
{
anchors = (
{
name = bottom;
position = "{284, 0}";
},
{
name = ogonek;
position = "{511, 10}";
},
{
name = top;
position = "{284, 700}";
},
{
name = topleft;
position = "{20, 700}";
}
);
layerId = "7C863538-AAB4-42AD-A9FE-7240E615272A";
paths = (
{
closed = 1;
nodes = (
"535 0 LINE",
"535 124 LINE",
"208 124 LINE",
"208 303 LINE",
"454 303 LINE",
"454 427 LINE",
"208 427 LINE",
"208 576 LINE",
"525 576 LINE",
"525 700 LINE",
"77 700 LINE",
"77 0 LINE"
);
}
);
width = 568;
}
);
leftKerningGroup = E;
rightKerningGroup = E;
unicode = 0045;
},
{
glyphname = F;
lastChange = "2016-08-27 22:34:25 +0000";
layers = (
{
layerId = UUID0;
paths = (
{
closed = 1;
nodes = (
"175 0 LINE",
"175 323 LINE",
"431 323 LINE",
"431 409 LINE",
"175 409 LINE",
"175 614 LINE",
"507 614 LINE",
"507 700 LINE",
"80 700 LINE",
"80 0 LINE"
);
}
);
width = 523;
},
{
layerId = "7C863538-AAB4-42AD-A9FE-7240E615272A";
paths = (
{
closed = 1;
nodes = (
"205 0 LINE",
"205 303 LINE",
"439 303 LINE",
"439 427 LINE",
"205 427 LINE",
"205 576 LINE",
"508 576 LINE",
"508 700 LINE",
"77 700 LINE",
"77 0 LINE"
);
}
);
width = 525;
}
);
leftKerningGroup = I;
unicode = 0046;
},
{
glyphname = G;
lastChange = "2016-08-27 22:34:25 +0000";
layers = (
{
layerId = UUID0;
paths = (
{
closed = 1;
nodes = (
"462 -14 OFFCURVE",
"566 10 OFFCURVE",
"621 39 CURVE",
"621 351 LINE",
"416 351 LINE",
"416 265 LINE",
"526 265 LINE",
"526 91 LINE",
"489 76 OFFCURVE",
"439 72 OFFCURVE",
"409 72 CURVE SMOOTH",
"227 72 OFFCURVE",
"143 190 OFFCURVE",
"143 350 CURVE SMOOTH",
"143 505 OFFCURVE",
"222 628 OFFCURVE",
"393 628 CURVE SMOOTH",
"457 628 OFFCURVE",
"531 611 OFFCURVE",
"589 591 CURVE",
"598 674 LINE",
"545 697 OFFCURVE",
"460 714 OFFCURVE",
"390 714 CURVE SMOOTH",
"186 714 OFFCURVE",
"39 572 OFFCURVE",
"39 351 CURVE SMOOTH",
"39 128 OFFCURVE",
"188 -14 OFFCURVE",
"382 -14 CURVE SMOOTH",
"382 -14 LINE"
);
}
);
width = 672;
},
{
layerId = "7C863538-AAB4-42AD-A9FE-7240E615272A";
paths = (
{
closed = 1;
nodes = (
"457 -14 OFFCURVE",
"566 10 OFFCURVE",
"617 39 CURVE",
"617 351 LINE",
"412 351 LINE",
"412 245 LINE",
"489 245 LINE",
"489 120 LINE",
"455 113 OFFCURVE",
"422 109 OFFCURVE",
"393 109 CURVE SMOOTH",
"248 109 OFFCURVE",
"175 210 OFFCURVE",
"175 353 CURVE SMOOTH",
"175 489 OFFCURVE",
"241 591 OFFCURVE",
"387 591 CURVE SMOOTH",
"449 591 OFFCURVE",
"526 573 OFFCURVE",
"580 551 CURVE",
"594 673 LINE",
"543 698 OFFCURVE",
"452 714 OFFCURVE",
"384 714 CURVE SMOOTH",
"179 714 OFFCURVE",
"35 570 OFFCURVE",
"35 351 CURVE SMOOTH",
"35 130 OFFCURVE",
"181 -14 OFFCURVE",
"377 -14 CURVE SMOOTH",
"377 -14 LINE"
);
}
);
width = 664;
}
);
leftKerningGroup = O;
unicode = 0047;
},
{
glyphname = H;
lastChange = "2016-08-27 22:34:25 +0000";
layers = (
{
layerId = UUID0;
paths = (
{
closed = 1;
nodes = (
"175 0 LINE",
"175 321 LINE",
"571 321 LINE",
"571 0 LINE",
"666 0 LINE",
"666 700 LINE",
"571 700 LINE",
"571 411 LINE",
"175 411 LINE",
"175 700 LINE",
"80 700 LINE",
"80 0 LINE"
);
}
);
width = 746;
},
{
layerId = "7C863538-AAB4-42AD-A9FE-7240E615272A";
paths = (
{
closed = 1;
nodes = (
"205 0 LINE",
"205 303 LINE",
"535 303 LINE",
"535 0 LINE",
"663 0 LINE",
"663 700 LINE",
"535 700 LINE",
"535 427 LINE",
"205 427 LINE",
"205 700 LINE",
"77 700 LINE",
"77 0 LINE"
);
}
);
width = 740;
}
);
leftKerningGroup = I;
rightKerningGroup = I;
unicode = 0048;
},
{
glyphname = I;
lastChange = "2016-08-27 22:23:13 +0000";
layers = (
{
anchors = (
{
name = bottom;
position = "{128, 0}";
},
{
name = ogonek;
position = "{229, 10}";
},
{
name = top;
position = "{128, 700}";
},
{
name = topleft;
position = "{20, 700}";
}
);
layerId = UUID0;
paths = (
{
closed = 1;
nodes = (
"175 0 LINE",
"175 700 LINE",
"80 700 LINE",
"80 0 LINE"
);
}
);
width = 255;
},
{
anchors = (
{
name = bottom;
position = "{141, 0}";
},
{
name = ogonek;
position = "{254, 10}";
},
{
name = top;
position = "{141, 700}";
},
{
name = topleft;
position = "{20, 700}";
}
);
layerId = "7C863538-AAB4-42AD-A9FE-7240E615272A";
paths = (
{
closed = 1;
nodes = (
"205 0 LINE",
"205 700 LINE",
"77 700 LINE",
"77 0 LINE"
);
}
);
width = 282;
}
);
leftKerningGroup = I;
rightKerningGroup = I;
unicode = 0049;
},
{
glyphname = J;
lastChange = "2016-08-25 20:31:12 +0000";
layers = (
{
layerId = UUID0;
paths = (
{
closed = 1;
nodes = (
"9 -172 LINE SMOOTH",
"124 -172 OFFCURVE",
"175 -122 OFFCURVE",
"175 -32 CURVE SMOOTH",
"175 700 LINE",
"80 700 LINE",
"80 -3 LINE SMOOTH",
"80 -81 OFFCURVE",
"63 -116 OFFCURVE",
"-14 -116 CURVE SMOOTH",
"-17 -116 LINE",
"-7 -172 LINE"
);
}
);
width = 255;
},
{
layerId = "7C863538-AAB4-42AD-A9FE-7240E615272A";
paths = (
{
closed = 1;
nodes = (
"43 -172 LINE SMOOTH",
"143 -172 OFFCURVE",
"205 -124 OFFCURVE",
"205 -24 CURVE SMOOTH",
"205 700 LINE",
"77 700 LINE",
"77 4 LINE SMOOTH",
"77 -51 OFFCURVE",
"64 -76 OFFCURVE",
"24 -76 CURVE SMOOTH",
"-3 -76 LINE",
"7 -172 LINE"
);
}
);
width = 282;
}
);
unicode = 004A;
},
{
glyphname = K;
lastChange = "2016-08-25 20:31:12 +0000";
layers = (
{
layerId = UUID0;
paths = (
{
closed = 1;
nodes = (
"573 0 LINE",
"314 371 LINE",
"573 700 LINE",
"473 700 LINE",
"214 371 LINE",
"473 0 LINE"
);
},
{
closed = 1;
nodes = (
"175 0 LINE",
"175 700 LINE",
"80 700 LINE",
"80 0 LINE"
);
}
);
width = 577;
},
{
layerId = "7C863538-AAB4-42AD-A9FE-7240E615272A";
paths = (
{
closed = 1;
nodes = (
"618 0 LINE",
"374 370 LINE",
"618 700 LINE",
"474 700 LINE",
"230 370 LINE",
"474 0 LINE"
);
},
{
closed = 1;
nodes = (
"205 0 LINE",
"205 700 LINE",
"77 700 LINE",
"77 0 LINE"
);
}
);
width = 621;
}
);
leftKerningGroup = I;
unicode = 004B;
},
{
glyphname = L;
lastChange = "2016-08-25 20:31:12 +0000";
layers = (
{
layerId = UUID0;
paths = (
{
closed = 1;
nodes = (
"496 0 LINE",
"496 86 LINE",
"175 86 LINE",
"175 700 LINE",
"80 700 LINE",
"80 0 LINE"
);
}
);
width = 501;
},
{
layerId = "7C863538-AAB4-42AD-A9FE-7240E615272A";
paths = (
{
closed = 1;
nodes = (
"493 0 LINE",
"493 124 LINE",
"205 124 LINE",
"205 700 LINE",
"77 700 LINE",
"77 0 LINE"
);
}
);
width = 500;
}
);
leftKerningGroup = I;
unicode = 004C;
},
{
glyphname = M;
lastChange = "2016-08-27 22:34:25 +0000";
layers = (
{
layerId = UUID0;
paths = (
{
closed = 1;
nodes = (
"148 0 LINE",
"214 529 LINE",
"408 166 LINE",
"598 529 LINE",
"664 0 LINE",
"764 0 LINE",
"671 700 LINE",
"589 700 LINE",
"407 353 LINE",
"223 700 LINE",
"142 700 LINE",
"48 0 LINE"
);
}
);
width = 812;
},
{
layerId = "7C863538-AAB4-42AD-A9FE-7240E615272A";
paths = (
{
closed = 1;
nodes = (
"177 0 LINE",
"237 468 LINE",
"417 147 LINE",
"596 469 LINE",
"656 0 LINE",
"789 0 LINE",
"692 700 LINE",
"587 700 LINE",
"417 381 LINE",
"246 700 LINE",
"141 700 LINE",
"44 0 LINE"
);
}
);
width = 833;
}
);
unicode = 004D;
},
{
glyphname = N;
lastChange = "2016-08-27 22:34:25 +0000";
layers = (
{
layerId = UUID0;
paths = (
{
closed = 1;
nodes = (
"175 0 LINE",
"175 553 LINE",
"543 0 LINE",
"624 0 LINE",
"624 700 LINE",
"528 700 LINE",
"528 176 LINE",
"183 700 LINE",
"80 700 LINE",
"80 0 LINE"
);
}
);
width = 704;
},
{
layerId = "7C863538-AAB4-42AD-A9FE-7240E615272A";
paths = (
{
closed = 1;
nodes = (
"205 0 LINE",
"205 480 LINE",
"525 0 LINE",
"630 0 LINE",
"630 700 LINE",
"502 700 LINE",
"502 248 LINE",
"203 700 LINE",
"77 700 LINE",
"77 0 LINE"
);
}
);
width = 707;
}
);
leftKerningGroup = I;
rightKerningGroup = I;
unicode = 004E;
},
{
glyphname = O;
lastChange = "2016-08-27 22:34:25 +0000";
layers = (
{
anchors = (
{
name = bottom;
position = "{384, 0}";
},
{
name = center;
position = "{384, 350}";
},
{
name = ogonek;
position = "{691, 10}";
},
{
name = top;
position = "{384, 700}";
},
{
name = topleft;
position = "{20, 700}";
},
{
name = topright;
position = "{563, 700}";
}
);
layerId = UUID0;
paths = (
{
closed = 1;
nodes = (
"584 -14 OFFCURVE",
"729 128 OFFCURVE",
"729 350 CURVE SMOOTH",
"729 572 OFFCURVE",
"584 714 OFFCURVE",
"384 714 CURVE SMOOTH",
"184 714 OFFCURVE",
"39 572 OFFCURVE",
"39 350 CURVE SMOOTH",
"39 128 OFFCURVE",
"184 -14 OFFCURVE",
"384 -14 CURVE SMOOTH",
"384 -14 LINE"
);
},
{
closed = 1;
nodes = (
"224 72 OFFCURVE",
"143 195 OFFCURVE",
"143 350 CURVE SMOOTH",
"143 505 OFFCURVE",
"224 628 OFFCURVE",
"384 628 CURVE SMOOTH",
"384 628 LINE",
"544 628 OFFCURVE",
"625 505 OFFCURVE",
"625 350 CURVE SMOOTH",
"625 195 OFFCURVE",
"544 72 OFFCURVE",
"384 72 CURVE SMOOTH"
);
}
);
width = 768;
},
{
anchors = (
{
name = bottom;
position = "{380, 0}";
},
{
name = center;
position = "{380, 350}";
},
{
name = ogonek;
position = "{684, 10}";
},
{
name = top;
position = "{380, 700}";
},
{
name = topleft;
position = "{20, 700}";
},
{
name = topright;
position = "{574, 700}";
}
);
layerId = "7C863538-AAB4-42AD-A9FE-7240E615272A";
paths = (
{
closed = 1;
nodes = (
"580 -14 OFFCURVE",
"725 130 OFFCURVE",
"725 350 CURVE SMOOTH",
"725 570 OFFCURVE",
"580 714 OFFCURVE",
"380 714 CURVE SMOOTH",
"180 714 OFFCURVE",
"35 570 OFFCURVE",
"35 350 CURVE SMOOTH",
"35 130 OFFCURVE",
"180 -14 OFFCURVE",
"380 -14 CURVE SMOOTH",
"380 -14 LINE"
);
},
{
closed = 1;
nodes = (
"244 109 OFFCURVE",
"175 210 OFFCURVE",
"175 350 CURVE SMOOTH",
"175 490 OFFCURVE",
"244 591 OFFCURVE",
"380 591 CURVE SMOOTH",
"380 591 LINE",
"516 591 OFFCURVE",
"585 490 OFFCURVE",
"585 350 CURVE SMOOTH",
"585 210 OFFCURVE",
"516 109 OFFCURVE",
"380 109 CURVE SMOOTH"
);
}
);
width = 760;
}
);
leftKerningGroup = O;
rightKerningGroup = O;
unicode = 004F;
},
{
glyphname = Oslash;
lastChange = "2016-08-27 22:34:25 +0000";
layers = (
{
layerId = UUID0;
paths = (
{
closed = 1;
nodes = (
"165 -30 LINE",
"207 31 LINE",
"269 0 OFFCURVE",
"324 -12 OFFCURVE",
"383 -12 CURVE SMOOTH",
"383 -12 LINE",
"584 -12 OFFCURVE",
"729 129 OFFCURVE",
"729 349 CURVE SMOOTH",
"729 462 OFFCURVE",
"691 554 OFFCURVE",
"618 627 CURVE",
"679 716 LINE",
"587 716 LINE",
"556 672 LINE",
"495 702 OFFCURVE",
"442 714 OFFCURVE",
"384 714 CURVE SMOOTH",
"184 714 OFFCURVE",
"39 572 OFFCURVE",
"39 350 CURVE SMOOTH",
"39 240 OFFCURVE",
"75 150 OFFCURVE",
"145 75 CURVE",
"72 -30 LINE"
);
},
{
closed = 1;
nodes = (
"159 231 OFFCURVE",
"147 288 OFFCURVE",
"147 349 CURVE SMOOTH",
"147 505 OFFCURVE",
"225 625 OFFCURVE",
"383 625 CURVE SMOOTH",
"383 625 LINE",
"421 625 OFFCURVE",
"453 618 OFFCURVE",
"503 597 CURVE",
"202 156 LINE"
);
},
{
closed = 1;
nodes = (
"346 76 OFFCURVE",
"311 83 OFFCURVE",
"260 105 CURVE",
"563 548 LINE",
"608 493 OFFCURVE",
"621 415 OFFCURVE",
"621 352 CURVE SMOOTH",
"621 196 OFFCURVE",
"543 76 OFFCURVE",
"384 76 CURVE SMOOTH"
);
}
);
width = 767;
},
{
layerId = "7C863538-AAB4-42AD-A9FE-7240E615272A";
paths = (
{
closed = 1;
nodes = (
"183 -31 LINE",
"219 22 LINE",
"266 -1 OFFCURVE",
"321 -14 OFFCURVE",
"380 -14 CURVE SMOOTH",
"380 -14 LINE",
"580 -14 OFFCURVE",
"725 130 OFFCURVE",
"725 350 CURVE SMOOTH",
"725 460 OFFCURVE",
"688 552 OFFCURVE",
"626 615 CURVE",
"695 716 LINE",
"561 716 LINE",
"536 680 LINE",
"490 702 OFFCURVE",
"437 714 OFFCURVE",
"380 714 CURVE SMOOTH",
"180 714 OFFCURVE",
"35 570 OFFCURVE",
"35 350 CURVE SMOOTH",
"35 241 OFFCURVE",
"70 151 OFFCURVE",
"130 87 CURVE",
"49 -31 LINE"
);
},
{
closed = 1;
nodes = (
"186 242 OFFCURVE",
"175 293 OFFCURVE",
"175 350 CURVE SMOOTH",
"175 490 OFFCURVE",
"244 591 OFFCURVE",
"380 591 CURVE SMOOTH",
"380 591 LINE",
"412 591 OFFCURVE",
"440 585 OFFCURVE",
"464 575 CURVE",
"209 202 LINE"
);
},
{
closed = 1;
nodes = (
"346 109 OFFCURVE",
"316 115 OFFCURVE",
"291 126 CURVE",
"548 502 LINE",
"573 461 OFFCURVE",
"585 409 OFFCURVE",
"585 350 CURVE SMOOTH",
"585 210 OFFCURVE",
"516 109 OFFCURVE",
"380 109 CURVE SMOOTH"
);
}
);
width = 760;
}
);
leftKerningGroup = O;
rightKerningGroup = O;
unicode = 00D8;
},
{
glyphname = OE;
lastChange = "2016-08-27 22:34:25 +0000";
layers = (
{
layerId = UUID0;
paths = (
{
closed = 1;
nodes = (
"459 -14 OFFCURVE",
"530 11 OFFCURVE",
"624 83 CURVE",
"624 0 LINE",
"1034 0 LINE",
"1034 86 LINE",
"715 86 LINE",
"715 323 LINE",
"953 323 LINE",
"953 409 LINE",
"715 409 LINE",
"715 614 LINE",
"1025 614 LINE",
"1025 699 LINE",
"624 699 LINE",
"624 617 LINE",
"530 689 OFFCURVE",
"459 714 OFFCURVE",
"378 714 CURVE SMOOTH",
"182 714 OFFCURVE",
"40 572 OFFCURVE",
"40 350 CURVE SMOOTH",
"40 128 OFFCURVE",
"182 -14 OFFCURVE",
"378 -14 CURVE SMOOTH"
);
},
{
closed = 1;
nodes = (
"218 72 OFFCURVE",
"140 193 OFFCURVE",
"140 350 CURVE SMOOTH",
"140 507 OFFCURVE",
"218 628 OFFCURVE",
"378 628 CURVE SMOOTH",
"378 628 LINE",
"537 628 OFFCURVE",
"615 507 OFFCURVE",
"615 350 CURVE SMOOTH",
"615 193 OFFCURVE",
"537 72 OFFCURVE",
"378 72 CURVE SMOOTH"
);
}
);
width = 1071;
},
{
layerId = "7C863538-AAB4-42AD-A9FE-7240E615272A";
paths = (
{
closed = 1;
nodes = (
"462 -14 OFFCURVE",
"535 11 OFFCURVE",
"593 55 CURVE",
"593 0 LINE",
"1029 0 LINE",
"1029 124 LINE",
"724 124 LINE",
"724 303 LINE",
"952 303 LINE",
"952 427 LINE",
"724 427 LINE",
"724 576 LINE",
"1020 576 LINE",
"1020 700 LINE",
"593 700 LINE",
"593 645 LINE",
"535 689 OFFCURVE",
"462 714 OFFCURVE",
"380 714 CURVE SMOOTH",
"180 714 OFFCURVE",
"35 570 OFFCURVE",
"35 350 CURVE SMOOTH",
"35 130 OFFCURVE",
"180 -14 OFFCURVE",
"380 -14 CURVE SMOOTH"
);
},
{
closed = 1;
nodes = (
"244 109 OFFCURVE",
"175 210 OFFCURVE",
"175 350 CURVE SMOOTH",
"175 490 OFFCURVE",
"244 591 OFFCURVE",
"380 591 CURVE SMOOTH",
"380 591 LINE",
"516 591 OFFCURVE",
"585 490 OFFCURVE",
"585 350 CURVE SMOOTH",
"585 210 OFFCURVE",
"516 109 OFFCURVE",
"380 109 CURVE SMOOTH"
);
}
);
width = 1063;
}
);
leftKerningGroup = O;
rightKerningGroup = E;
unicode = 0152;
},
{
glyphname = P;
lastChange = "2016-08-27 22:34:25 +0000";
layers = (
{
background = {
paths = (
{
closed = 1;
nodes = (
"330 245 LINE SMOOTH",
"423 245 OFFCURVE",
"546 300 OFFCURVE",
"546 482 CURVE SMOOTH",
"546 670 OFFCURVE",
"453 700 OFFCURVE",
"252 700 CURVE SMOOTH",
"64 700 LINE",
"64 0 LINE",
"164 0 LINE",
"164 245 LINE"
);
},
{
closed = 1;
nodes = (
"284 615 LINE SMOOTH",
"407 615 OFFCURVE",
"447 578 OFFCURVE",
"447 478 CURVE SMOOTH",
"447 384 OFFCURVE",
"409 330 OFFCURVE",
"312 330 CURVE SMOOTH",
"164 330 LINE",
"164 615 LINE"
);
}
);
};
layerId = UUID0;
paths = (
{
closed = 1;
nodes = (
"180 0 LINE",
"180 245 LINE",
"332 245 LINE SMOOTH",
"425 245 OFFCURVE",
"548 300 OFFCURVE",
"548 482 CURVE SMOOTH",
"548 670 OFFCURVE",
"434 700 OFFCURVE",
"304 700 CURVE SMOOTH",
"80 700 LINE",
"80 0 LINE"
);
},
{
closed = 1;
nodes = (
"180 615 LINE",
"286 615 LINE SMOOTH",
"409 615 OFFCURVE",
"449 578 OFFCURVE",
"449 478 CURVE SMOOTH",
"449 384 OFFCURVE",
"411 330 OFFCURVE",
"314 330 CURVE SMOOTH",
"180 330 LINE"
);
}
);
width = 572;
},
{
background = {
paths = (
{
closed = 1;
nodes = (
"264 230 LINE SMOOTH",
"480 230 OFFCURVE",
"575 288 OFFCURVE",
"575 478 CURVE SMOOTH",
"575 670 OFFCURVE",
"469 700 OFFCURVE",
"275 700 CURVE SMOOTH",
"77 700 LINE",
"77 0 LINE",
"205 0 LINE",
"205 230 LINE"
);
},
{
closed = 1;
nodes = (
"310 593 LINE SMOOTH",
"417 593 OFFCURVE",
"445 557 OFFCURVE",
"445 477 CURVE SMOOTH",
"445 382 OFFCURVE",
"406 350 OFFCURVE",
"313 350 CURVE SMOOTH",
"205 350 LINE",
"205 593 LINE"
);
}
);
};
layerId = "7C863538-AAB4-42AD-A9FE-7240E615272A";
paths = (
{
closed = 1;
nodes = (
"205 0 LINE",
"205 230 LINE",
"330 230 LINE SMOOTH",
"429 230 OFFCURVE",
"575 277 OFFCURVE",
"575 478 CURVE SMOOTH",
"575 670 OFFCURVE",
"469 700 OFFCURVE",
"275 700 CURVE SMOOTH",
"77 700 LINE",
"77 0 LINE"
);
},
{
closed = 1;
nodes = (
"205 593 LINE",
"310 593 LINE SMOOTH",
"417 593 OFFCURVE",
"445 557 OFFCURVE",
"445 477 CURVE SMOOTH",
"445 382 OFFCURVE",
"406 350 OFFCURVE",
"313 350 CURVE SMOOTH",
"205 350 LINE"
);
}
);
width = 596;
}
);
leftKerningGroup = I;
unicode = 0050;
},
{
glyphname = Thorn;
lastChange = "2016-08-27 22:34:25 +0000";
layers = (
{
layerId = UUID0;
paths = (
{
closed = 1;
nodes = (
"180 0 LINE",
"180 206 LINE",
"248 206 LINE SMOOTH",
"463 206 OFFCURVE",
"550 254 OFFCURVE",
"550 392 CURVE SMOOTH",
"550 534 OFFCURVE",
"458 560 OFFCURVE",
"248 560 CURVE SMOOTH",
"180 560 LINE",
"180 700 LINE",
"80 700 LINE",
"80 0 LINE"
);
},
{
closed = 1;
nodes = (
"180 503 LINE",
"284 503 LINE SMOOTH",
"402 503 OFFCURVE",
"455 471 OFFCURVE",
"455 385 CURVE SMOOTH",
"455 304 OFFCURVE",
"403 261 OFFCURVE",
"284 261 CURVE SMOOTH",
"180 261 LINE"
);
}
);
width = 570;
},
{
layerId = "7C863538-AAB4-42AD-A9FE-7240E615272A";
paths = (
{
closed = 1;
nodes = (
"205 0 LINE",
"205 193 LINE",
"251 193 LINE SMOOTH",
"447 193 OFFCURVE",
"547 239 OFFCURVE",
"547 389 CURVE SMOOTH",
"547 545 OFFCURVE",
"439 569 OFFCURVE",
"251 569 CURVE SMOOTH",
"205 569 LINE",
"205 700 LINE",
"77 700 LINE",
"77 0 LINE"
);
},
{
closed = 1;
nodes = (
"205 471 LINE",
"284 471 LINE SMOOTH",
"387 471 OFFCURVE",
"417 445 OFFCURVE",
"417 383 CURVE SMOOTH",
"417 324 OFFCURVE",
"385 289 OFFCURVE",
"284 289 CURVE SMOOTH",
"205 289 LINE"
);
}
);
width = 564;
}
);
leftKerningGroup = I;
unicode = 00DE;
},
{
glyphname = Q;
lastChange = "2016-08-27 22:34:25 +0000";
layers = (
{
layerId = UUID0;
paths = (
{
closed = 1;
nodes = (
"462 -14 OFFCURVE",
"532 8 OFFCURVE",
"600 57 CURVE",
"665 3 LINE",
"715 62 LINE",
"655 111 LINE",
"706 187 OFFCURVE",
"729 263 OFFCURVE",
"729 350 CURVE SMOOTH",
"729 572 OFFCURVE",
"584 714 OFFCURVE",
"384 714 CURVE SMOOTH",
"184 714 OFFCURVE",
"39 572 OFFCURVE",
"39 350 CURVE SMOOTH",
"39 128 OFFCURVE",
"184 -14 OFFCURVE",
"384 -14 CURVE SMOOTH"
);
},
{
closed = 1;
nodes = (
"222 72 OFFCURVE",
"143 194 OFFCURVE",
"143 350 CURVE SMOOTH",
"143 506 OFFCURVE",
"222 628 OFFCURVE",
"384 628 CURVE SMOOTH",
"384 628 LINE",
"546 628 OFFCURVE",
"635 506 OFFCURVE",
"635 350 CURVE SMOOTH",
"635 294 OFFCURVE",
"631 233 OFFCURVE",
"587 164 CURVE",
"482 257 LINE",
"432 196 LINE",
"535 112 LINE",
"490 79 OFFCURVE",
"429 72 OFFCURVE",
"384 72 CURVE SMOOTH"
);
}
);
width = 768;
},
{
layerId = "7C863538-AAB4-42AD-A9FE-7240E615272A";
paths = (
{
closed = 1;
nodes = (
"457 -14 OFFCURVE",
"527 7 OFFCURVE",
"582 47 CURVE",
"651 -10 LINE",
"725 79 LINE",
"663 130 LINE",
"702 189 OFFCURVE",
"725 264 OFFCURVE",
"725 350 CURVE SMOOTH",
"725 570 OFFCURVE",
"580 714 OFFCURVE",
"380 714 CURVE SMOOTH",
"180 714 OFFCURVE",
"35 570 OFFCURVE",
"35 350 CURVE SMOOTH",
"35 130 OFFCURVE",
"180 -14 OFFCURVE",
"380 -14 CURVE SMOOTH"
);
},
{
closed = 1;
nodes = (
"244 109 OFFCURVE",
"175 210 OFFCURVE",
"175 350 CURVE SMOOTH",
"175 490 OFFCURVE",
"244 591 OFFCURVE",
"380 591 CURVE SMOOTH",
"380 591 LINE",
"516 591 OFFCURVE",
"585 490 OFFCURVE",
"585 350 CURVE SMOOTH",
"585 300 OFFCURVE",
"576 255 OFFCURVE",
"558 218 CURVE",
"470 292 LINE",
"396 203 LINE",
"480 132 LINE",
"452 117 OFFCURVE",
"419 109 OFFCURVE",
"380 109 CURVE SMOOTH"
);
}
);
width = 760;
}
);
leftKerningGroup = O;
rightKerningGroup = O;
unicode = 0051;
},
{
glyphname = R;
lastChange = "2016-08-27 22:34:25 +0000";
layers = (
{
layerId = UUID0;
paths = (
{
closed = 1;
nodes = (
"180 0 LINE",
"180 273 LINE",
"327 273 LINE",
"482 0 LINE",
"584 0 LINE",
"421 298 LINE",
"502 336 OFFCURVE",
"549 409 OFFCURVE",
"549 495 CURVE SMOOTH",
"549 652 OFFCURVE",
"453 700 OFFCURVE",
"307 700 CURVE SMOOTH",
"80 700 LINE",
"80 0 LINE"
);
},
{
closed = 1;
nodes = (
"180 623 LINE",
"306 623 LINE SMOOTH",
"401 623 OFFCURVE",
"450 576 OFFCURVE",
"450 495 CURVE SMOOTH",
"450 397 OFFCURVE",
"383 365 OFFCURVE",
"331 365 CURVE SMOOTH",
"180 365 LINE"
);
}
);
width = 603;
},
{
layerId = "7C863538-AAB4-42AD-A9FE-7240E615272A";
paths = (
{
closed = 1;
nodes = (
"205 0 LINE",
"205 260 LINE",
"335 260 LINE",
"480 0 LINE",
"613 0 LINE",
"455 294 LINE",
"521 335 OFFCURVE",
"574 390 OFFCURVE",
"574 498 CURVE SMOOTH",
"574 650 OFFCURVE",
"468 700 OFFCURVE",
"333 700 CURVE SMOOTH",
"77 700 LINE",
"77 0 LINE"
);
},
{
closed = 1;
nodes = (
"205 593 LINE",
"304 593 LINE SMOOTH",
"414 593 OFFCURVE",
"440 554 OFFCURVE",
"440 489 CURVE SMOOTH",
"440 426 OFFCURVE",
"415 380 OFFCURVE",
"299 380 CURVE SMOOTH",
"205 380 LINE"
);
}
);
width = 626;
}
);
leftKerningGroup = I;
unicode = 0052;
},
{
glyphname = S;
lastChange = "2016-08-27 22:34:25 +0000";
layers = (
{
layerId = UUID0;
paths = (
{
closed = 1;
nodes = (
"522 -14 OFFCURVE",
"553 107 OFFCURVE",
"553 181 CURVE SMOOTH",
"553 333 OFFCURVE",
"418 370 OFFCURVE",
"295 408 CURVE SMOOTH",
"211 434 OFFCURVE",
"144 460 OFFCURVE",
"144 525 CURVE SMOOTH",
"144 598 OFFCURVE",
"229 628 OFFCURVE",
"301 628 CURVE SMOOTH",
"371 628 OFFCURVE",
"434 599 OFFCURVE",
"502 565 CURVE",
"512 666 LINE",
"472 688 OFFCURVE",
"383 714 OFFCURVE",
"292 714 CURVE SMOOTH",
"100 714 OFFCURVE",
"40 599 OFFCURVE",
"40 512 CURVE SMOOTH",
"40 392 OFFCURVE",
"152 358 OFFCURVE",
"268 321 CURVE SMOOTH",
"369 289 OFFCURVE",
"449 259 OFFCURVE",
"449 180 CURVE SMOOTH",
"449 101 OFFCURVE",
"368 72 OFFCURVE",
"282 72 CURVE SMOOTH",
"187 72 OFFCURVE",
"110 108 OFFCURVE",
"64 142 CURVE",
"51 31 LINE",
"94 8 OFFCURVE",
"177 -14 OFFCURVE",
"280 -14 CURVE SMOOTH",
"280 -14 LINE"
);
}
);
width = 584;
},
{
layerId = "7C863538-AAB4-42AD-A9FE-7240E615272A";
paths = (
{
closed = 1;
nodes = (
"516 -14 OFFCURVE",
"551 110 OFFCURVE",
"551 190 CURVE SMOOTH",
"551 344 OFFCURVE",
"418 384 OFFCURVE",
"309 417 CURVE SMOOTH",
"233 440 OFFCURVE",
"168 462 OFFCURVE",
"168 518 CURVE SMOOTH",
"168 578 OFFCURVE",
"242 592 OFFCURVE",
"296 592 CURVE SMOOTH",
"363 592 OFFCURVE",
"426 570 OFFCURVE",
"501 529 CURVE",
"514 660 LINE",
"478 684 OFFCURVE",
"387 714 OFFCURVE",
"291 714 CURVE SMOOTH",
"102 714 OFFCURVE",
"38 597 OFFCURVE",
"38 504 CURVE SMOOTH",
"38 379 OFFCURVE",
"146 344 OFFCURVE",
"245 310 CURVE SMOOTH",
"330 281 OFFCURVE",
"408 256 OFFCURVE",
"408 185 CURVE SMOOTH",
"408 128 OFFCURVE",
"358 109 OFFCURVE",
"283 109 CURVE SMOOTH",
"178 109 OFFCURVE",
"101 146 OFFCURVE",
"63 183 CURVE",
"48 37 LINE",
"88 11 OFFCURVE",
"174 -14 OFFCURVE",
"280 -14 CURVE SMOOTH",
"280 -14 LINE"
);
}
);
width = 580;
}
);
leftKerningGroup = S;
rightKerningGroup = S;
unicode = 0053;
},
{
glyphname = T;
lastChange = "2016-08-27 22:34:25 +0000";
layers = (
{
layerId = UUID0;
paths = (
{
closed = 1;
nodes = (
"314 0 LINE",
"314 614 LINE",
"518 614 LINE",
"518 700 LINE",
"15 700 LINE",
"15 614 LINE",
"219 614 LINE",
"219 0 LINE"
);
}
);
width = 533;
},
{
layerId = "7C863538-AAB4-42AD-A9FE-7240E615272A";
paths = (
{
closed = 1;
nodes = (
"341 0 LINE",
"341 576 LINE",
"539 576 LINE",
"539 700 LINE",
"15 700 LINE",
"15 576 LINE",
"213 576 LINE",
"213 0 LINE"
);
}
);
width = 554;
}
);
unicode = 0054;
},
{
glyphname = U;
lastChange = "2016-08-27 22:34:25 +0000";
layers = (
{
anchors = (
{
name = bottom;
position = "{362, 0}";
},
{
name = ogonek;
position = "{652, 10}";
},
{
name = top;
position = "{362, 700}";
},
{
name = topright;
position = "{675, 700}";
}
);
layerId = UUID0;
paths = (
{
closed = 1;
nodes = (
"559 -14 OFFCURVE",
"652 105 OFFCURVE",
"652 297 CURVE SMOOTH",
"652 700 LINE",
"557 700 LINE",
"557 343 LINE SMOOTH",
"557 206 OFFCURVE",
"528 72 OFFCURVE",
"362 72 CURVE SMOOTH",
"196 72 OFFCURVE",
"167 205 OFFCURVE",
"167 343 CURVE SMOOTH",
"167 700 LINE",
"72 700 LINE",
"72 297 LINE SMOOTH",
"72 105 OFFCURVE",
"165 -14 OFFCURVE",
"362 -14 CURVE SMOOTH",
"362 -14 LINE"
);
}
);
width = 724;
},
{
anchors = (
{
name = bottom;
position = "{359, 0}";
},
{
name = ogonek;
position = "{646, 10}";
},
{
name = top;
position = "{359, 700}";
},
{
name = topright;
position = "{677, 700}";
}
);
layerId = "7C863538-AAB4-42AD-A9FE-7240E615272A";
paths = (
{
closed = 1;
nodes = (
"556 -14 OFFCURVE",
"649 110 OFFCURVE",
"649 300 CURVE SMOOTH",
"649 700 LINE",
"521 700 LINE",
"521 343 LINE SMOOTH",
"521 213 OFFCURVE",
"494 109 OFFCURVE",
"359 109 CURVE SMOOTH",
"224 109 OFFCURVE",
"197 213 OFFCURVE",
"197 343 CURVE SMOOTH",
"197 700 LINE",
"69 700 LINE",
"69 300 LINE SMOOTH",
"69 110 OFFCURVE",
"162 -14 OFFCURVE",
"359 -14 CURVE SMOOTH",
"359 -14 LINE"
);
}
);
width = 718;
}
);
leftKerningGroup = U;
rightKerningGroup = U;
unicode = 0055;
},
{
glyphname = V;
lastChange = "2016-08-27 22:34:25 +0000";
layers = (
{
layerId = UUID0;
paths = (
{
closed = 1;
nodes = (
"372 0 LINE",
"640 700 LINE",
"540 700 LINE",
"323 109 LINE",
"104 700 LINE",
"4 700 LINE",
"272 0 LINE"
);
}
);
width = 644;
},
{
layerId = "7C863538-AAB4-42AD-A9FE-7240E615272A";
paths = (
{
closed = 1;
nodes = (
"408 0 LINE",
"654 700 LINE",
"522 700 LINE",
"329 169 LINE",
"133 700 LINE",
"0 700 LINE",
"252 0 LINE"
);
}
);
width = 657;
}
);
unicode = 0056;
},
{
glyphname = W;
lastChange = "2016-08-27 22:34:25 +0000";
layers = (
{
layerId = UUID0;
paths = (
{
closed = 1;
nodes = (
"315 0 LINE",
"486 574 LINE",
"651 0 LINE",
"756 0 LINE",
"961 700 LINE",
"861 700 LINE",
"707 109 LINE",
"530 686 LINE",
"444 686 LINE",
"269 108 LINE",
"114 700 LINE",
"14 700 LINE",
"210 0 LINE"
);
}
);
width = 971;
},
{
layerId = "7C863538-AAB4-42AD-A9FE-7240E615272A";
paths = (
{
closed = 1;
nodes = (
"328 0 LINE",
"483 467 LINE",
"639 0 LINE",
"752 0 LINE",
"957 700 LINE",
"824 700 LINE",
"690 216 LINE",
"528 700 LINE",
"439 700 LINE",
"283 203 LINE",
"143 700 LINE",
"10 700 LINE",
"207 0 LINE"
);
}
);
width = 963;
}
);
unicode = 0057;
},
{
glyphname = X;
lastChange = "2016-08-27 22:34:25 +0000";
layers = (
{
layerId = UUID0;
paths = (
{
closed = 1;
nodes = (
"109 0 LINE",
"292 286 LINE",
"494 0 LINE",
"594 0 LINE",
"343 361 LINE",
"593 700 LINE",
"493 700 LINE",
"299 427 LINE",
"119 700 LINE",
"9 700 LINE",
"244 349 LINE",
"9 0 LINE"
);
}
);
width = 599;
},
{
layerId = "7C863538-AAB4-42AD-A9FE-7240E615272A";
paths = (
{
closed = 1;
nodes = (
"146 0 LINE",
"311 257 LINE",
"481 0 LINE",
"629 0 LINE",
"385 363 LINE",
"615 700 LINE",
"468 700 LINE",
"320 454 LINE",
"158 700 LINE",
"10 700 LINE",
"246 349 LINE",
"-1 0 LINE"
);
}
);
width = 627;
}
);
unicode = 0058;
},
{
glyphname = Y;
lastChange = "2016-08-27 22:34:25 +0000";
layers = (
{
anchors = (
{
name = bottom;
position = "{284, 0}";
},
{
name = top;
position = "{284, 700}";
},
{
name = topleft;
position = "{20, 700}";
}
);
layerId = UUID0;
paths = (
{
closed = 1;
nodes = (
"333 0 LINE",
"333 323 LINE",
"569 700 LINE",
"469 700 LINE",
"283 409 LINE",
"97 700 LINE",
"-3 700 LINE",
"234 323 LINE",
"234 0 LINE"
);
}
);
width = 567;
},
{
anchors = (
{
name = bottom;
position = "{299, 0}";
},
{
name = top;
position = "{299, 700}";
},
{
name = topleft;
position = "{20, 700}";
}
);
layerId = "7C863538-AAB4-42AD-A9FE-7240E615272A";
paths = (
{
closed = 1;
nodes = (
"363 0 LINE",
"363 310 LINE",
"605 700 LINE",
"469 700 LINE",
"299 424 LINE",
"129 700 LINE",
"-7 700 LINE",
"235 310 LINE",
"235 0 LINE"
);
}
);
width = 598;
}
);
leftKerningGroup = Y;
rightKerningGroup = Y;
unicode = 0059;
},
{
glyphname = Z;
lastChange = "2016-08-27 22:34:25 +0000";
layers = (
{
layerId = UUID0;
paths = (
{
closed = 1;
nodes = (
"497 0 LINE",
"497 86 LINE",
"165 86 LINE",
"542 700 LINE",
"54 700 LINE",
"54 614 LINE",
"385 614 LINE",
"9 0 LINE"
);
}
);
width = 549;
},
{
layerId = "7C863538-AAB4-42AD-A9FE-7240E615272A";
paths = (
{
closed = 1;
nodes = (
"496 0 LINE",
"496 124 LINE",
"219 124 LINE",
"541 700 LINE",
"53 700 LINE",
"53 576 LINE",
"330 576 LINE",
"8 0 LINE"
);
}
);
width = 548;
}
);
leftKerningGroup = Z;
rightKerningGroup = Z;
unicode = 005A;
},
{
glyphname = a;
lastChange = "2016-08-27 22:34:25 +0000";
layers = (
{
anchors = (
{
name = bottom;
position = "{240, 0}";
},
{
name = ogonek;
position = "{432, 10}";
},
{
name = top;
position = "{240, 490}";
}
);
layerId = UUID0;
paths = (
{
closed = 1;
nodes = (
"238 -10 OFFCURVE",
"288 19 OFFCURVE",
"325 62 CURVE",
"345 16 OFFCURVE",
"364 -10 OFFCURVE",
"451 -10 CURVE SMOOTH",
"458 -10 LINE",
"472 62 LINE",
"463 62 LINE SMOOTH",
"411 62 OFFCURVE",
"407 95 OFFCURVE",
"407 165 CURVE SMOOTH",
"407 265 LINE SMOOTH",
"407 442 OFFCURVE",
"358 500 OFFCURVE",
"234 500 CURVE SMOOTH",
"169 500 OFFCURVE",
"107 479 OFFCURVE",
"68 449 CURVE",
"81 376 LINE",
"133 412 OFFCURVE",
"173 420 OFFCURVE",
"210 420 CURVE SMOOTH",
"279 420 OFFCURVE",
"317 400 OFFCURVE",
"317 307 CURVE",
"192 305 OFFCURVE",
"24 270 OFFCURVE",
"24 132 CURVE SMOOTH",
"24 50 OFFCURVE",
"84 -10 OFFCURVE",
"175 -10 CURVE SMOOTH"
);
},
{
closed = 1;
nodes = (
"147 62 OFFCURVE",
"116 84 OFFCURVE",
"116 137 CURVE SMOOTH",
"116 210 OFFCURVE",
"174 240 OFFCURVE",
"317 245 CURVE",
"317 128 LINE",
"288 88 OFFCURVE",
"240 62 OFFCURVE",
"192 62 CURVE SMOOTH"
);
}
);
width = 480;
},
{
anchors = (
{
name = bottom;
position = "{249, 0}";
},
{
name = ogonek;
position = "{448, 10}";
},
{
name = top;
position = "{249, 500}";
}
);
layerId = "7C863538-AAB4-42AD-A9FE-7240E615272A";
paths = (
{
closed = 1;
nodes = (
"226 -10 OFFCURVE",
"286 11 OFFCURVE",
"319 48 CURVE",
"338 13 OFFCURVE",
"375 -10 OFFCURVE",
"431 -10 CURVE SMOOTH",
"476 -10 LINE",
"487 92 LINE",
"471 92 LINE SMOOTH",
"435 92 OFFCURVE",
"427 97 OFFCURVE",
"427 172 CURVE SMOOTH",
"427 307 LINE SMOOTH",
"427 452 OFFCURVE",
"358 508 OFFCURVE",
"246 508 CURVE SMOOTH",
"184 508 OFFCURVE",
"124 493 OFFCURVE",
"64 464 CURVE",
"75 363 LINE",
"128 389 OFFCURVE",
"167 401 OFFCURVE",
"212 401 CURVE SMOOTH",
"276 401 OFFCURVE",
"299 376 OFFCURVE",
"302 319 CURVE",
"208 316 OFFCURVE",
"21 281 OFFCURVE",
"21 140 CURVE SMOOTH",
"21 45 OFFCURVE",
"86 -10 OFFCURVE",
"166 -10 CURVE SMOOTH"
);
},
{
closed = 1;
nodes = (
"171 85 OFFCURVE",
"151 104 OFFCURVE",
"151 145 CURVE SMOOTH",
"151 204 OFFCURVE",
"233 232 OFFCURVE",
"303 235 CURVE",
"303 121 LINE",
"277 96 OFFCURVE",
"240 85 OFFCURVE",
"218 85 CURVE SMOOTH"
);
}
);
width = 498;
}
);
leftKerningGroup = a;
rightKerningGroup = a;
unicode = 0061;
},
{
glyphname = ae;
lastChange = "2016-08-27 22:34:25 +0000";
layers = (
{
layerId = UUID0;
paths = (
{
closed = 1;
nodes = (
"264 -14 OFFCURVE",
"345 25 OFFCURVE",
"380 103 CURVE",
"417 22 OFFCURVE",
"487 -10 OFFCURVE",
"581 -10 CURVE SMOOTH",
"647 -10 OFFCURVE",
"695 8 OFFCURVE",
"744 30 CURVE",
"727 99 LINE",
"673 76 OFFCURVE",
"641 62 OFFCURVE",
"593 62 CURVE SMOOTH",
"497 62 OFFCURVE",
"428 122 OFFCURVE",
"428 245 CURVE",
"764 245 LINE",
"766 261 OFFCURVE",
"768 279 OFFCURVE",
"768 300 CURVE SMOOTH",
"768 429 OFFCURVE",
"691 500 OFFCURVE",
"577 500 CURVE SMOOTH",
"501 500 OFFCURVE",
"419 469 OFFCURVE",
"390 380 CURVE",
"372 481 OFFCURVE",
"277 500 OFFCURVE",
"231 500 CURVE SMOOTH",
"185 500 OFFCURVE",
"131 487 OFFCURVE",
"75 461 CURVE",
"83 391 LINE",
"127 410 OFFCURVE",
"163 420 OFFCURVE",
"205 420 CURVE SMOOTH",
"280 420 OFFCURVE",
"311 387 OFFCURVE",
"323 307 CURVE",
"202 301 OFFCURVE",
"22 270 OFFCURVE",
"22 118 CURVE SMOOTH",
"22 38 OFFCURVE",
"71 -14 OFFCURVE",
"172 -14 CURVE SMOOTH"
);
},
{
closed = 1;
nodes = (
"148 62 OFFCURVE",
"114 79 OFFCURVE",
"114 126 CURVE SMOOTH",
"114 215 OFFCURVE",
"238 245 OFFCURVE",
"331 245 CURVE",
"331 245 LINE",
"333 227 OFFCURVE",
"333 211 OFFCURVE",
"333 198 CURVE SMOOTH",
"333 97 OFFCURVE",
"256 62 OFFCURVE",
"192 62 CURVE SMOOTH"
);
},
{
closed = 1;
nodes = (
"457 387 OFFCURVE",
"505 420 OFFCURVE",
"573 420 CURVE SMOOTH",
"573 420 LINE SMOOTH",
"642 420 OFFCURVE",
"682 386 OFFCURVE",
"682 307 CURVE",
"436 307 LINE"
);
}
);
width = 798;
},
{
layerId = "7C863538-AAB4-42AD-A9FE-7240E615272A";
paths = (
{
closed = 1;
nodes = (
"277 -15 OFFCURVE",
"334 28 OFFCURVE",
"378 84 CURVE",
"409 28 OFFCURVE",
"477 -10 OFFCURVE",
"578 -10 CURVE SMOOTH",
"648 -10 OFFCURVE",
"706 8 OFFCURVE",
"744 28 CURVE",
"738 133 LINE",
"697 111 OFFCURVE",
"631 92 OFFCURVE",
"584 92 CURVE SMOOTH",
"518 92 OFFCURVE",
"455 130 OFFCURVE",
"441 223 CURVE",
"758 223 LINE",
"763 247 OFFCURVE",
"766 268 OFFCURVE",
"766 293 CURVE SMOOTH",
"766 424 OFFCURVE",
"684 508 OFFCURVE",
"568 508 CURVE SMOOTH",
"482 508 OFFCURVE",
"411 462 OFFCURVE",
"395 419 CURVE",
"371 488 OFFCURVE",
"320 508 OFFCURVE",
"244 508 CURVE SMOOTH",
"184 508 OFFCURVE",
"123 493 OFFCURVE",
"63 464 CURVE",
"74 363 LINE",
"127 389 OFFCURVE",
"166 401 OFFCURVE",
"211 401 CURVE SMOOTH",
"277 401 OFFCURVE",
"299 375 OFFCURVE",
"302 314 CURVE",
"203 309 OFFCURVE",
"20 281 OFFCURVE",
"20 127 CURVE SMOOTH",
"20 40 OFFCURVE",
"79 -15 OFFCURVE",
"184 -15 CURVE SMOOTH"
);
},
{
closed = 1;
nodes = (
"177 81 OFFCURVE",
"150 103 OFFCURVE",
"150 138 CURVE SMOOTH",
"150 204 OFFCURVE",
"243 229 OFFCURVE",
"310 230 CURVE",
"310 230 LINE",
"311 219 OFFCURVE",
"311 213 OFFCURVE",
"311 202 CURVE SMOOTH",
"311 122 OFFCURVE",
"255 81 OFFCURVE",
"210 81 CURVE SMOOTH"
);
},
{
closed = 1;
nodes = (
"456 365 OFFCURVE",
"503 406 OFFCURVE",
"564 406 CURVE SMOOTH",
"564 406 LINE SMOOTH",
"633 406 OFFCURVE",
"655 352 OFFCURVE",
"655 307 CURVE",
"444 307 LINE"
);
}
);
width = 794;
}
);
leftKerningGroup = a;
rightKerningGroup = e;
unicode = 00E6;
},
{
glyphname = b;
lastChange = "2016-08-27 22:34:25 +0000";
layers = (
{
layerId = UUID0;
paths = (
{
closed = 1;
nodes = (
"426 -10 OFFCURVE",
"523 102 OFFCURVE",
"523 245 CURVE SMOOTH",
"523 379 OFFCURVE",
"439 500 OFFCURVE",
"302 500 CURVE SMOOTH",
"258 500 OFFCURVE",
"192 488 OFFCURVE",
"150 437 CURVE",
"150 750 LINE",
"60 750 LINE",
"60 0 LINE",
"140 0 LINE",
"150 62 LINE",
"187 14 OFFCURVE",
"257 -10 OFFCURVE",
"301 -10 CURVE SMOOTH",
"301 -10 LINE SMOOTH"
);
},
{
closed = 1;
nodes = (
"219 70 OFFCURVE",
"145 122 OFFCURVE",
"145 245 CURVE SMOOTH",
"145 363 OFFCURVE",
"219 420 OFFCURVE",
"291 420 CURVE SMOOTH",
"291 420 LINE SMOOTH",
"377 420 OFFCURVE",
"431 345 OFFCURVE",
"431 245 CURVE SMOOTH",
"431 149 OFFCURVE",
"377 70 OFFCURVE",
"291 70 CURVE SMOOTH"
);
}
);
width = 555;
},
{
layerId = "7C863538-AAB4-42AD-A9FE-7240E615272A";
paths = (
{
closed = 1;
nodes = (
"458 -10 OFFCURVE",
"543 109 OFFCURVE",
"543 249 CURVE SMOOTH",
"543 389 OFFCURVE",
"458 508 OFFCURVE",
"298 508 CURVE SMOOTH",
"246 508 OFFCURVE",
"213 496 OFFCURVE",
"181 475 CURVE",
"181 750 LINE",
"57 750 LINE",
"57 0 LINE",
"173 0 LINE",
"175 28 LINE",
"210 4 OFFCURVE",
"243 -10 OFFCURVE",
"298 -10 CURVE SMOOTH",
"298 -10 LINE SMOOTH"
);
},
{
closed = 1;
nodes = (
"210 92 OFFCURVE",
"175 156 OFFCURVE",
"175 249 CURVE SMOOTH",
"175 342 OFFCURVE",
"210 406 OFFCURVE",
"290 406 CURVE SMOOTH",
"290 406 LINE SMOOTH",
"370 406 OFFCURVE",
"416 342 OFFCURVE",
"416 249 CURVE SMOOTH",
"416 156 OFFCURVE",
"370 92 OFFCURVE",
"290 92 CURVE SMOOTH"
);
}
);
width = 571;
}
);
leftKerningGroup = h;
rightKerningGroup = b;
unicode = 0062;
},
{
glyphname = c;
lastChange = "2016-08-27 22:34:25 +0000";
layers = (
{
layerId = UUID0;
paths = (
{
closed = 1;
nodes = (
"356 -10 OFFCURVE",
"397 8 OFFCURVE",
"426 27 CURVE",
"414 99 LINE",
"375 80 OFFCURVE",
"332 69 OFFCURVE",
"286 69 CURVE SMOOTH",
"177 69 OFFCURVE",
"125 139 OFFCURVE",
"125 246 CURVE SMOOTH",
"125 355 OFFCURVE",
"177 420 OFFCURVE",
"286 420 CURVE SMOOTH",
"332 420 OFFCURVE",
"374 409 OFFCURVE",
"413 390 CURVE",
"427 471 LINE",
"398 487 OFFCURVE",
"350 500 OFFCURVE",
"276 500 CURVE SMOOTH",
"113 500 OFFCURVE",
"33 389 OFFCURVE",
"33 246 CURVE SMOOTH",
"33 109 OFFCURVE",
"114 -10 OFFCURVE",
"277 -10 CURVE SMOOTH",
"277 -10 LINE"
);
}
);
width = 454;
},
{
layerId = "7C863538-AAB4-42AD-A9FE-7240E615272A";
paths = (
{
closed = 1;
nodes = (
"351 -10 OFFCURVE",
"389 7 OFFCURVE",
"421 27 CURVE",
"410 133 LINE",
"369 106 OFFCURVE",
"329 92 OFFCURVE",
"281 92 CURVE SMOOTH",
"201 92 OFFCURVE",
"155 156 OFFCURVE",
"155 249 CURVE SMOOTH",
"155 342 OFFCURVE",
"201 406 OFFCURVE",
"281 406 CURVE SMOOTH",
"329 406 OFFCURVE",
"369 392 OFFCURVE",
"410 365 CURVE",
"421 471 LINE",
"389 491 OFFCURVE",
"351 508 OFFCURVE",
"271 508 CURVE SMOOTH",
"111 508 OFFCURVE",
"28 389 OFFCURVE",
"28 249 CURVE SMOOTH",
"28 109 OFFCURVE",
"111 -10 OFFCURVE",
"271 -10 CURVE SMOOTH",
"271 -10 LINE"
);
}
);
width = 448;
}
);
leftKerningGroup = o;
rightKerningGroup = c;
unicode = 0063;
},
{
glyphname = d;
lastChange = "2016-08-27 22:34:25 +0000";
layers = (
{
layerId = UUID0;
paths = (
{
closed = 1;
nodes = (
"299 -10 OFFCURVE",
"368 14 OFFCURVE",
"405 62 CURVE",
"415 0 LINE",
"495 0 LINE",
"495 750 LINE",
"405 750 LINE",
"405 438 LINE",
"363 489 OFFCURVE",
"299 500 OFFCURVE",
"255 500 CURVE SMOOTH",
"118 500 OFFCURVE",
"32 379 OFFCURVE",
"32 245 CURVE SMOOTH",
"32 102 OFFCURVE",
"130 -10 OFFCURVE",
"255 -10 CURVE SMOOTH"
);
},
{
closed = 1;
nodes = (
"176 70 OFFCURVE",
"124 149 OFFCURVE",
"124 245 CURVE SMOOTH",
"124 345 OFFCURVE",
"176 420 OFFCURVE",
"262 420 CURVE SMOOTH",
"262 420 LINE",
"334 420 OFFCURVE",
"415 360 OFFCURVE",
"415 242 CURVE SMOOTH",
"415 119 OFFCURVE",
"334 70 OFFCURVE",
"262 70 CURVE SMOOTH"
);
}
);
width = 555;
},
{
layerId = "7C863538-AAB4-42AD-A9FE-7240E615272A";
paths = (
{
closed = 1;
nodes = (
"327 -10 OFFCURVE",
"360 4 OFFCURVE",
"395 28 CURVE",
"397 0 LINE",
"514 0 LINE",
"514 750 LINE",
"390 750 LINE",
"390 475 LINE",
"358 496 OFFCURVE",
"324 508 OFFCURVE",
"273 508 CURVE SMOOTH",
"113 508 OFFCURVE",
"28 389 OFFCURVE",
"28 249 CURVE SMOOTH",
"28 109 OFFCURVE",
"113 -10 OFFCURVE",
"273 -10 CURVE SMOOTH"
);
},
{
closed = 1;
nodes = (
"201 92 OFFCURVE",
"155 156 OFFCURVE",
"155 249 CURVE SMOOTH",
"155 342 OFFCURVE",
"201 406 OFFCURVE",
"281 406 CURVE SMOOTH",
"281 406 LINE",
"361 406 OFFCURVE",
"396 342 OFFCURVE",
"396 249 CURVE SMOOTH",
"396 156 OFFCURVE",
"361 92 OFFCURVE",
"281 92 CURVE SMOOTH"
);
}
);
width = 571;
}
);
leftKerningGroup = o;
unicode = 0064;
},
{
glyphname = eth;
lastChange = "2016-08-27 22:34:25 +0000";
layers = (
{
layerId = UUID0;
paths = (
{
closed = 1;
nodes = (
"347 -12 OFFCURVE",
"484 42 OFFCURVE",
"484 257 CURVE SMOOTH",
"484 394 OFFCURVE",
"427 535 OFFCURVE",
"341 614 CURVE",
"372 648 OFFCURVE",
"391 670 OFFCURVE",
"410 698 CURVE",
"364 710 LINE",
"348 689 OFFCURVE",
"334 672 OFFCURVE",
"305 646 CURVE",
"250 685 OFFCURVE",
"195 701 OFFCURVE",
"156 701 CURVE",
"124 659 LINE",
"164 659 OFFCURVE",
"206 640 OFFCURVE",
"245 605 CURVE",
"192 570 OFFCURVE",
"152 558 OFFCURVE",
"117 553 CURVE",
"147 498 LINE",
"193 504 OFFCURVE",
"237 524 OFFCURVE",
"288 560 CURVE",
"332 524 OFFCURVE",
"366 429 OFFCURVE",
"374 371 CURVE",
"352 395 OFFCURVE",
"307 426 OFFCURVE",
"239 426 CURVE SMOOTH",
"92 426 OFFCURVE",
"28 302 OFFCURVE",
"28 201 CURVE SMOOTH",
"28 78 OFFCURVE",
"123 -12 OFFCURVE",
"249 -12 CURVE SMOOTH",
"249 -12 LINE"
);
},
{
closed = 1;
nodes = (
"176 71 OFFCURVE",
"128 134 OFFCURVE",
"128 210 CURVE SMOOTH",
"128 279 OFFCURVE",
"175 343 OFFCURVE",
"254 343 CURVE SMOOTH",
"254 343 LINE SMOOTH",
"327 343 OFFCURVE",
"373 287 OFFCURVE",
"373 208 CURVE SMOOTH",
"373 129 OFFCURVE",
"325 71 OFFCURVE",
"253 71 CURVE SMOOTH"
);
}
);
width = 517;
},
{
layerId = "7C863538-AAB4-42AD-A9FE-7240E615272A";
paths = (
{
closed = 1;
nodes = (
"345 -13 OFFCURVE",
"472 45 OFFCURVE",
"472 258 CURVE SMOOTH",
"472 397 OFFCURVE",
"418 520 OFFCURVE",
"343 601 CURVE",
"368 629 OFFCURVE",
"390 661 OFFCURVE",
"412 695 CURVE",
"345 711 LINE",
"331 690 OFFCURVE",
"311 669 OFFCURVE",
"289 649 CURVE",
"243 682 OFFCURVE",
"193 700 OFFCURVE",
"144 701 CURVE",
"103 648 LINE",
"144 647 OFFCURVE",
"185 628 OFFCURVE",
"221 598 CURVE",
"179 571 OFFCURVE",
"135 554 OFFCURVE",
"101 554 CURVE",
"140 481 LINE",
"190 486 OFFCURVE",
"236 507 OFFCURVE",
"277 538 CURVE",
"311 516 OFFCURVE",
"341 424 OFFCURVE",
"345 387 CURVE",
"318 408 OFFCURVE",
"284 426 OFFCURVE",
"228 426 CURVE SMOOTH",
"87 426 OFFCURVE",
"16 313 OFFCURVE",
"16 205 CURVE SMOOTH",
"16 78 OFFCURVE",
"114 -13 OFFCURVE",
"242 -13 CURVE SMOOTH",
"242 -13 LINE"
);
},
{
closed = 1;
nodes = (
"169 88 OFFCURVE",
"134 152 OFFCURVE",
"134 220 CURVE SMOOTH",
"134 270 OFFCURVE",
"168 329 OFFCURVE",
"241 329 CURVE SMOOTH",
"241 329 LINE SMOOTH",
"314 329 OFFCURVE",
"352 283 OFFCURVE",
"352 207 CURVE SMOOTH",
"352 122 OFFCURVE",
"298 88 OFFCURVE",
"244 88 CURVE SMOOTH"
);
}
);
width = 501;
}
);
unicode = 00F0;
},
{
glyphname = e;
lastChange = "2016-08-27 22:34:25 +0000";
layers = (
{
anchors = (
{
name = bottom;
position = "{256, 0}";
},
{
name = ogonek;
position = "{461, 10}";
},
{
name = top;
position = "{256, 490}";
}
);
layerId = UUID0;
paths = (
{
closed = 1;
nodes = (
"367 -10 OFFCURVE",
"422 11 OFFCURVE",
"460 28 CURVE",
"448 99 LINE",
"404 79 OFFCURVE",
"352 70 OFFCURVE",
"307 70 CURVE SMOOTH",
"214 70 OFFCURVE",
"136 109 OFFCURVE",
"123 245 CURVE",
"478 245 LINE",
"481 262 OFFCURVE",
"482 279 OFFCURVE",
"482 293 CURVE SMOOTH",
"482 425 OFFCURVE",
"393 500 OFFCURVE",
"271 500 CURVE SMOOTH",
"119 500 OFFCURVE",
"31 386 OFFCURVE",
"31 249 CURVE SMOOTH",
"31 108 OFFCURVE",
"123 -10 OFFCURVE",
"296 -10 CURVE SMOOTH"
);
},
{
closed = 1;
nodes = (
"149 378 OFFCURVE",
"189 420 OFFCURVE",
"269 420 CURVE SMOOTH",
"269 420 LINE SMOOTH",
"351 420 OFFCURVE",
"389 376 OFFCURVE",
"389 307 CURVE",
"131 307 LINE"
);
}
);
width = 512;
},
{
anchors = (
{
name = bottom;
position = "{258, 0}";
},
{
name = ogonek;
position = "{463, 10}";
},
{
name = top;
position = "{258, 500}";
}
);
layerId = "7C863538-AAB4-42AD-A9FE-7240E615272A";
paths = (
{
closed = 1;
nodes = (
"370 -10 OFFCURVE",
"428 8 OFFCURVE",
"466 28 CURVE",
"460 133 LINE",
"419 111 OFFCURVE",
"353 92 OFFCURVE",
"306 92 CURVE SMOOTH",
"240 92 OFFCURVE",
"171 130 OFFCURVE",
"157 223 CURVE",
"480 223 LINE",
"485 247 OFFCURVE",
"488 269 OFFCURVE",
"488 291 CURVE SMOOTH",
"488 423 OFFCURVE",
"394 508 OFFCURVE",
"268 508 CURVE SMOOTH",
"114 508 OFFCURVE",
"28 388 OFFCURVE",
"28 249 CURVE SMOOTH",
"28 109 OFFCURVE",
"118 -10 OFFCURVE",
"299 -10 CURVE SMOOTH"
);
},
{
closed = 1;
nodes = (
"172 364 OFFCURVE",
"208 406 OFFCURVE",
"272 406 CURVE SMOOTH",
"272 406 LINE SMOOTH",
"339 406 OFFCURVE",
"362 352 OFFCURVE",
"362 307 CURVE",
"160 307 LINE"
);
}
);
width = 515;
}
);
leftKerningGroup = o;
rightKerningGroup = e;
unicode = 0065;
},
{
glyphname = f;
lastChange = "2016-08-27 22:34:25 +0000";
layers = (
{
layerId = UUID0;
paths = (
{
closed = 1;
nodes = (
"185 0 LINE",
"185 420 LINE",
"317 420 LINE",
"317 490 LINE",
"185 490 LINE",
"185 550 LINE SMOOTH",
"185 650 OFFCURVE",
"190 670 OFFCURVE",
"237 670 CURVE SMOOTH",
"256 670 OFFCURVE",
"275 668 OFFCURVE",
"297 661 CURVE",
"311 737 LINE",
"287 745 OFFCURVE",
"266 750 OFFCURVE",
"209 750 CURVE SMOOTH",
"134 750 OFFCURVE",
"95 693 OFFCURVE",
"95 614 CURVE SMOOTH",
"95 490 LINE",
"22 490 LINE",
"10 420 LINE",
"95 420 LINE",
"95 0 LINE"
);
}
);
width = 331;
},
{
layerId = "7C863538-AAB4-42AD-A9FE-7240E615272A";
paths = (
{
closed = 1;
nodes = (
"212 0 LINE",
"212 398 LINE",
"322 398 LINE",
"322 500 LINE",
"212 500 LINE",
"212 568 LINE SMOOTH",
"212 629 OFFCURVE",
"220 646 OFFCURVE",
"257 646 CURVE SMOOTH",
"265 646 OFFCURVE",
"288 646 OFFCURVE",
"310 641 CURVE",
"321 744 LINE",
"288 747 OFFCURVE",
"274 750 OFFCURVE",
"208 750 CURVE SMOOTH",
"127 750 OFFCURVE",
"88 684 OFFCURVE",
"88 619 CURVE SMOOTH",
"88 500 LINE",
"28 500 LINE",
"17 398 LINE",
"88 398 LINE",
"88 0 LINE"
);
}
);
width = 340;
}
);
leftKerningGroup = f;
unicode = 0066;
},
{
glyphname = g;
lastChange = "2016-08-27 22:34:25 +0000";
layers = (
{
layerId = UUID0;
paths = (
{
closed = 1;
nodes = (
"417 -250 OFFCURVE",
"501 -175 OFFCURVE",
"501 -96 CURVE SMOOTH",
"501 0 OFFCURVE",
"378 27 OFFCURVE",
"301 40 CURVE SMOOTH",
"185 60 OFFCURVE",
"149 67 OFFCURVE",
"149 92 CURVE SMOOTH",
"149 104 OFFCURVE",
"159 114 OFFCURVE",
"173 122 CURVE",
"194 116 OFFCURVE",
"220 113 OFFCURVE",
"243 113 CURVE SMOOTH",
"371 113 OFFCURVE",
"441 209 OFFCURVE",
"441 308 CURVE SMOOTH",
"441 344 OFFCURVE",
"432 382 OFFCURVE",
"396 425 CURVE",
"417 430 OFFCURVE",
"447 432 OFFCURVE",
"454 432 CURVE SMOOTH",
"477 432 LINE",
"488 492 LINE",
"480 492 LINE SMOOTH",
"431 492 OFFCURVE",
"391 480 OFFCURVE",
"361 464 CURVE",
"321 489 OFFCURVE",
"282 500 OFFCURVE",
"236 500 CURVE SMOOTH",
"106 500 OFFCURVE",
"36 411 OFFCURVE",
"36 303 CURVE SMOOTH",
"36 253 OFFCURVE",
"51 194 OFFCURVE",
"121 143 CURVE",
"74 121 OFFCURVE",
"63 87 OFFCURVE",
"63 70 CURVE SMOOTH",
"63 55 OFFCURVE",
"71 28 OFFCURVE",
"113 8 CURVE",
"36 -19 OFFCURVE",
"26 -75 OFFCURVE",
"26 -102 CURVE SMOOTH",
"26 -167 OFFCURVE",
"85 -250 OFFCURVE",
"255 -250 CURVE SMOOTH",
"255 -250 LINE"
);
},
{
closed = 1;
nodes = (
"165 -180 OFFCURVE",
"112 -145 OFFCURVE",
"112 -100 CURVE SMOOTH",
"112 -65 OFFCURVE",
"145 -28 OFFCURVE",
"190 -14 CURVE",
"202 -16 OFFCURVE",
"277 -26 OFFCURVE",
"279 -26 CURVE SMOOTH",
"279 -26 LINE SMOOTH",
"368 -42 OFFCURVE",
"410 -67 OFFCURVE",
"410 -102 CURVE SMOOTH",
"410 -140 OFFCURVE",
"359 -180 OFFCURVE",
"259 -180 CURVE SMOOTH"
);
},
{
closed = 1;
nodes = (
"170 182 OFFCURVE",
"122 229 OFFCURVE",
"122 306 CURVE SMOOTH",
"122 377 OFFCURVE",
"162 428 OFFCURVE",
"237 428 CURVE SMOOTH",
"237 428 LINE",
"306 428 OFFCURVE",
"355 386 OFFCURVE",
"355 309 CURVE SMOOTH",
"355 238 OFFCURVE",
"314 182 OFFCURVE",
"239 182 CURVE SMOOTH"
);
}
);
width = 498;
},
{
layerId = "7C863538-AAB4-42AD-A9FE-7240E615272A";
paths = (
{
closed = 1;
nodes = (
"414 -250 OFFCURVE",
"499 -186 OFFCURVE",
"499 -89 CURVE SMOOTH",
"499 32 OFFCURVE",
"369 53 OFFCURVE",
"298 62 CURVE SMOOTH",
"216 72 OFFCURVE",
"173 79 OFFCURVE",
"173 103 CURVE SMOOTH",
"173 110 OFFCURVE",
"177 116 OFFCURVE",
"184 119 CURVE",
"201 116 OFFCURVE",
"218 114 OFFCURVE",
"237 114 CURVE SMOOTH",
"368 114 OFFCURVE",
"439 204 OFFCURVE",
"439 311 CURVE SMOOTH",
"439 351 OFFCURVE",
"429 390 OFFCURVE",
"409 421 CURVE",
"420 422 OFFCURVE",
"431 422 OFFCURVE",
"437 422 CURVE SMOOTH",
"482 422 LINE",
"490 500 LINE",
"458 500 LINE SMOOTH",
"411 500 OFFCURVE",
"371 489 OFFCURVE",
"351 478 CURVE",
"321 497 OFFCURVE",
"282 508 OFFCURVE",
"237 508 CURVE SMOOTH",
"106 508 OFFCURVE",
"34 418 OFFCURVE",
"34 311 CURVE SMOOTH",
"34 245 OFFCURVE",
"61 186 OFFCURVE",
"111 150 CURVE",
"78 134 OFFCURVE",
"61 113 OFFCURVE",
"61 82 CURVE SMOOTH",
"61 49 OFFCURVE",
"79 27 OFFCURVE",
"106 10 CURVE",
"53 -18 OFFCURVE",
"24 -54 OFFCURVE",
"24 -102 CURVE SMOOTH",
"24 -176 OFFCURVE",
"94 -250 OFFCURVE",
"260 -250 CURVE SMOOTH",
"260 -250 LINE"
);
},
{
closed = 1;
nodes = (
"173 -162 OFFCURVE",
"127 -134 OFFCURVE",
"127 -90 CURVE SMOOTH",
"127 -52 OFFCURVE",
"160 -33 OFFCURVE",
"196 -21 CURVE",
"218 -25 OFFCURVE",
"238 -28 OFFCURVE",
"256 -30 CURVE SMOOTH",
"256 -30 LINE SMOOTH",
"319 -37 OFFCURVE",
"389 -46 OFFCURVE",
"389 -94 CURVE SMOOTH",
"389 -137 OFFCURVE",
"331 -162 OFFCURVE",
"254 -162 CURVE SMOOTH"
);
},
{
closed = 1;
nodes = (
"176 205 OFFCURVE",
"145 247 OFFCURVE",
"145 311 CURVE SMOOTH",
"145 375 OFFCURVE",
"176 417 OFFCURVE",
"237 417 CURVE SMOOTH",
"237 417 LINE",
"297 417 OFFCURVE",
"328 375 OFFCURVE",
"328 311 CURVE SMOOTH",
"328 247 OFFCURVE",
"297 205 OFFCURVE",
"237 205 CURVE SMOOTH"
);
}
);
width = 501;
}
);
unicode = 0067;
},
{
glyphname = h;
lastChange = "2016-08-27 22:34:25 +0000";
layers = (
{
layerId = UUID0;
paths = (
{
closed = 1;
nodes = (
"151 0 LINE",
"151 356 LINE",
"179 400 OFFCURVE",
"219 420 OFFCURVE",
"279 420 CURVE SMOOTH",
"366 420 OFFCURVE",
"396 378 OFFCURVE",
"396 262 CURVE SMOOTH",
"396 0 LINE",
"486 0 LINE",
"486 262 LINE SMOOTH",
"486 403 OFFCURVE",
"434 500 OFFCURVE",
"293 500 CURVE SMOOTH",
"229 500 OFFCURVE",
"185 480 OFFCURVE",
"151 437 CURVE",
"151 750 LINE",
"60 750 LINE",
"60 0 LINE"
);
}
);
width = 542;
},
{
layerId = "7C863538-AAB4-42AD-A9FE-7240E615272A";
paths = (
{
closed = 1;
nodes = (
"181 0 LINE",
"181 363 LINE",
"204 390 OFFCURVE",
"233 406 OFFCURVE",
"275 406 CURVE SMOOTH",
"345 406 OFFCURVE",
"374 362 OFFCURVE",
"374 269 CURVE SMOOTH",
"374 0 LINE",
"498 0 LINE",
"498 269 LINE SMOOTH",
"498 410 OFFCURVE",
"441 508 OFFCURVE",
"285 508 CURVE SMOOTH",
"248 508 OFFCURVE",
"210 493 OFFCURVE",
"181 474 CURVE",
"181 750 LINE",
"57 750 LINE",
"57 0 LINE"
);
}
);
width = 551;
}
);
leftKerningGroup = h;
rightKerningGroup = n;
unicode = 0068;
},
{
glyphname = i;
lastChange = "2016-08-25 20:31:12 +0000";
layers = (
{
layerId = UUID0;
paths = (
{
closed = 1;
nodes = (
"151 0 LINE",
"151 490 LINE",
"61 490 LINE",
"61 0 LINE"
);
},
{
closed = 1;
nodes = (
"151 600 LINE",
"151 700 LINE",
"61 700 LINE",
"61 600 LINE"
);
}
);
width = 212;
},
{
layerId = "7C863538-AAB4-42AD-A9FE-7240E615272A";
paths = (
{
closed = 1;
nodes = (
"182 0 LINE",
"182 500 LINE",
"58 500 LINE",
"58 0 LINE"
);
},
{
closed = 1;
nodes = (
"182 576 LINE",
"182 700 LINE",
"58 700 LINE",
"58 576 LINE"
);
}
);
width = 240;
}
);
leftKerningGroup = i;
rightKerningGroup = i;
unicode = 0069;
},
{
glyphname = idotless;
lastChange = "2016-08-27 22:46:01 +0000";
layers = (
{
anchors = (
{
name = bottom;
position = "{120, 0}";
},
{
name = ogonek;
position = "{216, 10}";
},
{
name = top;
position = "{120, 490}";
}
);
layerId = UUID0;
paths = (
{
closed = 1;
nodes = (
"165 0 LINE",
"165 490 LINE",
"75 490 LINE",
"75 0 LINE"
);
}
);
width = 240;
},
{
anchors = (
{
name = bottom;
position = "{120, 0}";
},
{
name = ogonek;
position = "{216, 10}";
},
{
name = top;
position = "{120, 500}";
}
);
layerId = "7C863538-AAB4-42AD-A9FE-7240E615272A";
paths = (
{
closed = 1;
nodes = (
"182 0 LINE",
"182 500 LINE",
"58 500 LINE",
"58 0 LINE"
);
}
);
width = 240;
}
);
leftKerningGroup = i;
rightKerningGroup = i;
unicode = 0131;
},
{
glyphname = j;
lastChange = "2016-08-25 20:31:12 +0000";
layers = (
{
layerId = UUID0;
paths = (
{
closed = 1;
nodes = (
"28 -237 LINE SMOOTH",
"79 -229 OFFCURVE",
"151 -201 OFFCURVE",
"151 -107 CURVE SMOOTH",
"151 490 LINE",
"61 490 LINE",
"61 -73 LINE SMOOTH",
"61 -152 OFFCURVE",
"47 -167 OFFCURVE",
"-12 -173 CURVE",
"-2 -242 LINE"
);
},
{
closed = 1;
nodes = (
"151 600 LINE",
"151 700 LINE",
"61 700 LINE",
"61 600 LINE"
);
}
);
width = 212;
},
{
layerId = "7C863538-AAB4-42AD-A9FE-7240E615272A";
paths = (
{
closed = 1;
nodes = (
"54 -242 LINE SMOOTH",
"143 -242 OFFCURVE",
"182 -183 OFFCURVE",
"182 -111 CURVE SMOOTH",
"182 500 LINE",
"58 500 LINE",
"58 -60 LINE SMOOTH",
"58 -139 OFFCURVE",
"51 -140 OFFCURVE",
"-2 -140 CURVE",
"9 -242 LINE"
);
},
{
closed = 1;
nodes = (
"182 576 LINE",
"182 700 LINE",
"58 700 LINE",
"58 576 LINE"
);
}
);
width = 240;
}
);
leftKerningGroup = i;
rightKerningGroup = i;
unicode = 006A;
},
{
glyphname = jdotless;
lastChange = "2016-08-23 10:40:18 +0000";
layers = (
{
layerId = UUID0;
paths = (
{
closed = 1;
nodes = (
"42 -237 LINE SMOOTH",
"93 -229 OFFCURVE",
"165 -201 OFFCURVE",
"165 -107 CURVE SMOOTH",
"165 490 LINE",
"75 490 LINE",
"75 -73 LINE SMOOTH",
"75 -152 OFFCURVE",
"61 -167 OFFCURVE",
"2 -173 CURVE",
"12 -242 LINE"
);
}
);
width = 240;
},
{
layerId = "7C863538-AAB4-42AD-A9FE-7240E615272A";
paths = (
{
closed = 1;
nodes = (
"54 -242 LINE SMOOTH",
"143 -242 OFFCURVE",
"182 -183 OFFCURVE",
"182 -111 CURVE SMOOTH",
"182 500 LINE",
"58 500 LINE",
"58 -60 LINE SMOOTH",
"58 -139 OFFCURVE",
"51 -140 OFFCURVE",
"-2 -140 CURVE",
"9 -242 LINE"
);
}
);
width = 240;
}
);
unicode = 0237;
},
{
glyphname = k;
lastChange = "2016-08-25 20:31:12 +0000";
layers = (
{
layerId = UUID0;
paths = (
{
closed = 1;
nodes = (
"150 0 LINE",
"150 249 LINE",
"335 0 LINE",
"445 0 LINE",
"238 264 LINE",
"440 490 LINE",
"330 490 LINE",
"150 269 LINE",
"150 750 LINE",
"60 750 LINE",
"60 0 LINE"
);
}
);
width = 448;
},
{
layerId = "7C863538-AAB4-42AD-A9FE-7240E615272A";
paths = (
{
closed = 1;
nodes = (
"181 0 LINE",
"181 222 LINE",
"340 0 LINE",
"480 0 LINE",
"297 260 LINE",
"480 500 LINE",
"340 500 LINE",
"181 295 LINE",
"181 750 LINE",
"57 750 LINE",
"57 0 LINE"
);
}
);
width = 485;
}
);
leftKerningGroup = h;
unicode = 006B;
},
{
glyphname = l;
lastChange = "2016-08-27 22:34:25 +0000";
layers = (
{
layerId = UUID0;
paths = (
{
closed = 1;
nodes = (
"216 -10 LINE",
"229 62 LINE",
"160 62 OFFCURVE",
"150 76 OFFCURVE",
"150 160 CURVE SMOOTH",
"150 750 LINE",
"60 750 LINE",
"60 108 LINE SMOOTH",
"60 49 OFFCURVE",
"92 -10 OFFCURVE",
"187 -10 CURVE SMOOTH"
);
}
);
width = 236;
},
{
layerId = "7C863538-AAB4-42AD-A9FE-7240E615272A";
paths = (
{
closed = 1;
nodes = (
"231 -10 LINE",
"242 92 LINE",
"193 92 OFFCURVE",
"182 92 OFFCURVE",
"182 172 CURVE SMOOTH",
"182 750 LINE",
"58 750 LINE",
"58 121 LINE SMOOTH",
"58 49 OFFCURVE",
"97 -10 OFFCURVE",
"186 -10 CURVE SMOOTH"
);
}
);
width = 263;
}
);
unicode = 006C;
},
{
glyphname = m;
lastChange = "2016-08-27 22:34:25 +0000";
layers = (
{
layerId = UUID0;
paths = (
{
closed = 1;
nodes = (
"151 0 LINE",
"151 356 LINE",
"176 400 OFFCURVE",
"225 420 OFFCURVE",
"281 420 CURVE SMOOTH",
"349 420 OFFCURVE",
"396 390 OFFCURVE",
"396 270 CURVE SMOOTH",
"396 0 LINE",
"486 0 LINE",
"486 284 LINE SMOOTH",
"486 339 OFFCURVE",
"501 420 OFFCURVE",
"616 420 CURVE SMOOTH",
"697 420 OFFCURVE",
"731 380 OFFCURVE",
"731 288 CURVE SMOOTH",
"731 0 LINE",
"821 0 LINE",
"821 289 LINE SMOOTH",
"821 433 OFFCURVE",
"756 500 OFFCURVE",
"633 500 CURVE SMOOTH",
"542 500 OFFCURVE",
"486 463 OFFCURVE",
"454 402 CURVE",
"409 484 OFFCURVE",
"345 500 OFFCURVE",
"288 500 CURVE SMOOTH",
"236 500 OFFCURVE",
"197 488 OFFCURVE",
"141 438 CURVE",
"131 490 LINE",
"61 490 LINE",
"61 0 LINE"
);
}
);
width = 877;
},
{
layerId = "7C863538-AAB4-42AD-A9FE-7240E615272A";
paths = (
{
closed = 1;
nodes = (
"182 0 LINE",
"182 365 LINE",
"204 391 OFFCURVE",
"234 406 OFFCURVE",
"274 406 CURVE SMOOTH",
"344 406 OFFCURVE",
"374 377 OFFCURVE",
"374 269 CURVE SMOOTH",
"374 0 LINE",
"497 0 LINE",
"497 309 LINE SMOOTH",
"497 360 OFFCURVE",
"514 406 OFFCURVE",
"596 406 CURVE SMOOTH",
"665 406 OFFCURVE",
"689 361 OFFCURVE",
"689 269 CURVE SMOOTH",
"689 0 LINE",
"813 0 LINE",
"813 269 LINE SMOOTH",
"813 409 OFFCURVE",
"749 508 OFFCURVE",
"614 508 CURVE SMOOTH",
"524 508 OFFCURVE",
"465 464 OFFCURVE",
"448 432 CURVE",
"413 484 OFFCURVE",
"353 508 OFFCURVE",
"295 508 CURVE SMOOTH",
"242 508 OFFCURVE",
"196 485 OFFCURVE",
"167 461 CURVE",
"160 500 LINE",
"58 500 LINE",
"58 0 LINE"
);
}
);
width = 866;
}
);
leftKerningGroup = n;
rightKerningGroup = n;
unicode = 006D;
},
{
glyphname = n;
lastChange = "2016-08-27 22:34:25 +0000";
layers = (
{
layerId = UUID0;
paths = (
{
closed = 1;
nodes = (
"151 0 LINE",
"151 356 LINE",
"176 400 OFFCURVE",
"229 420 OFFCURVE",
"285 420 CURVE SMOOTH",
"378 420 OFFCURVE",
"413 374 OFFCURVE",
"413 270 CURVE SMOOTH",
"413 0 LINE",
"503 0 LINE",
"503 270 LINE SMOOTH",
"503 411 OFFCURVE",
"446 500 OFFCURVE",
"303 500 CURVE SMOOTH",
"251 500 OFFCURVE",
"197 488 OFFCURVE",
"141 438 CURVE",
"131 490 LINE",
"61 490 LINE",
"61 0 LINE"
);
}
);
width = 559;
},
{
layerId = "7C863538-AAB4-42AD-A9FE-7240E615272A";
paths = (
{
closed = 1;
nodes = (
"182 0 LINE",
"182 363 LINE",
"205 390 OFFCURVE",
"234 406 OFFCURVE",
"276 406 CURVE SMOOTH",
"346 406 OFFCURVE",
"375 362 OFFCURVE",
"375 269 CURVE SMOOTH",
"375 0 LINE",
"499 0 LINE",
"499 269 LINE SMOOTH",
"499 410 OFFCURVE",
"442 508 OFFCURVE",
"286 508 CURVE SMOOTH",
"247 508 OFFCURVE",
"205 491 OFFCURVE",
"176 470 CURVE",
"174 500 LINE",
"58 500 LINE",
"58 0 LINE"
);
}
);
width = 552;
}
);
leftKerningGroup = n;
rightKerningGroup = n;
unicode = 006E;
},
{
glyphname = o;
lastChange = "2016-08-27 22:34:25 +0000";
layers = (
{
anchors = (
{
name = bottom;
position = "{275, 0}";
},
{
name = center;
position = "{275, 245}";
},
{
name = ogonek;
position = "{495, 10}";
},
{
name = top;
position = "{275, 490}";
},
{
name = topright;
position = "{419, 490}";
}
);
layerId = UUID0;
paths = (
{
closed = 1;
nodes = (
"428 -10 OFFCURVE",
"518 103 OFFCURVE",
"518 245 CURVE SMOOTH",
"518 387 OFFCURVE",
"428 500 OFFCURVE",
"275 500 CURVE SMOOTH",
"121 500 OFFCURVE",
"32 387 OFFCURVE",
"32 245 CURVE SMOOTH",
"32 103 OFFCURVE",
"121 -10 OFFCURVE",
"275 -10 CURVE SMOOTH",
"275 -10 LINE"
);
},
{
closed = 1;
nodes = (
"178 70 OFFCURVE",
"124 135 OFFCURVE",
"124 245 CURVE SMOOTH",
"124 355 OFFCURVE",
"178 420 OFFCURVE",
"275 420 CURVE SMOOTH",
"275 420 LINE",
"372 420 OFFCURVE",
"426 355 OFFCURVE",
"426 245 CURVE SMOOTH",
"426 135 OFFCURVE",
"372 70 OFFCURVE",
"275 70 CURVE SMOOTH"
);
}
);
width = 550;
},
{
anchors = (
{
name = bottom;
position = "{281, 0}";
},
{
name = center;
position = "{281, 250}";
},
{
name = ogonek;
position = "{506, 10}";
},
{
name = top;
position = "{281, 500}";
},
{
name = topright;
position = "{448, 500}";
}
);
layerId = "7C863538-AAB4-42AD-A9FE-7240E615272A";
paths = (
{
closed = 1;
nodes = (
"441 -10 OFFCURVE",
"534 109 OFFCURVE",
"534 249 CURVE SMOOTH",
"534 389 OFFCURVE",
"441 508 OFFCURVE",
"281 508 CURVE SMOOTH",
"121 508 OFFCURVE",
"28 389 OFFCURVE",
"28 249 CURVE SMOOTH",
"28 109 OFFCURVE",
"121 -10 OFFCURVE",
"281 -10 CURVE SMOOTH",
"281 -10 LINE"
);
},
{
closed = 1;
nodes = (
"201 92 OFFCURVE",
"155 156 OFFCURVE",
"155 249 CURVE SMOOTH",
"155 342 OFFCURVE",
"201 406 OFFCURVE",
"281 406 CURVE SMOOTH",
"281 406 LINE",
"361 406 OFFCURVE",
"407 342 OFFCURVE",
"407 249 CURVE SMOOTH",
"407 156 OFFCURVE",
"361 92 OFFCURVE",
"281 92 CURVE SMOOTH"
);
}
);
width = 562;
}
);
leftKerningGroup = o;
rightKerningGroup = o;
unicode = 006F;
},
{
glyphname = oslash;
lastChange = "2016-08-27 22:34:25 +0000";
layers = (
{
layerId = UUID0;
paths = (
{
closed = 1;
nodes = (
"181 -35 LINE",
"200 3 LINE",
"237 -5 OFFCURVE",
"261 -8 OFFCURVE",
"286 -8 CURVE SMOOTH",
"286 -8 LINE",
"446 -8 OFFCURVE",
"539 108 OFFCURVE",
"539 248 CURVE SMOOTH",
"539 335 OFFCURVE",
"503 411 OFFCURVE",
"428 468 CURVE",
"462 534 LINE",
"388 534 LINE",
"369 494 LINE",
"333 503 OFFCURVE",
"310 506 OFFCURVE",
"285 506 CURVE SMOOTH",
"126 506 OFFCURVE",
"33 389 OFFCURVE",
"33 249 CURVE SMOOTH",
"33 163 OFFCURVE",
"68 86 OFFCURVE",
"142 31 CURVE",
"110 -35 LINE"
);
},
{
closed = 1;
nodes = (
"139 165 OFFCURVE",
"130 205 OFFCURVE",
"130 248 CURVE SMOOTH",
"130 354 OFFCURVE",
"185 436 OFFCURVE",
"284 436 CURVE SMOOTH",
"284 436 LINE",
"295 436 OFFCURVE",
"303 435 OFFCURVE",
"337 429 CURVE",
"176 100 LINE"
);
},
{
closed = 1;
nodes = (
"276 62 OFFCURVE",
"267 63 OFFCURVE",
"232 68 CURVE",
"395 398 LINE",
"431 372 OFFCURVE",
"442 294 OFFCURVE",
"442 248 CURVE SMOOTH",
"442 145 OFFCURVE",
"387 62 OFFCURVE",
"287 62 CURVE SMOOTH"
);
}
);
width = 570;
},
{
layerId = "7C863538-AAB4-42AD-A9FE-7240E615272A";
paths = (
{
closed = 1;
nodes = (
"195 -36 LINE",
"211 -2 LINE",
"233 -7 OFFCURVE",
"256 -10 OFFCURVE",
"281 -10 CURVE SMOOTH",
"281 -10 LINE",
"441 -10 OFFCURVE",
"534 109 OFFCURVE",
"534 249 CURVE SMOOTH",
"534 334 OFFCURVE",
"499 411 OFFCURVE",
"436 459 CURVE",
"473 534 LINE",
"364 534 LINE",
"348 500 LINE",
"327 505 OFFCURVE",
"305 508 OFFCURVE",
"281 508 CURVE SMOOTH",
"121 508 OFFCURVE",
"28 389 OFFCURVE",
"28 249 CURVE SMOOTH",
"28 164 OFFCURVE",
"62 86 OFFCURVE",
"125 39 CURVE",
"89 -36 LINE"
);
},
{
closed = 1;
nodes = (
"163 176 OFFCURVE",
"155 210 OFFCURVE",
"155 249 CURVE SMOOTH",
"155 342 OFFCURVE",
"201 406 OFFCURVE",
"281 406 CURVE SMOOTH",
"281 406 LINE",
"288 406 OFFCURVE",
"295 405 OFFCURVE",
"301 404 CURVE",
"178 149 LINE"
);
},
{
closed = 1;
nodes = (
"273 92 OFFCURVE",
"265 93 OFFCURVE",
"258 94 CURVE",
"383 349 LINE",
"398 322 OFFCURVE",
"407 288 OFFCURVE",
"407 249 CURVE SMOOTH",
"407 156 OFFCURVE",
"361 92 OFFCURVE",
"281 92 CURVE SMOOTH"
);
}
);
width = 562;
}
);
leftKerningGroup = o;
rightKerningGroup = o;
unicode = 00F8;
},
{
glyphname = oe;
lastChange = "2016-08-27 22:34:25 +0000";
layers = (
{
layerId = UUID0;
paths = (
{
closed = 1;
nodes = (
"363 -10 OFFCURVE",
"447 27 OFFCURVE",
"477 97 CURVE",
"507 27 OFFCURVE",
"568 -10 OFFCURVE",
"695 -10 CURVE SMOOTH",
"759 -10 OFFCURVE",
"811 5 OFFCURVE",
"848 22 CURVE",
"838 99 LINE",
"797 78 OFFCURVE",
"739 62 OFFCURVE",
"683 62 CURVE SMOOTH",
"626 62 OFFCURVE",
"525 88 OFFCURVE",
"525 245 CURVE",
"868 245 LINE",
"871 262 OFFCURVE",
"872 277 OFFCURVE",
"872 296 CURVE SMOOTH",
"872 425 OFFCURVE",
"785 500 OFFCURVE",
"659 500 CURVE SMOOTH",
"593 500 OFFCURVE",
"511 468 OFFCURVE",
"473 398 CURVE",
"443 468 OFFCURVE",
"355 500 OFFCURVE",
"282 500 CURVE SMOOTH",
"123 500 OFFCURVE",
"32 391 OFFCURVE",
"32 250 CURVE SMOOTH",
"32 106 OFFCURVE",
"124 -10 OFFCURVE",
"278 -10 CURVE SMOOTH"
);
},
{
closed = 1;
nodes = (
"177 70 OFFCURVE",
"124 135 OFFCURVE",
"124 245 CURVE SMOOTH",
"124 355 OFFCURVE",
"178 420 OFFCURVE",
"282 420 CURVE SMOOTH",
"282 420 LINE SMOOTH",
"379 420 OFFCURVE",
"433 348 OFFCURVE",
"433 248 CURVE SMOOTH",
"433 148 OFFCURVE",
"385 70 OFFCURVE",
"281 70 CURVE SMOOTH"
);
},
{
closed = 1;
nodes = (
"544 388 OFFCURVE",
"588 420 OFFCURVE",
"658 420 CURVE SMOOTH",
"658 420 LINE SMOOTH",
"728 420 OFFCURVE",
"774 379 OFFCURVE",
"780 307 CURVE",
"527 307 LINE"
);
}
);
width = 902;
},
{
layerId = "7C863538-AAB4-42AD-A9FE-7240E615272A";
paths = (
{
closed = 1;
nodes = (
"363 -10 OFFCURVE",
"428 21 OFFCURVE",
"471 71 CURVE",
"516 21 OFFCURVE",
"585 -10 OFFCURVE",
"679 -10 CURVE SMOOTH",
"750 -10 OFFCURVE",
"808 8 OFFCURVE",
"846 28 CURVE",
"840 133 LINE",
"799 111 OFFCURVE",
"733 92 OFFCURVE",
"686 92 CURVE SMOOTH",
"620 92 OFFCURVE",
"551 130 OFFCURVE",
"537 223 CURVE",
"860 223 LINE",
"865 247 OFFCURVE",
"868 269 OFFCURVE",
"868 291 CURVE SMOOTH",
"868 423 OFFCURVE",
"774 508 OFFCURVE",
"648 508 CURVE SMOOTH",
"570 508 OFFCURVE",
"510 477 OFFCURVE",
"469 429 CURVE",
"426 477 OFFCURVE",
"362 508 OFFCURVE",
"281 508 CURVE SMOOTH",
"121 508 OFFCURVE",
"28 389 OFFCURVE",
"28 249 CURVE SMOOTH",
"28 109 OFFCURVE",
"121 -10 OFFCURVE",
"281 -10 CURVE SMOOTH"
);
},
{
closed = 1;
nodes = (
"201 92 OFFCURVE",
"155 156 OFFCURVE",
"155 249 CURVE SMOOTH",
"155 342 OFFCURVE",
"201 406 OFFCURVE",
"281 406 CURVE SMOOTH",
"281 406 LINE SMOOTH",
"361 406 OFFCURVE",
"407 342 OFFCURVE",
"407 249 CURVE SMOOTH",
"407 156 OFFCURVE",
"361 92 OFFCURVE",
"281 92 CURVE SMOOTH"
);
},
{
closed = 1;
nodes = (
"552 364 OFFCURVE",
"588 406 OFFCURVE",
"652 406 CURVE SMOOTH",
"652 406 LINE SMOOTH",
"719 406 OFFCURVE",
"742 352 OFFCURVE",
"742 307 CURVE",
"540 307 LINE"
);
}
);
width = 895;
}
);
leftKerningGroup = o;
rightKerningGroup = e;
unicode = 0153;
},
{
glyphname = p;
lastChange = "2016-08-27 22:34:25 +0000";
layers = (
{
layerId = UUID0;
paths = (
{
closed = 1;
nodes = (
"151 -242 LINE",
"151 62 LINE",
"188 14 OFFCURVE",
"261 -10 OFFCURVE",
"305 -10 CURVE SMOOTH",
"305 -10 LINE SMOOTH",
"450 -10 OFFCURVE",
"524 102 OFFCURVE",
"524 245 CURVE SMOOTH",
"524 379 OFFCURVE",
"443 500 OFFCURVE",
"306 500 CURVE SMOOTH",
"226 500 OFFCURVE",
"183 471 OFFCURVE",
"141 420 CURVE",
"131 490 LINE",
"61 490 LINE",
"61 -242 LINE"
);
},
{
closed = 1;
nodes = (
"223 70 OFFCURVE",
"146 122 OFFCURVE",
"146 245 CURVE SMOOTH",
"146 363 OFFCURVE",
"223 420 OFFCURVE",
"295 420 CURVE SMOOTH",
"295 420 LINE",
"381 420 OFFCURVE",
"432 345 OFFCURVE",
"432 245 CURVE SMOOTH",
"432 149 OFFCURVE",
"381 70 OFFCURVE",
"295 70 CURVE SMOOTH"
);
}
);
width = 557;
},
{
layerId = "7C863538-AAB4-42AD-A9FE-7240E615272A";
paths = (
{
closed = 1;
nodes = (
"182 -242 LINE",
"182 24 LINE",
"215 2 OFFCURVE",
"247 -10 OFFCURVE",
"299 -10 CURVE SMOOTH",
"299 -10 LINE SMOOTH",
"459 -10 OFFCURVE",
"544 109 OFFCURVE",
"544 249 CURVE SMOOTH",
"544 389 OFFCURVE",
"459 508 OFFCURVE",
"299 508 CURVE SMOOTH",
"244 508 OFFCURVE",
"210 494 OFFCURVE",
"176 471 CURVE",
"166 500 LINE",
"58 500 LINE",
"58 -242 LINE"
);
},
{
closed = 1;
nodes = (
"211 92 OFFCURVE",
"176 156 OFFCURVE",
"176 249 CURVE SMOOTH",
"176 342 OFFCURVE",
"211 406 OFFCURVE",
"291 406 CURVE SMOOTH",
"291 406 LINE",
"371 406 OFFCURVE",
"417 342 OFFCURVE",
"417 249 CURVE SMOOTH",
"417 156 OFFCURVE",
"371 92 OFFCURVE",
"291 92 CURVE SMOOTH"
);
}
);
width = 572;
}
);
leftKerningGroup = n;
rightKerningGroup = o;
unicode = 0070;
},
{
glyphname = thorn;
lastChange = "2016-08-27 22:34:25 +0000";
layers = (
{
layerId = UUID0;
paths = (
{
closed = 1;
nodes = (
"150 -241 LINE",
"150 56 LINE",
"183 12 OFFCURVE",
"235 -10 OFFCURVE",
"302 -10 CURVE SMOOTH",
"302 -10 LINE SMOOTH",
"461 -10 OFFCURVE",
"548 108 OFFCURVE",
"548 245 CURVE SMOOTH",
"548 383 OFFCURVE",
"459 500 OFFCURVE",
"308 500 CURVE SMOOTH",
"246 500 OFFCURVE",
"193 481 OFFCURVE",
"150 438 CURVE",
"150 750 LINE",
"60 750 LINE",
"60 -241 LINE"
);
},
{
closed = 1;
nodes = (
"185 62 OFFCURVE",
"143 144 OFFCURVE",
"143 245 CURVE SMOOTH",
"143 346 OFFCURVE",
"185 420 OFFCURVE",
"294 420 CURVE SMOOTH",
"294 420 LINE",
"401 420 OFFCURVE",
"457 349 OFFCURVE",
"457 245 CURVE SMOOTH",
"457 140 OFFCURVE",
"401 62 OFFCURVE",
"294 62 CURVE SMOOTH"
);
}
);
width = 580;
},
{
layerId = "7C863538-AAB4-42AD-A9FE-7240E615272A";
paths = (
{
closed = 1;
nodes = (
"181 -242 LINE",
"181 24 LINE",
"214 2 OFFCURVE",
"246 -10 OFFCURVE",
"298 -10 CURVE SMOOTH",
"298 -10 LINE SMOOTH",
"458 -10 OFFCURVE",
"543 109 OFFCURVE",
"543 249 CURVE SMOOTH",
"543 389 OFFCURVE",
"458 508 OFFCURVE",
"298 508 CURVE SMOOTH",
"246 508 OFFCURVE",
"213 496 OFFCURVE",
"181 475 CURVE",
"181 750 LINE",
"57 750 LINE",
"57 -242 LINE"
);
},
{
closed = 1;
nodes = (
"210 92 OFFCURVE",
"175 156 OFFCURVE",
"175 249 CURVE SMOOTH",
"175 342 OFFCURVE",
"210 406 OFFCURVE",
"290 406 CURVE SMOOTH",
"290 406 LINE",
"370 406 OFFCURVE",
"416 342 OFFCURVE",
"416 249 CURVE SMOOTH",
"416 156 OFFCURVE",
"370 92 OFFCURVE",
"290 92 CURVE SMOOTH"
);
}
);
width = 571;
}
);
leftKerningGroup = n;
rightKerningGroup = b;
unicode = 00FE;
},
{
glyphname = q;
lastChange = "2016-08-25 20:31:12 +0000";
layers = (
{
layerId = UUID0;
paths = (
{
closed = 1;
nodes = (
"496 -242 LINE",
"496 490 LINE",
"426 490 LINE",
"416 420 LINE",
"374 471 OFFCURVE",
"331 500 OFFCURVE",
"251 500 CURVE SMOOTH",
"114 500 OFFCURVE",
"33 379 OFFCURVE",
"33 245 CURVE SMOOTH",
"33 102 OFFCURVE",
"107 -10 OFFCURVE",
"252 -10 CURVE",
"252 -10 LINE",
"296 -10 OFFCURVE",
"369 14 OFFCURVE",
"406 62 CURVE",
"406 -242 LINE"
);
},
{
closed = 1;
nodes = (
"176 70 OFFCURVE",
"125 149 OFFCURVE",
"125 245 CURVE SMOOTH",
"125 345 OFFCURVE",
"176 420 OFFCURVE",
"262 420 CURVE",
"262 420 LINE",
"334 420 OFFCURVE",
"411 363 OFFCURVE",
"411 245 CURVE SMOOTH",
"411 122 OFFCURVE",
"334 70 OFFCURVE",
"262 70 CURVE SMOOTH"
);
}
);
width = 557;
},
{
layerId = "7C863538-AAB4-42AD-A9FE-7240E615272A";
paths = (
{
closed = 1;
nodes = (
"514 -242 LINE",
"514 500 LINE",
"406 500 LINE",
"396 471 LINE",
"362 494 OFFCURVE",
"328 508 OFFCURVE",
"273 508 CURVE SMOOTH",
"113 508 OFFCURVE",
"28 389 OFFCURVE",
"28 249 CURVE SMOOTH",
"28 109 OFFCURVE",
"113 -10 OFFCURVE",
"273 -10 CURVE",
"273 -10 LINE",
"325 -10 OFFCURVE",
"357 2 OFFCURVE",
"390 24 CURVE",
"390 -242 LINE"
);
},
{
closed = 1;
nodes = (
"201 92 OFFCURVE",
"155 156 OFFCURVE",
"155 249 CURVE SMOOTH",
"155 342 OFFCURVE",
"201 406 OFFCURVE",
"281 406 CURVE",
"281 406 LINE",
"361 406 OFFCURVE",
"396 342 OFFCURVE",
"396 249 CURVE SMOOTH",
"396 156 OFFCURVE",
"361 92 OFFCURVE",
"281 92 CURVE SMOOTH"
);
}
);
width = 572;
}
);
leftKerningGroup = o;
rightKerningGroup = u;
unicode = 0071;
},
{
glyphname = r;
lastChange = "2016-08-27 22:34:25 +0000";
layers = (
{
layerId = UUID0;
paths = (
{
closed = 1;
nodes = (
"157 0 LINE",
"157 346 LINE",
"174 377 OFFCURVE",
"228 409 OFFCURVE",
"269 409 CURVE SMOOTH",
"300 409 LINE",
"320 508 LINE",
"312 508 LINE SMOOTH",
"252 508 OFFCURVE",
"205 476 OFFCURVE",
"146 409 CURVE",
"135 490 LINE",
"61 490 LINE",
"61 0 LINE"
);
}
);
width = 321;
},
{
layerId = "7C863538-AAB4-42AD-A9FE-7240E615272A";
paths = (
{
closed = 1;
nodes = (
"182 0 LINE",
"182 341 LINE",
"196 369 OFFCURVE",
"232 391 OFFCURVE",
"273 391 CURVE SMOOTH",
"319 391 LINE",
"343 508 LINE",
"310 508 LINE SMOOTH",
"253 508 OFFCURVE",
"203 474 OFFCURVE",
"177 447 CURVE",
"174 500 LINE",
"58 500 LINE",
"58 0 LINE"
);
}
);
width = 342;
}
);
leftKerningGroup = n;
unicode = 0072;
},
{
glyphname = s;
lastChange = "2016-08-27 22:34:25 +0000";
layers = (
{
layerId = UUID0;
paths = (
{
closed = 1;
nodes = (
"350 -10 OFFCURVE",
"387 71 OFFCURVE",
"387 136 CURVE SMOOTH",
"387 238 OFFCURVE",
"295 268 OFFCURVE",
"247 282 CURVE SMOOTH",
"170 305 OFFCURVE",
"133 317 OFFCURVE",
"133 363 CURVE SMOOTH",
"133 409 OFFCURVE",
"172 429 OFFCURVE",
"228 429 CURVE SMOOTH",
"283 429 OFFCURVE",
"319 410 OFFCURVE",
"348 386 CURVE",
"359 468 LINE",
"329 483 OFFCURVE",
"291 500 OFFCURVE",
"226 500 CURVE SMOOTH",
"92 500 OFFCURVE",
"42 428 OFFCURVE",
"42 353 CURVE SMOOTH",
"42 254 OFFCURVE",
"129 230 OFFCURVE",
"196 212 CURVE SMOOTH",
"236 201 OFFCURVE",
"294 182 OFFCURVE",
"294 131 CURVE SMOOTH",
"294 92 OFFCURVE",
"259 70 OFFCURVE",
"196 70 CURVE SMOOTH",
"121 70 OFFCURVE",
"64 101 OFFCURVE",
"43 120 CURVE",
"32 33 LINE",
"55 17 OFFCURVE",
"113 -10 OFFCURVE",
"200 -10 CURVE SMOOTH",
"200 -10 LINE"
);
}
);
width = 414;
},
{
layerId = "7C863538-AAB4-42AD-A9FE-7240E615272A";
paths = (
{
closed = 1;
nodes = (
"371 -10 OFFCURVE",
"396 76 OFFCURVE",
"396 137 CURVE SMOOTH",
"396 240 OFFCURVE",
"326 271 OFFCURVE",
"259 290 CURVE SMOOTH",
"196 308 OFFCURVE",
"145 316 OFFCURVE",
"145 364 CURVE SMOOTH",
"145 404 OFFCURVE",
"185 419 OFFCURVE",
"228 419 CURVE SMOOTH",
"282 419 OFFCURVE",
"340 390 OFFCURVE",
"365 365 CURVE",
"376 471 LINE",
"349 489 OFFCURVE",
"284 508 OFFCURVE",
"219 508 CURVE SMOOTH",
"78 508 OFFCURVE",
"36 419 OFFCURVE",
"36 349 CURVE SMOOTH",
"36 253 OFFCURVE",
"110 230 OFFCURVE",
"180 209 CURVE SMOOTH",
"229 194 OFFCURVE",
"272 180 OFFCURVE",
"272 138 CURVE SMOOTH",
"272 113 OFFCURVE",
"256 83 OFFCURVE",
"196 83 CURVE SMOOTH",
"140 83 OFFCURVE",
"73 109 OFFCURVE",
"42 133 CURVE",
"31 27 LINE",
"60 8 OFFCURVE",
"122 -10 OFFCURVE",
"200 -10 CURVE SMOOTH",
"200 -10 LINE"
);
}
);
width = 423;
}
);
leftKerningGroup = s;
rightKerningGroup = s;
unicode = 0073;
},
{
glyphname = germandbls;
lastChange = "2016-08-27 22:34:25 +0000";
layers = (
{
layerId = UUID0;
paths = (
{
closed = 1;
nodes = (
"176 -136 LINE",
"176 573 LINE SMOOTH",
"176 635 OFFCURVE",
"214 685 OFFCURVE",
"285 685 CURVE SMOOTH",
"338 685 OFFCURVE",
"405 657 OFFCURVE",
"405 570 CURVE SMOOTH",
"405 455 OFFCURVE",
"287 407 OFFCURVE",
"287 364 CURVE SMOOTH",
"287 312 OFFCURVE",
"458 259 OFFCURVE",
"458 144 CURVE SMOOTH",
"458 67 OFFCURVE",
"382 50 OFFCURVE",
"267 48 CURVE",
"267 -12 LINE",
"284 -13 OFFCURVE",
"292 -15 OFFCURVE",
"317 -15 CURVE SMOOTH",
"317 -15 LINE",
"432 -15 OFFCURVE",
"540 34 OFFCURVE",
"540 140 CURVE SMOOTH",
"540 275 OFFCURVE",
"362 338 OFFCURVE",
"362 371 CURVE SMOOTH",
"362 398 OFFCURVE",
"476 457 OFFCURVE",
"476 578 CURVE SMOOTH",
"476 697 OFFCURVE",
"365 750 OFFCURVE",
"285 750 CURVE SMOOTH",
"192 750 OFFCURVE",
"90 679 OFFCURVE",
"90 568 CURVE SMOOTH",
"90 500 LINE",
"23 500 LINE",
"16 439 LINE",
"90 439 LINE",
"90 -136 LINE"
);
}
);
width = 557;
},
{
layerId = "7C863538-AAB4-42AD-A9FE-7240E615272A";
paths = (
{
closed = 1;
nodes = (
"210 -136 LINE",
"210 560 LINE SMOOTH",
"210 609 OFFCURVE",
"238 644 OFFCURVE",
"287 644 CURVE SMOOTH",
"326 644 OFFCURVE",
"366 622 OFFCURVE",
"366 556 CURVE SMOOTH",
"366 457 OFFCURVE",
"278 415 OFFCURVE",
"278 360 CURVE SMOOTH",
"278 291 OFFCURVE",
"415 256 OFFCURVE",
"415 150 CURVE SMOOTH",
"415 86 OFFCURVE",
"365 83 OFFCURVE",
"263 83 CURVE",
"263 -10 LINE",
"285 -14 OFFCURVE",
"305 -15 OFFCURVE",
"323 -15 CURVE SMOOTH",
"323 -15 LINE",
"441 -15 OFFCURVE",
"544 27 OFFCURVE",
"544 149 CURVE SMOOTH",
"544 288 OFFCURVE",
"409 327 OFFCURVE",
"409 367 CURVE SMOOTH",
"409 397 OFFCURVE",
"485 453 OFFCURVE",
"485 562 CURVE SMOOTH",
"485 697 OFFCURVE",
"367 750 OFFCURVE",
"288 750 CURVE SMOOTH",
"194 750 OFFCURVE",
"88 675 OFFCURVE",
"88 555 CURVE SMOOTH",
"88 500 LINE",
"28 500 LINE",
"17 398 LINE",
"88 398 LINE",
"88 -136 LINE"
);
}
);
width = 565;
}
);
leftKerningGroup = f;
unicode = 00DF;
},
{
glyphname = t;
lastChange = "2016-08-27 22:34:25 +0000";
layers = (
{
layerId = UUID0;
paths = (
{
closed = 1;
nodes = (
"311 -10 LINE",
"318 62 LINE",
"295 62 LINE SMOOTH",
"198 62 OFFCURVE",
"192 68 OFFCURVE",
"192 162 CURVE SMOOTH",
"192 420 LINE",
"321 420 LINE",
"321 490 LINE",
"192 490 LINE",
"192 620 LINE",
"102 611 LINE",
"102 490 LINE",
"26 490 LINE",
"18 420 LINE",
"102 420 LINE",
"102 107 LINE SMOOTH",
"102 48 OFFCURVE",
"137 -10 OFFCURVE",
"230 -10 CURVE SMOOTH"
);
}
);
width = 337;
},
{
layerId = "7C863538-AAB4-42AD-A9FE-7240E615272A";
paths = (
{
closed = 1;
nodes = (
"310 -10 LINE",
"321 92 LINE",
"287 92 LINE SMOOTH",
"217 92 OFFCURVE",
"211 96 OFFCURVE",
"211 172 CURVE SMOOTH",
"211 398 LINE",
"321 398 LINE",
"321 500 LINE",
"211 500 LINE",
"211 623 LINE",
"87 610 LINE",
"87 500 LINE",
"27 500 LINE",
"16 398 LINE",
"87 398 LINE",
"87 121 LINE SMOOTH",
"87 56 OFFCURVE",
"127 -10 OFFCURVE",
"221 -10 CURVE SMOOTH"
);
}
);
width = 344;
}
);
unicode = 0074;
},
{
glyphname = u;
lastChange = "2016-08-27 22:34:25 +0000";
layers = (
{
anchors = (
{
name = bottom;
position = "{262, 0}";
},
{
name = ogonek;
position = "{472, 10}";
},
{
name = top;
position = "{262, 490}";
},
{
name = topright;
position = "{504, 490}";
}
);
layerId = UUID0;
paths = (
{
closed = 1;
nodes = (
"301 -10 OFFCURVE",
"342 11 OFFCURVE",
"373 54 CURVE",
"383 0 LINE",
"463 0 LINE",
"463 490 LINE",
"373 490 LINE",
"373 126 LINE",
"349 87 OFFCURVE",
"305 70 OFFCURVE",
"260 70 CURVE SMOOTH",
"179 70 OFFCURVE",
"146 126 OFFCURVE",
"146 230 CURVE SMOOTH",
"146 490 LINE",
"56 490 LINE",
"56 205 LINE SMOOTH",
"56 58 OFFCURVE",
"122 -10 OFFCURVE",
"237 -10 CURVE SMOOTH"
);
}
);
width = 524;
},
{
anchors = (
{
name = bottom;
position = "{276, 0}";
},
{
name = ogonek;
position = "{497, 10}";
},
{
name = top;
position = "{276, 500}";
},
{
name = topright;
position = "{521, 500}";
}
);
layerId = "7C863538-AAB4-42AD-A9FE-7240E615272A";
paths = (
{
closed = 1;
nodes = (
"304 -10 OFFCURVE",
"347 8 OFFCURVE",
"376 30 CURVE",
"378 0 LINE",
"494 0 LINE",
"494 500 LINE",
"370 500 LINE",
"370 136 LINE",
"347 109 OFFCURVE",
"317 94 OFFCURVE",
"276 94 CURVE SMOOTH",
"206 94 OFFCURVE",
"177 138 OFFCURVE",
"177 231 CURVE SMOOTH",
"177 500 LINE",
"53 500 LINE",
"53 231 LINE SMOOTH",
"53 90 OFFCURVE",
"109 -10 OFFCURVE",
"265 -10 CURVE SMOOTH"
);
}
);
width = 552;
}
);
leftKerningGroup = u;
rightKerningGroup = u;
unicode = 0075;
},
{
glyphname = v;
lastChange = "2016-08-27 22:34:25 +0000";
layers = (
{
layerId = UUID0;
paths = (
{
closed = 1;
nodes = (
"297 0 LINE",
"483 490 LINE",
"382 490 LINE",
"246 99 LINE",
"109 490 LINE",
"9 490 LINE",
"196 0 LINE"
);
}
);
width = 492;
},
{
layerId = "7C863538-AAB4-42AD-A9FE-7240E615272A";
paths = (
{
closed = 1;
nodes = (
"301 0 LINE",
"493 500 LINE",
"371 500 LINE",
"248 154 LINE",
"125 500 LINE",
"3 500 LINE",
"195 0 LINE"
);
}
);
width = 496;
}
);
unicode = 0076;
},
{
glyphname = w;
lastChange = "2016-08-27 22:34:25 +0000";
layers = (
{
layerId = UUID0;
paths = (
{
closed = 1;
nodes = (
"260 0 LINE",
"363 362 LINE",
"465 0 LINE",
"566 0 LINE",
"714 490 LINE",
"608 490 LINE",
"514 99 LINE",
"409 475 LINE",
"316 475 LINE",
"212 99 LINE",
"118 490 LINE",
"12 490 LINE",
"159 0 LINE"
);
}
);
width = 725;
},
{
layerId = "7C863538-AAB4-42AD-A9FE-7240E615272A";
paths = (
{
closed = 1;
nodes = (
"260 0 LINE",
"363 326 LINE",
"466 0 LINE",
"570 0 LINE",
"716 500 LINE",
"595 500 LINE",
"508 151 LINE",
"415 490 LINE",
"311 490 LINE",
"217 151 LINE",
"131 500 LINE",
"10 500 LINE",
"156 0 LINE"
);
}
);
width = 726;
}
);
unicode = 0077;
},
{
glyphname = x;
lastChange = "2016-08-27 22:34:25 +0000";
layers = (
{
layerId = UUID0;
paths = (
{
closed = 1;
nodes = (
"112 0 LINE",
"238 193 LINE",
"362 0 LINE",
"463 0 LINE",
"296 252 LINE",
"457 490 LINE",
"352 490 LINE",
"239 296 LINE",
"116 490 LINE",
"15 490 LINE",
"182 244 LINE",
"11 0 LINE"
);
}
);
width = 474;
},
{
layerId = "7C863538-AAB4-42AD-A9FE-7240E615272A";
paths = (
{
closed = 1;
nodes = (
"158 0 LINE",
"242 141 LINE",
"333 0 LINE",
"481 0 LINE",
"319 250 LINE",
"481 500 LINE",
"333 500 LINE",
"249 359 LINE",
"158 500 LINE",
"10 500 LINE",
"171 250 LINE",
"10 0 LINE"
);
}
);
width = 491;
}
);
unicode = 0078;
},
{
glyphname = y;
lastChange = "2016-08-27 23:14:10 +0000";
layers = (
{
anchors = (
{
name = bottom;
position = "{347, 0}";
},
{
name = top;
position = "{253, 490}";
}
);
layerId = UUID0;
paths = (
{
closed = 1;
nodes = (
"198 -242 LINE",
"498 490 LINE",
"398 490 LINE",
"260 126 LINE",
"107 490 LINE",
"7 490 LINE",
"211 22 LINE",
"98 -242 LINE"
);
}
);
width = 505;
},
{
anchors = (
{
name = bottom;
position = "{400, 0}";
},
{
name = top;
position = "{269, 500}";
}
);
layerId = "7C863538-AAB4-42AD-A9FE-7240E615272A";
paths = (
{
closed = 1;
nodes = (
"222 -242 LINE",
"535 500 LINE",
"397 500 LINE",
"267 178 LINE",
"139 500 LINE",
"1 500 LINE",
"209 33 LINE",
"98 -242 LINE"
);
}
);
width = 537;
}
);
leftKerningGroup = y;
rightKerningGroup = y;
unicode = 0079;
},
{
glyphname = z;
lastChange = "2016-08-27 22:34:25 +0000";
layers = (
{
layerId = UUID0;
paths = (
{
closed = 1;
nodes = (
"441 0 LINE",
"441 70 LINE",
"185 70 LINE",
"446 490 LINE",
"32 490 LINE",
"32 420 LINE",
"283 420 LINE",
"22 0 LINE"
);
}
);
width = 471;
},
{
layerId = "7C863538-AAB4-42AD-A9FE-7240E615272A";
paths = (
{
closed = 1;
nodes = (
"441 0 LINE",
"441 110 LINE",
"231 110 LINE",
"452 500 LINE",
"31 500 LINE",
"31 390 LINE",
"242 390 LINE",
"21 0 LINE"
);
}
);
width = 472;
}
);
leftKerningGroup = z;
rightKerningGroup = z;
unicode = 007A;
},
{
glyphname = A.sc;
lastChange = "2016-08-27 22:34:25 +0000";
layers = (
{
layerId = UUID0;
paths = (
{
closed = 1;
nodes = (
"106 0 LINE",
"160 141 LINE",
"374 141 LINE",
"429 0 LINE",
"526 0 LINE",
"314 560 LINE",
"221 560 LINE",
"8 0 LINE"
);
},
{
closed = 1;
nodes = (
"267 418 LINE",
"343 229 LINE",
"191 229 LINE"
);
}
);
width = 534;
},
{
layerId = "7C863538-AAB4-42AD-A9FE-7240E615272A";
paths = (
{
closed = 1;
nodes = (
"132 0 LINE",
"182 131 LINE",
"376 131 LINE",
"427 0 LINE",
"554 0 LINE",
"336 581 LINE",
"222 581 LINE",
"4 0 LINE"
);
},
{
closed = 1;
nodes = (
"278 382 LINE",
"333 251 LINE",
"225 251 LINE"
);
}
);
width = 558;
}
);
},
{
glyphname = AE.sc;
lastChange = "2016-08-27 22:34:25 +0000";
layers = (
{
layerId = UUID0;
paths = (
{
closed = 1;
nodes = (
"86 0 LINE",
"160 138 LINE",
"335 138 LINE",
"335 0 LINE",
"705 0 LINE",
"705 88 LINE",
"438 88 LINE",
"438 248 LINE",
"638 248 LINE",
"638 336 LINE",
"438 336 LINE",
"438 471 LINE",
"697 471 LINE",
"697 560 LINE",
"282 560 LINE",
"-8 0 LINE"
);
},
{
closed = 1;
nodes = (
"335 469 LINE",
"335 228 LINE",
"203 228 LINE"
);
}
);
width = 742;
},
{
layerId = "7C863538-AAB4-42AD-A9FE-7240E615272A";
paths = (
{
closed = 1;
nodes = (
"120 0 LINE",
"188 135 LINE",
"352 135 LINE",
"352 0 LINE",
"736 0 LINE",
"736 120 LINE",
"473 120 LINE",
"473 243 LINE",
"669 243 LINE",
"669 362 LINE",
"473 362 LINE",
"473 461 LINE",
"728 461 LINE",
"728 581 LINE",
"290 581 LINE",
"-10 0 LINE"
);
},
{
closed = 1;
nodes = (
"352 459 LINE",
"352 253 LINE",
"245 253 LINE"
);
}
);
width = 768;
}
);
},
{
glyphname = B.sc;
lastChange = "2016-08-27 22:34:25 +0000";
layers = (
{
layerId = UUID0;
paths = (
{
closed = 1;
nodes = (
"290 0 LINE SMOOTH",
"388 0 OFFCURVE",
"498 31 OFFCURVE",
"498 165 CURVE SMOOTH",
"498 233 OFFCURVE",
"470 273 OFFCURVE",
"397 299 CURVE",
"438 332 OFFCURVE",
"446 369 OFFCURVE",
"446 418 CURVE SMOOTH",
"446 540 OFFCURVE",
"358 560 OFFCURVE",
"220 560 CURVE SMOOTH",
"74 560 LINE",
"74 0 LINE"
);
},
{
closed = 1;
nodes = (
"167 256 LINE",
"287 256 LINE SMOOTH",
"350 256 OFFCURVE",
"401 237 OFFCURVE",
"401 166 CURVE SMOOTH",
"401 97 OFFCURVE",
"347 81 OFFCURVE",
"262 81 CURVE SMOOTH",
"167 81 LINE"
);
},
{
closed = 1;
nodes = (
"167 480 LINE",
"253 480 LINE SMOOTH",
"311 480 OFFCURVE",
"355 469 OFFCURVE",
"355 406 CURVE SMOOTH",
"355 342 OFFCURVE",
"310 332 OFFCURVE",
"270 332 CURVE SMOOTH",
"167 332 LINE"
);
}
);
width = 534;
},
{
layerId = "7C863538-AAB4-42AD-A9FE-7240E615272A";
paths = (
{
closed = 1;
nodes = (
"318 0 LINE SMOOTH",
"422 0 OFFCURVE",
"541 43 OFFCURVE",
"541 170 CURVE SMOOTH",
"541 250 OFFCURVE",
"500 287 OFFCURVE",
"432 311 CURVE",
"464 329 OFFCURVE",
"484 374 OFFCURVE",
"484 428 CURVE SMOOTH",
"484 560 OFFCURVE",
"388 581 OFFCURVE",
"247 581 CURVE SMOOTH",
"71 581 LINE",
"71 0 LINE"
);
},
{
closed = 1;
nodes = (
"194 262 LINE",
"306 262 LINE SMOOTH",
"369 262 OFFCURVE",
"414 241 OFFCURVE",
"414 183 CURVE SMOOTH",
"414 127 OFFCURVE",
"376 101 OFFCURVE",
"314 101 CURVE SMOOTH",
"194 101 LINE"
);
},
{
closed = 1;
nodes = (
"194 480 LINE",
"301 480 LINE SMOOTH",
"347 480 OFFCURVE",
"373 461 OFFCURVE",
"373 407 CURVE SMOOTH",
"373 369 OFFCURVE",
"332 352 OFFCURVE",
"306 352 CURVE SMOOTH",
"194 352 LINE"
);
}
);
width = 571;
}
);
},
{
glyphname = C.sc;
lastChange = "2016-08-27 22:34:25 +0000";
layers = (
{
layerId = UUID0;
paths = (
{
closed = 1;
nodes = (
"396 -11 OFFCURVE",
"458 2 OFFCURVE",
"501 21 CURVE",
"491 109 LINE",
"443 92 OFFCURVE",
"396 77 OFFCURVE",
"336 77 CURVE SMOOTH",
"207 77 OFFCURVE",
"141 164 OFFCURVE",
"141 280 CURVE SMOOTH",
"141 396 OFFCURVE",
"207 483 OFFCURVE",
"335 483 CURVE SMOOTH",
"396 483 OFFCURVE",
"443 468 OFFCURVE",
"491 451 CURVE",
"501 538 LINE",
"459 558 OFFCURVE",
"396 571 OFFCURVE",
"335 571 CURVE SMOOTH",
"164 571 OFFCURVE",
"39 457 OFFCURVE",
"39 280 CURVE SMOOTH",
"39 103 OFFCURVE",
"164 -11 OFFCURVE",
"335 -11 CURVE SMOOTH",
"335 -11 LINE"
);
}
);
width = 537;
},
{
layerId = "7C863538-AAB4-42AD-A9FE-7240E615272A";
paths = (
{
closed = 1;
nodes = (
"401 -12 OFFCURVE",
"468 1 OFFCURVE",
"513 23 CURVE",
"499 139 LINE",
"447 118 OFFCURVE",
"401 107 OFFCURVE",
"335 107 CURVE SMOOTH",
"224 107 OFFCURVE",
"169 181 OFFCURVE",
"169 291 CURVE SMOOTH",
"169 400 OFFCURVE",
"224 474 OFFCURVE",
"336 474 CURVE SMOOTH",
"401 474 OFFCURVE",
"447 463 OFFCURVE",
"499 442 CURVE",
"513 559 LINE",
"467 580 OFFCURVE",
"401 593 OFFCURVE",
"336 593 CURVE SMOOTH",
"161 593 OFFCURVE",
"34 472 OFFCURVE",
"34 291 CURVE SMOOTH",
"34 109 OFFCURVE",
"161 -12 OFFCURVE",
"336 -12 CURVE SMOOTH",
"336 -12 LINE"
);
}
);
width = 545;
}
);
},
{
glyphname = D.sc;
lastChange = "2016-08-27 22:34:25 +0000";
layers = (
{
layerId = UUID0;
paths = (
{
closed = 1;
nodes = (
"295 0 LINE SMOOTH",
"467 0 OFFCURVE",
"590 104 OFFCURVE",
"590 280 CURVE SMOOTH",
"590 456 OFFCURVE",
"467 560 OFFCURVE",
"295 560 CURVE SMOOTH",
"74 560 LINE",
"74 0 LINE"
);
},
{
closed = 1;
nodes = (
"167 472 LINE",
"295 472 LINE SMOOTH",
"422 472 OFFCURVE",
"488 397 OFFCURVE",
"488 280 CURVE SMOOTH",
"488 163 OFFCURVE",
"422 88 OFFCURVE",
"295 88 CURVE SMOOTH",
"167 88 LINE"
);
}
);
width = 629;
},
{
layerId = "7C863538-AAB4-42AD-A9FE-7240E615272A";
paths = (
{
closed = 1;
nodes = (
"303 0 LINE SMOOTH",
"478 0 OFFCURVE",
"605 108 OFFCURVE",
"605 291 CURVE SMOOTH",
"605 473 OFFCURVE",
"478 581 OFFCURVE",
"303 581 CURVE SMOOTH",
"71 581 LINE",
"71 0 LINE"
);
},
{
closed = 1;
nodes = (
"194 462 LINE",
"303 462 LINE SMOOTH",
"415 462 OFFCURVE",
"470 399 OFFCURVE",
"470 291 CURVE SMOOTH",
"470 182 OFFCURVE",
"415 119 OFFCURVE",
"303 119 CURVE SMOOTH",
"194 119 LINE"
);
}
);
width = 641;
}
);
},
{
glyphname = E.sc;
lastChange = "2016-08-25 20:31:12 +0000";
layers = (
{
layerId = UUID0;
paths = (
{
closed = 1;
nodes = (
"453 0 LINE",
"453 88 LINE",
"169 88 LINE",
"169 248 LINE",
"386 248 LINE",
"386 336 LINE",
"169 336 LINE",
"169 472 LINE",
"445 472 LINE",
"445 560 LINE",
"74 560 LINE",
"74 0 LINE"
);
}
);
width = 490;
},
{
layerId = "7C863538-AAB4-42AD-A9FE-7240E615272A";
paths = (
{
closed = 1;
nodes = (
"481 0 LINE",
"481 120 LINE",
"198 120 LINE",
"198 243 LINE",
"409 243 LINE",
"409 362 LINE",
"198 362 LINE",
"198 461 LINE",
"472 461 LINE",
"472 581 LINE",
"71 581 LINE",
"71 0 LINE"
);
}
);
width = 512;
}
);
},
{
glyphname = F.sc;
lastChange = "2016-08-27 22:34:25 +0000";
layers = (
{
layerId = UUID0;
paths = (
{
closed = 1;
nodes = (
"167 0 LINE",
"167 248 LINE",
"377 248 LINE",
"377 336 LINE",
"167 336 LINE",
"167 472 LINE",
"438 472 LINE",
"438 560 LINE",
"74 560 LINE",
"74 0 LINE"
);
}
);
width = 459;
},
{
layerId = "7C863538-AAB4-42AD-A9FE-7240E615272A";
paths = (
{
closed = 1;
nodes = (
"194 0 LINE",
"194 243 LINE",
"393 243 LINE",
"393 362 LINE",
"194 362 LINE",
"194 461 LINE",
"452 461 LINE",
"452 581 LINE",
"71 581 LINE",
"71 0 LINE"
);
}
);
width = 472;
}
);
},
{
glyphname = G.sc;
lastChange = "2016-08-27 22:34:25 +0000";
layers = (
{
layerId = UUID0;
paths = (
{
closed = 1;
nodes = (
"398 -11 OFFCURVE",
"488 8 OFFCURVE",
"534 31 CURVE",
"534 281 LINE",
"359 281 LINE",
"359 202 LINE",
"440 202 LINE",
"440 88 LINE",
"410 80 OFFCURVE",
"374 77 OFFCURVE",
"349 77 CURVE SMOOTH",
"208 77 OFFCURVE",
"141 162 OFFCURVE",
"141 282 CURVE SMOOTH",
"141 396 OFFCURVE",
"203 483 OFFCURVE",
"339 483 CURVE SMOOTH",
"393 483 OFFCURVE",
"457 469 OFFCURVE",
"505 452 CURVE",
"514 539 LINE",
"470 558 OFFCURVE",
"395 571 OFFCURVE",
"337 571 CURVE SMOOTH",
"163 571 OFFCURVE",
"39 457 OFFCURVE",
"39 281 CURVE SMOOTH",
"39 103 OFFCURVE",
"164 -11 OFFCURVE",
"330 -11 CURVE SMOOTH",
"330 -11 LINE"
);
}
);
width = 583;
},
{
layerId = "7C863538-AAB4-42AD-A9FE-7240E615272A";
paths = (
{
closed = 1;
nodes = (
"405 -12 OFFCURVE",
"503 8 OFFCURVE",
"546 32 CURVE",
"546 291 LINE",
"366 291 LINE",
"366 194 LINE",
"423 194 LINE",
"423 113 LINE",
"394 110 OFFCURVE",
"370 107 OFFCURVE",
"345 107 CURVE SMOOTH",
"229 107 OFFCURVE",
"169 183 OFFCURVE",
"169 294 CURVE SMOOTH",
"169 399 OFFCURVE",
"223 474 OFFCURVE",
"343 474 CURVE SMOOTH",
"397 474 OFFCURVE",
"466 459 OFFCURVE",
"512 439 CURVE",
"526 558 LINE",
"482 580 OFFCURVE",
"400 593 OFFCURVE",
"340 593 CURVE SMOOTH",
"160 593 OFFCURVE",
"34 472 OFFCURVE",
"34 291 CURVE SMOOTH",
"34 109 OFFCURVE",
"162 -12 OFFCURVE",
"335 -12 CURVE SMOOTH",
"335 -12 LINE"
);
}
);
width = 591;
}
);
},
{
glyphname = H.sc;
lastChange = "2016-08-27 22:34:25 +0000";
layers = (
{
layerId = UUID0;
paths = (
{
closed = 1;
nodes = (
"167 0 LINE",
"167 248 LINE",
"479 248 LINE",
"479 0 LINE",
"572 0 LINE",
"572 560 LINE",
"479 560 LINE",
"479 337 LINE",
"167 337 LINE",
"167 560 LINE",
"74 560 LINE",
"74 0 LINE"
);
}
);
width = 646;
},
{
layerId = "7C863538-AAB4-42AD-A9FE-7240E615272A";
paths = (
{
closed = 1;
nodes = (
"194 0 LINE",
"194 243 LINE",
"463 243 LINE",
"463 0 LINE",
"587 0 LINE",
"587 581 LINE",
"463 581 LINE",
"463 362 LINE",
"194 362 LINE",
"194 581 LINE",
"71 581 LINE",
"71 0 LINE"
);
}
);
width = 658;
}
);
},
{
glyphname = I.sc;
lastChange = "2016-08-25 20:31:12 +0000";
layers = (
{
layerId = UUID0;
paths = (
{
closed = 1;
nodes = (
"167 0 LINE",
"167 560 LINE",
"74 560 LINE",
"74 0 LINE"
);
}
);
width = 241;
},
{
layerId = "7C863538-AAB4-42AD-A9FE-7240E615272A";
paths = (
{
closed = 1;
nodes = (
"194 0 LINE",
"194 581 LINE",
"71 581 LINE",
"71 0 LINE"
);
}
);
width = 265;
}
);
},
{
glyphname = J.sc;
lastChange = "2016-08-25 20:31:12 +0000";
layers = (
{
layerId = UUID0;
paths = (
{
closed = 1;
nodes = (
"28 -138 LINE SMOOTH",
"120 -138 OFFCURVE",
"167 -99 OFFCURVE",
"167 -22 CURVE SMOOTH",
"167 560 LINE",
"74 560 LINE",
"74 1 LINE SMOOTH",
"74 -49 OFFCURVE",
"61 -72 OFFCURVE",
"10 -72 CURVE SMOOTH",
"-2 -72 LINE",
"7 -138 LINE"
);
}
);
width = 241;
},
{
layerId = "7C863538-AAB4-42AD-A9FE-7240E615272A";
paths = (
{
closed = 1;
nodes = (
"53 -143 LINE SMOOTH",
"136 -143 OFFCURVE",
"194 -104 OFFCURVE",
"194 -16 CURVE SMOOTH",
"194 581 LINE",
"71 581 LINE",
"71 6 LINE SMOOTH",
"71 -29 OFFCURVE",
"61 -45 OFFCURVE",
"37 -45 CURVE SMOOTH",
"6 -45 LINE",
"15 -143 LINE"
);
}
);
width = 265;
}
);
},
{
glyphname = K.sc;
lastChange = "2016-08-25 20:31:12 +0000";
layers = (
{
layerId = UUID0;
paths = (
{
closed = 1;
nodes = (
"512 0 LINE",
"297 296 LINE",
"512 560 LINE",
"410 560 LINE",
"195 296 LINE",
"410 0 LINE"
);
},
{
closed = 1;
nodes = (
"167 0 LINE",
"167 560 LINE",
"74 560 LINE",
"74 0 LINE"
);
}
);
width = 525;
},
{
layerId = "7C863538-AAB4-42AD-A9FE-7240E615272A";
paths = (
{
closed = 1;
nodes = (
"562 0 LINE",
"352 307 LINE",
"562 581 LINE",
"422 581 LINE",
"212 307 LINE",
"422 0 LINE"
);
},
{
closed = 1;
nodes = (
"194 0 LINE",
"194 581 LINE",
"71 581 LINE",
"71 0 LINE"
);
}
);
width = 570;
}
);
},
{
glyphname = L.sc;
lastChange = "2016-08-25 20:31:12 +0000";
layers = (
{
layerId = UUID0;
paths = (
{
closed = 1;
nodes = (
"428 0 LINE",
"428 88 LINE",
"167 88 LINE",
"167 560 LINE",
"74 560 LINE",
"74 0 LINE"
);
}
);
width = 440;
},
{
layerId = "7C863538-AAB4-42AD-A9FE-7240E615272A";
paths = (
{
closed = 1;
nodes = (
"437 0 LINE",
"437 120 LINE",
"194 120 LINE",
"194 581 LINE",
"71 581 LINE",
"71 0 LINE"
);
}
);
width = 449;
}
);
},
{
glyphname = M.sc;
lastChange = "2016-08-27 22:34:25 +0000";
layers = (
{
layerId = UUID0;
paths = (
{
closed = 1;
nodes = (
"144 0 LINE",
"198 392 LINE",
"357 123 LINE",
"514 392 LINE",
"568 0 LINE",
"666 0 LINE",
"585 560 LINE",
"507 560 LINE",
"357 297 LINE",
"205 560 LINE",
"127 560 LINE",
"46 0 LINE"
);
}
);
width = 712;
},
{
layerId = "7C863538-AAB4-42AD-A9FE-7240E615272A";
paths = (
{
closed = 1;
nodes = (
"171 0 LINE",
"221 361 LINE",
"375 113 LINE",
"529 362 LINE",
"580 0 LINE",
"708 0 LINE",
"621 581 LINE",
"521 581 LINE",
"376 329 LINE",
"229 581 LINE",
"129 581 LINE",
"43 0 LINE"
);
}
);
width = 750;
}
);
},
{
glyphname = N.sc;
lastChange = "2016-08-27 22:34:25 +0000";
layers = (
{
layerId = UUID0;
paths = (
{
closed = 1;
nodes = (
"167 0 LINE",
"167 405 LINE",
"462 0 LINE",
"540 0 LINE",
"540 560 LINE",
"446 560 LINE",
"446 178 LINE",
"170 560 LINE",
"74 560 LINE",
"74 0 LINE"
);
}
);
width = 614;
},
{
layerId = "7C863538-AAB4-42AD-A9FE-7240E615272A";
paths = (
{
closed = 1;
nodes = (
"194 0 LINE",
"194 366 LINE",
"460 0 LINE",
"561 0 LINE",
"561 581 LINE",
"438 581 LINE",
"438 238 LINE",
"189 581 LINE",
"71 581 LINE",
"71 0 LINE"
);
}
);
width = 632;
}
);
},
{
glyphname = O.sc;
lastChange = "2016-08-27 22:34:25 +0000";
layers = (
{
layerId = UUID0;
paths = (
{
closed = 1;
nodes = (
"502 -11 OFFCURVE",
"626 103 OFFCURVE",
"626 280 CURVE SMOOTH",
"626 457 OFFCURVE",
"502 571 OFFCURVE",
"332 571 CURVE SMOOTH",
"162 571 OFFCURVE",
"39 457 OFFCURVE",
"39 280 CURVE SMOOTH",
"39 103 OFFCURVE",
"162 -11 OFFCURVE",
"332 -11 CURVE SMOOTH",
"332 -11 LINE"
);
},
{
closed = 1;
nodes = (
"205 77 OFFCURVE",
"141 164 OFFCURVE",
"141 280 CURVE SMOOTH",
"141 396 OFFCURVE",
"205 483 OFFCURVE",
"332 483 CURVE SMOOTH",
"332 483 LINE",
"459 483 OFFCURVE",
"523 396 OFFCURVE",
"523 280 CURVE SMOOTH",
"523 164 OFFCURVE",
"459 77 OFFCURVE",
"332 77 CURVE SMOOTH"
);
}
);
width = 665;
},
{
layerId = "7C863538-AAB4-42AD-A9FE-7240E615272A";
paths = (
{
closed = 1;
nodes = (
"514 -12 OFFCURVE",
"641 109 OFFCURVE",
"641 291 CURVE SMOOTH",
"641 472 OFFCURVE",
"514 593 OFFCURVE",
"338 593 CURVE SMOOTH",
"162 593 OFFCURVE",
"34 472 OFFCURVE",
"34 291 CURVE SMOOTH",
"34 109 OFFCURVE",
"162 -12 OFFCURVE",
"338 -12 CURVE SMOOTH",
"338 -12 LINE"
);
},
{
closed = 1;
nodes = (
"226 107 OFFCURVE",
"169 181 OFFCURVE",
"169 291 CURVE SMOOTH",
"169 400 OFFCURVE",
"226 474 OFFCURVE",
"338 474 CURVE SMOOTH",
"338 474 LINE",
"450 474 OFFCURVE",
"506 400 OFFCURVE",
"506 291 CURVE SMOOTH",
"506 181 OFFCURVE",
"450 107 OFFCURVE",
"338 107 CURVE SMOOTH"
);
}
);
width = 676;
}
);
},
{
glyphname = OE.sc;
lastChange = "2016-08-27 22:34:25 +0000";
layers = (
{
layerId = UUID0;
paths = (
{
closed = 1;
nodes = (
"398 -11 OFFCURVE",
"459 9 OFFCURVE",
"525 52 CURVE",
"525 0 LINE",
"884 0 LINE",
"884 88 LINE",
"618 88 LINE",
"618 248 LINE",
"817 248 LINE",
"817 336 LINE",
"618 336 LINE",
"618 472 LINE",
"876 472 LINE",
"876 560 LINE",
"525 560 LINE",
"525 508 LINE",
"459 551 OFFCURVE",
"398 571 OFFCURVE",
"329 571 CURVE SMOOTH",
"161 571 OFFCURVE",
"39 457 OFFCURVE",
"39 280 CURVE SMOOTH",
"39 103 OFFCURVE",
"161 -11 OFFCURVE",
"329 -11 CURVE SMOOTH"
);
},
{
closed = 1;
nodes = (
"202 77 OFFCURVE",
"139 163 OFFCURVE",
"139 280 CURVE SMOOTH",
"139 397 OFFCURVE",
"202 483 OFFCURVE",
"329 483 CURVE SMOOTH",
"329 483 LINE",
"455 483 OFFCURVE",
"518 397 OFFCURVE",
"518 280 CURVE SMOOTH",
"518 163 OFFCURVE",
"455 77 OFFCURVE",
"329 77 CURVE SMOOTH"
);
}
);
width = 921;
},
{
layerId = "7C863538-AAB4-42AD-A9FE-7240E615272A";
paths = (
{
closed = 1;
nodes = (
"412 -12 OFFCURVE",
"477 9 OFFCURVE",
"517 33 CURVE",
"517 0 LINE",
"909 0 LINE",
"909 120 LINE",
"645 120 LINE",
"645 243 LINE",
"842 243 LINE",
"842 362 LINE",
"645 362 LINE",
"645 461 LINE",
"901 461 LINE",
"901 581 LINE",
"517 581 LINE",
"517 548 LINE",
"477 572 OFFCURVE",
"412 593 OFFCURVE",
"340 593 CURVE SMOOTH",
"163 593 OFFCURVE",
"34 472 OFFCURVE",
"34 291 CURVE SMOOTH",
"34 109 OFFCURVE",
"163 -12 OFFCURVE",
"340 -12 CURVE SMOOTH"
);
},
{
closed = 1;
nodes = (
"228 107 OFFCURVE",
"170 182 OFFCURVE",
"170 291 CURVE SMOOTH",
"170 399 OFFCURVE",
"228 474 OFFCURVE",
"340 474 CURVE SMOOTH",
"340 474 LINE",
"452 474 OFFCURVE",
"510 399 OFFCURVE",
"510 291 CURVE SMOOTH",
"510 182 OFFCURVE",
"452 107 OFFCURVE",
"340 107 CURVE SMOOTH"
);
}
);
width = 941;
}
);
},
{
glyphname = P.sc;
lastChange = "2016-08-27 22:34:25 +0000";
layers = (
{
background = {
paths = (
{
closed = 1;
nodes = (
"314 245 LINE SMOOTH",
"407 245 OFFCURVE",
"530 300 OFFCURVE",
"530 482 CURVE SMOOTH",
"530 670 OFFCURVE",
"437 700 OFFCURVE",
"236 700 CURVE SMOOTH",
"48 700 LINE",
"48 0 LINE",
"148 0 LINE",
"148 245 LINE"
);
},
{
closed = 1;
nodes = (
"268 615 LINE SMOOTH",
"391 615 OFFCURVE",
"431 578 OFFCURVE",
"431 478 CURVE SMOOTH",
"431 384 OFFCURVE",
"393 330 OFFCURVE",
"296 330 CURVE SMOOTH",
"148 330 LINE",
"148 615 LINE"
);
}
);
};
layerId = UUID0;
paths = (
{
closed = 1;
nodes = (
"170 0 LINE",
"170 188 LINE",
"289 188 LINE SMOOTH",
"370 188 OFFCURVE",
"483 228 OFFCURVE",
"483 384 CURVE SMOOTH",
"483 536 OFFCURVE",
"390 560 OFFCURVE",
"254 560 CURVE SMOOTH",
"74 560 LINE",
"74 0 LINE"
);
},
{
closed = 1;
nodes = (
"170 481 LINE",
"260 481 LINE SMOOTH",
"358 481 OFFCURVE",
"387 452 OFFCURVE",
"387 382 CURVE SMOOTH",
"387 306 OFFCURVE",
"355 274 OFFCURVE",
"274 274 CURVE SMOOTH",
"170 274 LINE"
);
}
);
width = 510;
},
{
background = {
paths = (
{
closed = 1;
nodes = (
"242 230 LINE SMOOTH",
"458 230 OFFCURVE",
"553 288 OFFCURVE",
"553 478 CURVE SMOOTH",
"553 670 OFFCURVE",
"447 700 OFFCURVE",
"253 700 CURVE SMOOTH",
"55 700 LINE",
"55 0 LINE",
"183 0 LINE",
"183 230 LINE"
);
},
{
closed = 1;
nodes = (
"288 593 LINE SMOOTH",
"395 593 OFFCURVE",
"423 557 OFFCURVE",
"423 477 CURVE SMOOTH",
"423 382 OFFCURVE",
"384 350 OFFCURVE",
"291 350 CURVE SMOOTH",
"183 350 LINE",
"183 593 LINE"
);
}
);
};
layerId = "7C863538-AAB4-42AD-A9FE-7240E615272A";
paths = (
{
closed = 1;
nodes = (
"193 0 LINE",
"193 184 LINE",
"294 184 LINE SMOOTH",
"383 184 OFFCURVE",
"519 220 OFFCURVE",
"519 395 CURVE SMOOTH",
"519 556 OFFCURVE",
"428 581 OFFCURVE",
"237 581 CURVE SMOOTH",
"71 581 LINE",
"71 0 LINE"
);
},
{
closed = 1;
nodes = (
"193 482 LINE",
"285 482 LINE SMOOTH",
"374 482 OFFCURVE",
"395 453 OFFCURVE",
"395 395 CURVE SMOOTH",
"395 316 OFFCURVE",
"360 299 OFFCURVE",
"279 299 CURVE SMOOTH",
"193 299 LINE"
);
}
);
width = 542;
}
);
},
{
glyphname = Q.sc;
lastChange = "2016-08-27 22:34:25 +0000";
layers = (
{
layerId = UUID0;
paths = (
{
closed = 1;
nodes = (
"398 -11 OFFCURVE",
"458 6 OFFCURVE",
"510 40 CURVE",
"567 -4 LINE",
"619 58 LINE",
"567 99 LINE",
"606 151 OFFCURVE",
"626 211 OFFCURVE",
"626 280 CURVE SMOOTH",
"626 457 OFFCURVE",
"502 571 OFFCURVE",
"332 571 CURVE SMOOTH",
"162 571 OFFCURVE",
"39 457 OFFCURVE",
"39 280 CURVE SMOOTH",
"39 103 OFFCURVE",
"162 -11 OFFCURVE",
"332 -11 CURVE SMOOTH"
);
},
{
closed = 1;
nodes = (
"205 77 OFFCURVE",
"141 163 OFFCURVE",
"141 280 CURVE SMOOTH",
"141 397 OFFCURVE",
"205 483 OFFCURVE",
"332 483 CURVE SMOOTH",
"332 483 LINE",
"460 483 OFFCURVE",
"528 397 OFFCURVE",
"528 280 CURVE SMOOTH",
"528 238 OFFCURVE",
"523 198 OFFCURVE",
"495 159 CURVE",
"412 224 LINE",
"361 160 LINE",
"441 100 LINE",
"409 83 OFFCURVE",
"368 77 OFFCURVE",
"332 77 CURVE SMOOTH"
);
}
);
width = 665;
},
{
layerId = "7C863538-AAB4-42AD-A9FE-7240E615272A";
paths = (
{
closed = 1;
nodes = (
"646 73 LINE",
"590 116 LINE",
"621 158 OFFCURVE",
"641 220 OFFCURVE",
"641 291 CURVE SMOOTH",
"641 472 OFFCURVE",
"514 593 OFFCURVE",
"338 593 CURVE SMOOTH",
"162 593 OFFCURVE",
"34 472 OFFCURVE",
"34 291 CURVE SMOOTH",
"34 109 OFFCURVE",
"162 -12 OFFCURVE",
"338 -12 CURVE SMOOTH",
"405 -12 OFFCURVE",
"467 5 OFFCURVE",
"511 35 CURVE",
"573 -14 LINE"
);
},
{
closed = 1;
nodes = (
"226 107 OFFCURVE",
"169 181 OFFCURVE",
"169 291 CURVE SMOOTH",
"169 400 OFFCURVE",
"226 474 OFFCURVE",
"338 474 CURVE SMOOTH",
"338 474 LINE",
"449 474 OFFCURVE",
"503 400 OFFCURVE",
"503 291 CURVE SMOOTH",
"503 252 OFFCURVE",
"494 222 OFFCURVE",
"486 205 CURVE",
"414 258 LINE",
"341 172 LINE",
"409 119 LINE",
"390 114 OFFCURVE",
"370 107 OFFCURVE",
"338 107 CURVE SMOOTH"
);
}
);
width = 676;
}
);
},
{
glyphname = R.sc;
lastChange = "2016-08-27 22:34:25 +0000";
layers = (
{
layerId = UUID0;
paths = (
{
closed = 1;
nodes = (
"170 0 LINE",
"170 212 LINE",
"288 212 LINE",
"416 0 LINE",
"515 0 LINE",
"378 236 LINE",
"441 268 OFFCURVE",
"483 317 OFFCURVE",
"483 398 CURVE SMOOTH",
"483 521 OFFCURVE",
"398 560 OFFCURVE",
"278 560 CURVE SMOOTH",
"74 560 LINE",
"74 0 LINE"
);
},
{
closed = 1;
nodes = (
"170 483 LINE",
"266 483 LINE SMOOTH",
"353 483 OFFCURVE",
"386 450 OFFCURVE",
"386 393 CURVE SMOOTH",
"386 332 OFFCURVE",
"345 300 OFFCURVE",
"276 300 CURVE SMOOTH",
"170 300 LINE"
);
}
);
width = 537;
},
{
layerId = "7C863538-AAB4-42AD-A9FE-7240E615272A";
paths = (
{
closed = 1;
nodes = (
"193 0 LINE",
"193 210 LINE",
"302 210 LINE",
"426 0 LINE",
"553 0 LINE",
"415 242 LINE",
"469 278 OFFCURVE",
"517 315 OFFCURVE",
"517 415 CURVE SMOOTH",
"517 539 OFFCURVE",
"421 581 OFFCURVE",
"306 581 CURVE SMOOTH",
"71 581 LINE",
"71 0 LINE"
);
},
{
closed = 1;
nodes = (
"193 479 LINE",
"271 479 LINE SMOOTH",
"373 479 OFFCURVE",
"388 450 OFFCURVE",
"388 403 CURVE SMOOTH",
"388 367 OFFCURVE",
"380 322 OFFCURVE",
"257 322 CURVE SMOOTH",
"193 322 LINE"
);
}
);
width = 569;
}
);
},
{
glyphname = S.sc;
lastChange = "2016-08-27 22:34:25 +0000";
layers = (
{
layerId = UUID0;
paths = (
{
closed = 1;
nodes = (
"449 -11 OFFCURVE",
"477 87 OFFCURVE",
"477 149 CURVE SMOOTH",
"477 272 OFFCURVE",
"363 303 OFFCURVE",
"264 331 CURVE SMOOTH",
"196 350 OFFCURVE",
"139 369 OFFCURVE",
"139 416 CURVE SMOOTH",
"139 468 OFFCURVE",
"207 484 OFFCURVE",
"262 484 CURVE SMOOTH",
"320 484 OFFCURVE",
"374 464 OFFCURVE",
"434 434 CURVE",
"444 530 LINE",
"411 548 OFFCURVE",
"335 571 OFFCURVE",
"256 571 CURVE SMOOTH",
"94 571 OFFCURVE",
"41 478 OFFCURVE",
"41 406 CURVE SMOOTH",
"41 307 OFFCURVE",
"135 279 OFFCURVE",
"227 251 CURVE SMOOTH",
"307 227 OFFCURVE",
"374 206 OFFCURVE",
"374 147 CURVE SMOOTH",
"374 95 OFFCURVE",
"317 77 OFFCURVE",
"248 77 CURVE SMOOTH",
"163 77 OFFCURVE",
"98 106 OFFCURVE",
"62 135 CURVE",
"50 28 LINE",
"85 8 OFFCURVE",
"157 -11 OFFCURVE",
"246 -11 CURVE SMOOTH",
"246 -11 LINE"
);
}
);
width = 511;
},
{
layerId = "7C863538-AAB4-42AD-A9FE-7240E615272A";
paths = (
{
closed = 1;
nodes = (
"457 -12 OFFCURVE",
"489 93 OFFCURVE",
"489 162 CURVE SMOOTH",
"489 290 OFFCURVE",
"373 325 OFFCURVE",
"282 350 CURVE SMOOTH",
"218 368 OFFCURVE",
"161 384 OFFCURVE",
"161 427 CURVE SMOOTH",
"161 471 OFFCURVE",
"222 475 OFFCURVE",
"264 475 CURVE SMOOTH",
"322 475 OFFCURVE",
"378 460 OFFCURVE",
"446 423 CURVE",
"458 545 LINE",
"428 566 OFFCURVE",
"347 593 OFFCURVE",
"261 593 CURVE SMOOTH",
"96 593 OFFCURVE",
"38 495 OFFCURVE",
"38 415 CURVE SMOOTH",
"38 309 OFFCURVE",
"131 279 OFFCURVE",
"213 252 CURVE SMOOTH",
"283 229 OFFCURVE",
"351 211 OFFCURVE",
"351 156 CURVE SMOOTH",
"351 118 OFFCURVE",
"317 107 OFFCURVE",
"255 107 CURVE SMOOTH",
"159 107 OFFCURVE",
"91 138 OFFCURVE",
"60 170 CURVE",
"46 33 LINE",
"81 10 OFFCURVE",
"157 -12 OFFCURVE",
"252 -12 CURVE SMOOTH",
"252 -12 LINE"
);
}
);
width = 520;
}
);
},
{
glyphname = T.sc;
lastChange = "2016-08-27 22:34:25 +0000";
layers = (
{
layerId = UUID0;
paths = (
{
closed = 1;
nodes = (
"282 0 LINE",
"282 472 LINE",
"453 472 LINE",
"453 560 LINE",
"17 560 LINE",
"17 472 LINE",
"188 472 LINE",
"188 0 LINE"
);
}
);
width = 470;
},
{
layerId = "7C863538-AAB4-42AD-A9FE-7240E615272A";
paths = (
{
closed = 1;
nodes = (
"312 0 LINE",
"312 461 LINE",
"484 461 LINE",
"484 581 LINE",
"16 581 LINE",
"16 461 LINE",
"188 461 LINE",
"188 0 LINE"
);
}
);
width = 500;
}
);
},
{
glyphname = U.sc;
lastChange = "2016-08-27 22:34:25 +0000";
layers = (
{
layerId = UUID0;
paths = (
{
closed = 1;
nodes = (
"481 -11 OFFCURVE",
"560 87 OFFCURVE",
"560 239 CURVE SMOOTH",
"560 560 LINE",
"467 560 LINE",
"467 274 LINE SMOOTH",
"467 168 OFFCURVE",
"443 77 OFFCURVE",
"314 77 CURVE SMOOTH",
"184 77 OFFCURVE",
"160 168 OFFCURVE",
"160 274 CURVE SMOOTH",
"160 560 LINE",
"67 560 LINE",
"67 239 LINE SMOOTH",
"67 87 OFFCURVE",
"146 -11 OFFCURVE",
"314 -11 CURVE SMOOTH",
"314 -11 LINE"
);
}
);
width = 627;
},
{
layerId = "7C863538-AAB4-42AD-A9FE-7240E615272A";
paths = (
{
closed = 1;
nodes = (
"493 -12 OFFCURVE",
"574 94 OFFCURVE",
"574 250 CURVE SMOOTH",
"574 581 LINE",
"451 581 LINE",
"451 285 LINE SMOOTH",
"451 180 OFFCURVE",
"428 107 OFFCURVE",
"319 107 CURVE SMOOTH",
"210 107 OFFCURVE",
"187 180 OFFCURVE",
"187 285 CURVE SMOOTH",
"187 581 LINE",
"64 581 LINE",
"64 250 LINE SMOOTH",
"64 94 OFFCURVE",
"146 -12 OFFCURVE",
"319 -12 CURVE SMOOTH",
"319 -12 LINE"
);
}
);
width = 638;
}
);
},
{
glyphname = V.sc;
lastChange = "2016-08-27 22:34:25 +0000";
layers = (
{
layerId = UUID0;
paths = (
{
closed = 1;
nodes = (
"334 0 LINE",
"554 560 LINE",
"456 560 LINE",
"281 118 LINE",
"104 560 LINE",
"6 560 LINE",
"228 0 LINE"
);
}
);
width = 561;
},
{
layerId = "7C863538-AAB4-42AD-A9FE-7240E615272A";
paths = (
{
closed = 1;
nodes = (
"372 0 LINE",
"581 581 LINE",
"455 581 LINE",
"293 167 LINE",
"128 581 LINE",
"0 581 LINE",
"217 0 LINE"
);
}
);
width = 585;
}
);
},
{
glyphname = W.sc;
lastChange = "2016-08-27 22:34:25 +0000";
layers = (
{
layerId = UUID0;
paths = (
{
closed = 1;
nodes = (
"279 0 LINE",
"419 404 LINE",
"555 0 LINE",
"648 0 LINE",
"822 560 LINE",
"724 560 LINE",
"601 142 LINE",
"456 556 LINE",
"382 556 LINE",
"241 135 LINE",
"115 560 LINE",
"17 560 LINE",
"184 0 LINE"
);
}
);
width = 835;
},
{
layerId = "7C863538-AAB4-42AD-A9FE-7240E615272A";
paths = (
{
closed = 1;
nodes = (
"296 0 LINE",
"428 340 LINE",
"562 0 LINE",
"664 0 LINE",
"844 581 LINE",
"717 581 LINE",
"605 227 LINE",
"467 587 LINE",
"388 587 LINE",
"257 211 LINE",
"139 581 LINE",
"11 581 LINE",
"185 0 LINE"
);
}
);
width = 852;
}
);
},
{
glyphname = X.sc;
lastChange = "2016-08-27 22:34:25 +0000";
layers = (
{
layerId = UUID0;
paths = (
{
closed = 1;
nodes = (
"117 0 LINE",
"266 214 LINE",
"425 0 LINE",
"529 0 LINE",
"318 290 LINE",
"523 560 LINE",
"420 560 LINE",
"272 355 LINE",
"126 560 LINE",
"18 560 LINE",
"218 279 LINE",
"14 0 LINE"
);
}
);
width = 540;
},
{
layerId = "7C863538-AAB4-42AD-A9FE-7240E615272A";
paths = (
{
closed = 1;
nodes = (
"145 0 LINE",
"285 200 LINE",
"424 0 LINE",
"570 0 LINE",
"357 302 LINE",
"553 581 LINE",
"409 581 LINE",
"293 389 LINE",
"157 581 LINE",
"14 581 LINE",
"222 290 LINE",
"1 0 LINE"
);
}
);
width = 572;
}
);
},
{
glyphname = Y.sc;
lastChange = "2016-08-27 22:34:25 +0000";
layers = (
{
layerId = UUID0;
paths = (
{
closed = 1;
nodes = (
"300 0 LINE",
"300 252 LINE",
"503 560 LINE",
"404 560 LINE",
"252 335 LINE",
"100 560 LINE",
"1 560 LINE",
"204 252 LINE",
"204 0 LINE"
);
}
);
width = 504;
},
{
layerId = "7C863538-AAB4-42AD-A9FE-7240E615272A";
paths = (
{
closed = 1;
nodes = (
"329 0 LINE",
"329 251 LINE",
"544 581 LINE",
"413 581 LINE",
"269 359 LINE",
"124 581 LINE",
"-7 581 LINE",
"208 251 LINE",
"208 0 LINE"
);
}
);
width = 537;
}
);
},
{
glyphname = Z.sc;
lastChange = "2016-08-27 22:34:25 +0000";
layers = (
{
layerId = UUID0;
paths = (
{
closed = 1;
nodes = (
"430 0 LINE",
"430 88 LINE",
"169 88 LINE",
"468 560 LINE",
"53 560 LINE",
"53 472 LINE",
"314 472 LINE",
"15 0 LINE"
);
}
);
width = 483;
},
{
layerId = "7C863538-AAB4-42AD-A9FE-7240E615272A";
paths = (
{
closed = 1;
nodes = (
"441 0 LINE",
"441 120 LINE",
"215 120 LINE",
"481 581 LINE",
"52 581 LINE",
"52 461 LINE",
"278 461 LINE",
"12 0 LINE"
);
}
);
width = 492;
}
);
},
{
glyphname = ordfeminine;
lastChange = "2016-08-27 22:34:25 +0000";
layers = (
{
layerId = UUID0;
paths = (
{
closed = 1;
nodes = (
"156 434 OFFCURVE",
"192 445 OFFCURVE",
"212 465 CURVE",
"223 447 OFFCURVE",
"246 434 OFFCURVE",
"279 434 CURVE SMOOTH",
"306 434 LINE",
"313 495 LINE",
"303 495 LINE SMOOTH",
"282 495 OFFCURVE",
"277 495 OFFCURVE",
"277 537 CURVE SMOOTH",
"277 617 LINE SMOOTH",
"277 694 OFFCURVE",
"235 725 OFFCURVE",
"168 725 CURVE SMOOTH",
"131 725 OFFCURVE",
"95 718 OFFCURVE",
"59 702 CURVE",
"65 642 LINE",
"97 655 OFFCURVE",
"121 662 OFFCURVE",
"148 662 CURVE SMOOTH",
"186 662 OFFCURVE",
"200 648 OFFCURVE",
"201 620 CURVE",
"146 618 OFFCURVE",
"33 599 OFFCURVE",
"33 519 CURVE SMOOTH",
"33 465 OFFCURVE",
"72 434 OFFCURVE",
"120 434 CURVE SMOOTH"
);
},
{
closed = 1;
nodes = (
"124 490 OFFCURVE",
"112 500 OFFCURVE",
"112 522 CURVE SMOOTH",
"112 554 OFFCURVE",
"161 569 OFFCURVE",
"202 570 CURVE",
"202 507 LINE",
"186 495 OFFCURVE",
"164 490 OFFCURVE",
"152 490 CURVE SMOOTH"
);
}
);
width = 349;
},
{
layerId = "7C863538-AAB4-42AD-A9FE-7240E615272A";
paths = (
{
closed = 1;
nodes = (
"145 434 OFFCURVE",
"190 439 OFFCURVE",
"206 454 CURVE",
"217 445 OFFCURVE",
"254 434 OFFCURVE",
"262 434 CURVE SMOOTH",
"321 434 LINE",
"325 519 LINE",
"309 519 LINE SMOOTH",
"301 519 OFFCURVE",
"293 496 OFFCURVE",
"293 543 CURVE SMOOTH",
"293 650 LINE SMOOTH",
"293 702 OFFCURVE",
"235 732 OFFCURVE",
"178 732 CURVE SMOOTH",
"143 732 OFFCURVE",
"108 729 OFFCURVE",
"55 713 CURVE",
"60 632 LINE",
"93 637 OFFCURVE",
"115 647 OFFCURVE",
"149 647 CURVE SMOOTH",
"183 647 OFFCURVE",
"184 629 OFFCURVE",
"189 629 CURVE",
"158 627 OFFCURVE",
"30 607 OFFCURVE",
"30 526 CURVE SMOOTH",
"30 461 OFFCURVE",
"73 434 OFFCURVE",
"112 434 CURVE SMOOTH"
);
},
{
closed = 1;
nodes = (
"177 501 OFFCURVE",
"164 508 OFFCURVE",
"172 508 CURVE SMOOTH",
"143 508 OFFCURVE",
"140 516 OFFCURVE",
"140 528 CURVE SMOOTH",
"140 549 OFFCURVE",
"209 563 OFFCURVE",
"190 563 CURVE",
"190 501 LINE"
);
}
);
width = 361;
}
);
unicode = 00AA;
},
{
glyphname = ordmasculine;
lastChange = "2016-08-27 22:34:25 +0000";
layers = (
{
layerId = UUID0;
paths = (
{
closed = 1;
nodes = (
"281 434 OFFCURVE",
"337 502 OFFCURVE",
"337 580 CURVE SMOOTH",
"337 658 OFFCURVE",
"281 725 OFFCURVE",
"185 725 CURVE SMOOTH",
"89 725 OFFCURVE",
"33 658 OFFCURVE",
"33 580 CURVE SMOOTH",
"33 502 OFFCURVE",
"89 434 OFFCURVE",
"185 434 CURVE SMOOTH",
"185 434 LINE"
);
},
{
closed = 1;
nodes = (
"137 494 OFFCURVE",
"110 530 OFFCURVE",
"110 580 CURVE SMOOTH",
"110 630 OFFCURVE",
"137 666 OFFCURVE",
"185 666 CURVE SMOOTH",
"185 666 LINE",
"233 666 OFFCURVE",
"260 630 OFFCURVE",
"260 580 CURVE SMOOTH",
"260 530 OFFCURVE",
"233 494 OFFCURVE",
"185 494 CURVE SMOOTH"
);
}
);
width = 370;
},
{
layerId = "7C863538-AAB4-42AD-A9FE-7240E615272A";
paths = (
{
closed = 1;
nodes = (
"290 434 OFFCURVE",
"348 506 OFFCURVE",
"348 583 CURVE SMOOTH",
"348 660 OFFCURVE",
"290 732 OFFCURVE",
"188 732 CURVE SMOOTH",
"87 732 OFFCURVE",
"28 660 OFFCURVE",
"28 583 CURVE SMOOTH",
"28 506 OFFCURVE",
"87 434 OFFCURVE",
"188 434 CURVE SMOOTH",
"188 434 LINE"
);
},
{
closed = 1;
nodes = (
"154 511 OFFCURVE",
"133 546 OFFCURVE",
"133 583 CURVE SMOOTH",
"133 620 OFFCURVE",
"154 655 OFFCURVE",
"188 655 CURVE SMOOTH",
"188 655 LINE",
"222 655 OFFCURVE",
"243 620 OFFCURVE",
"243 583 CURVE SMOOTH",
"243 546 OFFCURVE",
"222 511 OFFCURVE",
"188 511 CURVE SMOOTH"
);
}
);
width = 377;
}
);
unicode = 00BA;
},
{
glyphname = zero;
lastChange = "2016-08-25 20:31:12 +0000";
layers = (
{
layerId = UUID0;
paths = (
{
closed = 1;
nodes = (
"351 -14 LINE",
"530 -14 OFFCURVE",
"651 130 OFFCURVE",
"651 357 CURVE SMOOTH",
"651 571 OFFCURVE",
"527 714 OFFCURVE",
"363 714 CURVE SMOOTH",
"196 714 OFFCURVE",
"63 565 OFFCURVE",
"63 338 CURVE SMOOTH",
"63 123 OFFCURVE",
"180 -14 OFFCURVE",
"351 -14 CURVE SMOOTH"
);
},
{
closed = 1;
nodes = (
"361 628 LINE",
"465 628 OFFCURVE",
"552 536 OFFCURVE",
"552 357 CURVE SMOOTH",
"552 162 OFFCURVE",
"470 72 OFFCURVE",
"353 72 CURVE SMOOTH",
"242 72 OFFCURVE",
"164 158 OFFCURVE",
"164 338 CURVE SMOOTH",
"164 532 OFFCURVE",
"258 628 OFFCURVE",
"361 628 CURVE SMOOTH"
);
}
);
width = 714;
},
{
layerId = "7C863538-AAB4-42AD-A9FE-7240E615272A";
paths = (
{
closed = 1;
nodes = (
"347 -14 LINE",
"528 -14 OFFCURVE",
"647 134 OFFCURVE",
"647 356 CURVE SMOOTH",
"647 567 OFFCURVE",
"525 714 OFFCURVE",
"359 714 CURVE SMOOTH",
"190 714 OFFCURVE",
"59 561 OFFCURVE",
"59 339 CURVE SMOOTH",
"59 127 OFFCURVE",
"174 -14 OFFCURVE",
"347 -14 CURVE SMOOTH"
);
},
{
closed = 1;
nodes = (
"357 601 LINE",
"442 601 OFFCURVE",
"521 522 OFFCURVE",
"521 356 CURVE SMOOTH",
"521 175 OFFCURVE",
"447 101 OFFCURVE",
"349 101 CURVE SMOOTH",
"257 101 OFFCURVE",
"187 172 OFFCURVE",
"187 339 CURVE SMOOTH",
"187 518 OFFCURVE",
"272 601 OFFCURVE",
"357 601 CURVE SMOOTH"
);
}
);
width = 706;
}
);
unicode = 0030;
},
{
glyphname = one;
lastChange = "2016-08-25 20:31:12 +0000";
layers = (
{
layerId = UUID0;
paths = (
{
closed = 1;
nodes = (
"254 0 LINE",
"254 700 LINE",
"181 700 LINE",
"151 653 OFFCURVE",
"88 609 OFFCURVE",
"34 591 CURVE",
"50 502 LINE",
"78 511 OFFCURVE",
"106 524 OFFCURVE",
"154 563 CURVE",
"154 0 LINE"
);
}
);
width = 355;
},
{
layerId = "7C863538-AAB4-42AD-A9FE-7240E615272A";
paths = (
{
closed = 1;
nodes = (
"272 0 LINE",
"272 700 LINE",
"174 700 LINE",
"155 652 OFFCURVE",
"88 600 OFFCURVE",
"45 591 CURVE",
"56 483 LINE",
"89 489 OFFCURVE",
"118 502 OFFCURVE",
"144 519 CURVE",
"144 0 LINE"
);
}
);
width = 369;
}
);
unicode = 0031;
},
{
glyphname = two;
lastChange = "2016-08-25 20:31:12 +0000";
layers = (
{
layerId = UUID0;
paths = (
{
closed = 1;
nodes = (
"470 0 LINE",
"470 86 LINE",
"228 86 LINE",
"385 309 OFFCURVE",
"443 429 OFFCURVE",
"443 522 CURVE SMOOTH",
"443 610 OFFCURVE",
"396 714 OFFCURVE",
"249 714 CURVE SMOOTH",
"127 714 OFFCURVE",
"61 638 OFFCURVE",
"50 617 CURVE",
"62 532 LINE",
"91 570 OFFCURVE",
"140 625 OFFCURVE",
"225 625 CURVE SMOOTH",
"298 625 OFFCURVE",
"347 585 OFFCURVE",
"347 512 CURVE SMOOTH",
"347 458 OFFCURVE",
"319 376 OFFCURVE",
"56 0 CURVE"
);
}
);
width = 524;
},
{
layerId = "7C863538-AAB4-42AD-A9FE-7240E615272A";
paths = (
{
closed = 1;
nodes = (
"472 0 LINE",
"472 124 LINE",
"264 124 LINE",
"394 320 OFFCURVE",
"447 435 OFFCURVE",
"447 526 CURVE SMOOTH",
"447 610 OFFCURVE",
"402 714 OFFCURVE",
"255 714 CURVE SMOOTH",
"140 714 OFFCURVE",
"71 650 OFFCURVE",
"52 615 CURVE",
"68 500 LINE",
"89 532 OFFCURVE",
"142 607 OFFCURVE",
"229 607 CURVE SMOOTH",
"290 607 OFFCURVE",
"326 570 OFFCURVE",
"326 507 CURVE SMOOTH",
"326 456 OFFCURVE",
"303 375 OFFCURVE",
"44 0 CURVE"
);
}
);
width = 529;
}
);
unicode = 0032;
},
{
glyphname = three;
lastChange = "2016-08-25 20:31:12 +0000";
layers = (
{
layerId = UUID0;
paths = (
{
closed = 1;
nodes = (
"230 -14 LINE",
"359 -14 OFFCURVE",
"484 60 OFFCURVE",
"484 214 CURVE SMOOTH",
"484 281 OFFCURVE",
"460 357 OFFCURVE",
"368 388 CURVE",
"439 437 OFFCURVE",
"459 481 OFFCURVE",
"459 534 CURVE SMOOTH",
"459 611 OFFCURVE",
"421 714 OFFCURVE",
"246 714 CURVE SMOOTH",
"152 714 OFFCURVE",
"100 684 OFFCURVE",
"84 668 CURVE",
"101 587 LINE",
"125 607 OFFCURVE",
"168 628 OFFCURVE",
"236 628 CURVE SMOOTH",
"313 628 OFFCURVE",
"355 600 OFFCURVE",
"355 534 CURVE SMOOTH",
"355 462 OFFCURVE",
"314 419 OFFCURVE",
"188 419 CURVE SMOOTH",
"151 419 LINE",
"141 343 LINE",
"214 343 LINE SMOOTH",
"352 343 OFFCURVE",
"380 279 OFFCURVE",
"380 213 CURVE SMOOTH",
"380 101 OFFCURVE",
"298 72 OFFCURVE",
"231 72 CURVE SMOOTH",
"166 72 OFFCURVE",
"123 94 OFFCURVE",
"63 127 CURVE",
"40 39 LINE",
"55 24 OFFCURVE",
"138 -14 OFFCURVE",
"230 -14 CURVE SMOOTH"
);
}
);
width = 547;
},
{
layerId = "7C863538-AAB4-42AD-A9FE-7240E615272A";
paths = (
{
closed = 1;
nodes = (
"224 -14 LINE",
"354 -14 OFFCURVE",
"480 62 OFFCURVE",
"480 217 CURVE SMOOTH",
"480 295 OFFCURVE",
"448 352 OFFCURVE",
"388 388 CURVE",
"432 420 OFFCURVE",
"455 467 OFFCURVE",
"455 528 CURVE SMOOTH",
"455 603 OFFCURVE",
"418 714 OFFCURVE",
"238 714 CURVE SMOOTH",
"162 714 OFFCURVE",
"101 689 OFFCURVE",
"80 668 CURVE",
"100 572 LINE",
"127 596 OFFCURVE",
"178 606 OFFCURVE",
"223 606 CURVE SMOOTH",
"296 606 OFFCURVE",
"326 572 OFFCURVE",
"326 522 CURVE SMOOTH",
"326 473 OFFCURVE",
"296 430 OFFCURVE",
"193 430 CURVE SMOOTH",
"147 430 LINE",
"136 331 LINE",
"226 331 LINE SMOOTH",
"332 331 OFFCURVE",
"354 274 OFFCURVE",
"354 211 CURVE SMOOTH",
"354 133 OFFCURVE",
"290 109 OFFCURVE",
"219 109 CURVE SMOOTH",
"161 109 OFFCURVE",
"96 131 OFFCURVE",
"67 158 CURVE",
"36 40 LINE",
"50 23 OFFCURVE",
"136 -14 OFFCURVE",
"224 -14 CURVE SMOOTH"
);
}
);
width = 539;
}
);
unicode = 0033;
},
{
glyphname = four;
lastChange = "2016-08-25 20:31:12 +0000";
layers = (
{
layerId = UUID0;
paths = (
{
closed = 1;
nodes = (
"500 190 LINE",
"500 276 LINE",
"415 276 LINE",
"415 700 LINE",
"336 700 LINE",
"14 190 LINE",
"315 190 LINE",
"315 0 LINE",
"415 0 LINE",
"415 190 LINE"
);
},
{
closed = 1;
nodes = (
"315 276 LINE",
"162 276 LINE",
"315 530 LINE"
);
}
);
width = 559;
},
{
layerId = "7C863538-AAB4-42AD-A9FE-7240E615272A";
paths = (
{
closed = 1;
nodes = (
"524 190 LINE",
"524 294 LINE",
"439 294 LINE",
"439 700 LINE",
"332 700 LINE",
"10 190 LINE",
"311 190 LINE",
"311 0 LINE",
"439 0 LINE",
"439 190 LINE"
);
},
{
closed = 1;
nodes = (
"311 294 LINE",
"184 294 LINE",
"311 504 LINE"
);
}
);
width = 581;
}
);
unicode = 0034;
},
{
glyphname = five;
lastChange = "2016-08-25 20:31:12 +0000";
layers = (
{
layerId = UUID0;
paths = (
{
closed = 1;
nodes = (
"220 -14 LINE",
"359 -14 OFFCURVE",
"489 83 OFFCURVE",
"489 236 CURVE SMOOTH",
"489 374 OFFCURVE",
"406 438 OFFCURVE",
"187 440 CURVE",
"207 614 LINE",
"440 614 LINE",
"449 700 LINE",
"131 700 LINE",
"89 355 LINE",
"174 355 LINE SMOOTH",
"326 355 OFFCURVE",
"385 315 OFFCURVE",
"385 232 CURVE SMOOTH",
"385 138 OFFCURVE",
"309 72 OFFCURVE",
"219 72 CURVE SMOOTH",
"174 72 OFFCURVE",
"117 89 OFFCURVE",
"74 114 CURVE",
"51 25 LINE",
"66 9 OFFCURVE",
"153 -14 OFFCURVE",
"220 -14 CURVE SMOOTH"
);
}
);
width = 541;
},
{
layerId = "7C863538-AAB4-42AD-A9FE-7240E615272A";
paths = (
{
closed = 1;
nodes = (
"232 -13 LINE",
"361 -13 OFFCURVE",
"487 68 OFFCURVE",
"487 231 CURVE SMOOTH",
"487 374 OFFCURVE",
"402 437 OFFCURVE",
"208 439 CURVE",
"225 576 LINE",
"437 576 LINE",
"450 700 LINE",
"129 700 LINE",
"85 332 LINE",
"192 332 LINE SMOOTH",
"336 332 OFFCURVE",
"363 283 OFFCURVE",
"363 226 CURVE SMOOTH",
"363 137 OFFCURVE",
"297 107 OFFCURVE",
"228 107 CURVE SMOOTH",
"167 107 OFFCURVE",
"111 131 OFFCURVE",
"79 159 CURVE",
"49 43 LINE",
"53 26 OFFCURVE",
"143 -13 OFFCURVE",
"232 -13 CURVE SMOOTH"
);
}
);
width = 537;
}
);
unicode = 0035;
},
{
glyphname = six;
lastChange = "2016-08-25 20:31:12 +0000";
layers = (
{
layerId = UUID0;
paths = (
{
closed = 1;
nodes = (
"281 -14 LINE SMOOTH",
"430 -14 OFFCURVE",
"524 89 OFFCURVE",
"524 218 CURVE SMOOTH",
"524 356 OFFCURVE",
"426 420 OFFCURVE",
"312 420 CURVE SMOOTH",
"259 420 OFFCURVE",
"208 407 OFFCURVE",
"171 357 CURVE",
"218 555 OFFCURVE",
"331 618 OFFCURVE",
"427 662 CURVE",
"362 700 LINE",
"250 698 OFFCURVE",
"62 503 OFFCURVE",
"62 240 CURVE SMOOTH",
"62 53 OFFCURVE",
"160 -14 OFFCURVE",
"281 -14 CURVE SMOOTH"
);
},
{
closed = 1;
nodes = (
"303 339 LINE SMOOTH",
"403 339 OFFCURVE",
"427 267 OFFCURVE",
"427 214 CURVE SMOOTH",
"427 142 OFFCURVE",
"383 69 OFFCURVE",
"293 69 CURVE SMOOTH",
"226 69 OFFCURVE",
"162 109 OFFCURVE",
"162 201 CURVE SMOOTH",
"162 285 OFFCURVE",
"227 339 OFFCURVE",
"303 339 CURVE SMOOTH"
);
}
);
width = 568;
},
{
layerId = "7C863538-AAB4-42AD-A9FE-7240E615272A";
paths = (
{
closed = 1;
nodes = (
"276 -14 LINE SMOOTH",
"426 -14 OFFCURVE",
"520 95 OFFCURVE",
"520 219 CURVE SMOOTH",
"520 354 OFFCURVE",
"427 421 OFFCURVE",
"309 421 CURVE SMOOTH",
"276 421 OFFCURVE",
"220 416 OFFCURVE",
"193 382 CURVE",
"208 504 OFFCURVE",
"381 650 OFFCURVE",
"442 650 CURVE",
"358 700 LINE",
"263 700 OFFCURVE",
"58 514 OFFCURVE",
"58 253 CURVE SMOOTH",
"58 59 OFFCURVE",
"154 -14 OFFCURVE",
"276 -14 CURVE SMOOTH"
);
},
{
closed = 1;
nodes = (
"301 317 LINE SMOOTH",
"372 317 OFFCURVE",
"402 264 OFFCURVE",
"402 221 CURVE SMOOTH",
"402 157 OFFCURVE",
"358 100 OFFCURVE",
"289 100 CURVE SMOOTH",
"241 100 OFFCURVE",
"182 134 OFFCURVE",
"182 203 CURVE SMOOTH",
"182 280 OFFCURVE",
"234 317 OFFCURVE",
"301 317 CURVE SMOOTH"
);
}
);
width = 562;
}
);
unicode = 0036;
},
{
glyphname = seven;
lastChange = "2016-08-25 20:31:12 +0000";
layers = (
{
layerId = UUID0;
paths = (
{
closed = 1;
nodes = (
"492 700 LINE",
"39 700 LINE",
"39 614 LINE",
"354 614 LINE",
"89 0 LINE",
"189 0 LINE"
);
}
);
width = 502;
},
{
layerId = "7C863538-AAB4-42AD-A9FE-7240E615272A";
paths = (
{
closed = 1;
nodes = (
"503 700 LINE",
"43 700 LINE",
"43 576 LINE",
"317 576 LINE",
"77 0 LINE",
"211 0 LINE"
);
}
);
width = 510;
}
);
unicode = 0037;
},
{
glyphname = eight;
lastChange = "2016-08-25 20:31:12 +0000";
layers = (
{
layerId = UUID0;
paths = (
{
closed = 1;
nodes = (
"296 -14 LINE",
"473 -14 OFFCURVE",
"549 103 OFFCURVE",
"549 198 CURVE SMOOTH",
"549 293 OFFCURVE",
"500 350 OFFCURVE",
"393 387 CURVE",
"479 447 OFFCURVE",
"510 481 OFFCURVE",
"510 555 CURVE SMOOTH",
"510 631 OFFCURVE",
"462 713 OFFCURVE",
"308 713 CURVE SMOOTH",
"147 713 OFFCURVE",
"100 624 OFFCURVE",
"100 540 CURVE SMOOTH",
"100 484 OFFCURVE",
"121 432 OFFCURVE",
"193 376 CURVE",
"84 318 OFFCURVE",
"59 248 OFFCURVE",
"59 189 CURVE SMOOTH",
"59 93 OFFCURVE",
"126 -14 OFFCURVE",
"296 -14 CURVE SMOOTH"
);
},
{
closed = 1;
nodes = (
"303 628 LINE",
"375 628 OFFCURVE",
"415 597 OFFCURVE",
"415 545 CURVE SMOOTH",
"415 495 OFFCURVE",
"379 445 OFFCURVE",
"298 421 CURVE",
"232 446 OFFCURVE",
"187 488 OFFCURVE",
"187 534 CURVE SMOOTH",
"187 593 OFFCURVE",
"231 628 OFFCURVE",
"303 628 CURVE SMOOTH"
);
},
{
closed = 1;
nodes = (
"306 338 LINE",
"383 319 OFFCURVE",
"448 271 OFFCURVE",
"448 199 CURVE SMOOTH",
"448 124 OFFCURVE",
"383 72 OFFCURVE",
"300 72 CURVE SMOOTH",
"214 72 OFFCURVE",
"163 110 OFFCURVE",
"163 189 CURVE SMOOTH",
"163 275 OFFCURVE",
"223 322 OFFCURVE",
"306 338 CURVE"
);
}
);
width = 609;
},
{
layerId = "7C863538-AAB4-42AD-A9FE-7240E615272A";
paths = (
{
closed = 1;
nodes = (
"291 -14 LINE",
"470 -14 OFFCURVE",
"546 104 OFFCURVE",
"546 204 CURVE SMOOTH",
"546 287 OFFCURVE",
"494 353 OFFCURVE",
"422 386 CURVE",
"476 431 OFFCURVE",
"508 484 OFFCURVE",
"508 552 CURVE SMOOTH",
"508 637 OFFCURVE",
"457 714 OFFCURVE",
"305 714 CURVE SMOOTH",
"145 714 OFFCURVE",
"95 628 OFFCURVE",
"95 537 CURVE SMOOTH",
"95 481 OFFCURVE",
"114 417 OFFCURVE",
"164 377 CURVE",
"83 318 OFFCURVE",
"56 248 OFFCURVE",
"56 185 CURVE SMOOTH",
"56 83 OFFCURVE",
"128 -14 OFFCURVE",
"291 -14 CURVE SMOOTH"
);
},
{
closed = 1;
nodes = (
"300 614 LINE",
"368 614 OFFCURVE",
"390 574 OFFCURVE",
"390 530 CURVE SMOOTH",
"390 486 OFFCURVE",
"368 445 OFFCURVE",
"295 425 CURVE",
"223 445 OFFCURVE",
"207 486 OFFCURVE",
"207 525 CURVE SMOOTH",
"207 573 OFFCURVE",
"231 614 OFFCURVE",
"300 614 CURVE SMOOTH"
);
},
{
closed = 1;
nodes = (
"304 332 LINE",
"365 318 OFFCURVE",
"420 275 OFFCURVE",
"420 200 CURVE SMOOTH",
"420 133 OFFCURVE",
"375 88 OFFCURVE",
"296 88 CURVE SMOOTH",
"223 88 OFFCURVE",
"178 127 OFFCURVE",
"178 195 CURVE SMOOTH",
"178 276 OFFCURVE",
"242 322 OFFCURVE",
"304 332 CURVE"
);
}
);
width = 602;
}
);
unicode = 0038;
},
{
glyphname = nine;
lastChange = "2016-08-25 20:31:12 +0000";
layers = (
{
layerId = UUID0;
paths = (
{
closed = 1;
nodes = (
"288 714 LINE SMOOTH",
"139 714 OFFCURVE",
"45 612 OFFCURVE",
"45 481 CURVE SMOOTH",
"45 344 OFFCURVE",
"128 279 OFFCURVE",
"257 279 CURVE SMOOTH",
"313 279 OFFCURVE",
"369 299 OFFCURVE",
"396 336 CURVE",
"371 158 OFFCURVE",
"239 82 OFFCURVE",
"143 38 CURVE",
"216 0 LINE",
"317 0 OFFCURVE",
"507 163 OFFCURVE",
"507 462 CURVE SMOOTH",
"507 656 OFFCURVE",
"401 714 OFFCURVE",
"288 714 CURVE SMOOTH"
);
},
{
closed = 1;
nodes = (
"266 361 LINE SMOOTH",
"166 361 OFFCURVE",
"142 433 OFFCURVE",
"142 486 CURVE SMOOTH",
"142 558 OFFCURVE",
"186 631 OFFCURVE",
"276 631 CURVE SMOOTH",
"343 631 OFFCURVE",
"407 589 OFFCURVE",
"407 501 CURVE SMOOTH",
"407 415 OFFCURVE",
"342 361 OFFCURVE",
"266 361 CURVE SMOOTH"
);
}
);
width = 570;
},
{
layerId = "7C863538-AAB4-42AD-A9FE-7240E615272A";
paths = (
{
closed = 1;
nodes = (
"286 714 LINE SMOOTH",
"136 714 OFFCURVE",
"42 606 OFFCURVE",
"42 478 CURVE SMOOTH",
"42 346 OFFCURVE",
"130 279 OFFCURVE",
"253 279 CURVE SMOOTH",
"268 279 OFFCURVE",
"348 287 OFFCURVE",
"375 317 CURVE",
"367 172 OFFCURVE",
"186 50 OFFCURVE",
"123 50 CURVE",
"204 0 LINE",
"330 0 OFFCURVE",
"505 190 OFFCURVE",
"505 448 CURVE SMOOTH",
"505 640 OFFCURVE",
"408 714 OFFCURVE",
"286 714 CURVE SMOOTH"
);
},
{
closed = 1;
nodes = (
"265 383 LINE SMOOTH",
"194 383 OFFCURVE",
"167 434 OFFCURVE",
"167 483 CURVE SMOOTH",
"167 540 OFFCURVE",
"206 600 OFFCURVE",
"279 600 CURVE SMOOTH",
"325 600 OFFCURVE",
"384 577 OFFCURVE",
"384 496 CURVE SMOOTH",
"384 420 OFFCURVE",
"331 383 OFFCURVE",
"265 383 CURVE SMOOTH"
);
}
);
width = 564;
}
);
unicode = 0039;
},
{
glyphname = zeroinferior;
lastChange = "2016-08-25 20:31:12 +0000";
layers = (
{
layerId = UUID0;
paths = (
{
closed = 1;
nodes = (
"212 -8 LINE",
"317 -8 OFFCURVE",
"386 73 OFFCURVE",
"386 192 CURVE SMOOTH",
"386 306 OFFCURVE",
"315 386 OFFCURVE",
"219 386 CURVE SMOOTH",
"121 386 OFFCURVE",
"45 303 OFFCURVE",
"45 183 CURVE SMOOTH",
"45 69 OFFCURVE",
"112 -8 OFFCURVE",
"212 -8 CURVE SMOOTH"
);
},
{
closed = 1;
nodes = (
"218 322 LINE",
"267 322 OFFCURVE",
"313 281 OFFCURVE",
"313 192 CURVE SMOOTH",
"313 96 OFFCURVE",
"270 57 OFFCURVE",
"213 57 CURVE SMOOTH",
"160 57 OFFCURVE",
"119 94 OFFCURVE",
"119 183 CURVE SMOOTH",
"119 279 OFFCURVE",
"169 322 OFFCURVE",
"218 322 CURVE SMOOTH"
);
}
);
width = 431;
},
{
layerId = "7C863538-AAB4-42AD-A9FE-7240E615272A";
paths = (
{
closed = 1;
nodes = (
"209 -8 LINE",
"316 -8 OFFCURVE",
"383 76 OFFCURVE",
"383 191 CURVE SMOOTH",
"383 303 OFFCURVE",
"314 386 OFFCURVE",
"216 386 CURVE SMOOTH",
"116 386 OFFCURVE",
"42 300 OFFCURVE",
"42 184 CURVE SMOOTH",
"42 72 OFFCURVE",
"107 -8 OFFCURVE",
"209 -8 CURVE SMOOTH"
);
},
{
closed = 1;
nodes = (
"215 302 LINE",
"249 302 OFFCURVE",
"289 270 OFFCURVE",
"289 191 CURVE SMOOTH",
"289 105 OFFCURVE",
"252 79 OFFCURVE",
"210 79 CURVE SMOOTH",
"172 79 OFFCURVE",
"137 105 OFFCURVE",
"137 184 CURVE SMOOTH",
"137 268 OFFCURVE",
"180 302 OFFCURVE",
"215 302 CURVE SMOOTH"
);
}
);
width = 425;
}
);
unicode = 2080;
},
{
glyphname = oneinferior;
lastChange = "2016-08-25 20:31:12 +0000";
layers = (
{
layerId = UUID0;
paths = (
{
closed = 1;
nodes = (
"170 0 LINE",
"170 378 LINE",
"113 378 LINE",
"102 352 OFFCURVE",
"63 323 OFFCURVE",
"38 319 CURVE",
"44 259 LINE",
"64 262 OFFCURVE",
"80 269 OFFCURVE",
"95 276 CURVE",
"95 0 LINE"
);
}
);
width = 237;
},
{
layerId = "7C863538-AAB4-42AD-A9FE-7240E615272A";
paths = (
{
closed = 1;
nodes = (
"178 0 LINE",
"178 378 LINE",
"102 378 LINE",
"99 351 OFFCURVE",
"57 316 OFFCURVE",
"41 319 CURVE",
"43 245 LINE",
"67 245 OFFCURVE",
"84 252 OFFCURVE",
"82 243 CURVE",
"82 0 LINE"
);
}
);
width = 242;
}
);
unicode = 2081;
},
{
glyphname = twoinferior;
lastChange = "2016-08-25 20:31:12 +0000";
layers = (
{
layerId = UUID0;
paths = (
{
closed = 1;
nodes = (
"286 0 LINE",
"286 70 LINE",
"166 70 LINE",
"241 174 OFFCURVE",
"272 235 OFFCURVE",
"272 284 CURVE SMOOTH",
"272 329 OFFCURVE",
"246 386 OFFCURVE",
"160 386 CURVE SMOOTH",
"94 386 OFFCURVE",
"54 352 OFFCURVE",
"43 332 CURVE",
"52 267 LINE",
"64 284 OFFCURVE",
"95 326 OFFCURVE",
"145 326 CURVE SMOOTH",
"181 326 OFFCURVE",
"202 306 OFFCURVE",
"202 273 CURVE SMOOTH",
"202 246 OFFCURVE",
"188 202 OFFCURVE",
"38 0 CURVE"
);
}
);
width = 332;
},
{
layerId = "7C863538-AAB4-42AD-A9FE-7240E615272A";
paths = (
{
closed = 1;
nodes = (
"287 0 LINE",
"287 99 LINE",
"193 99 LINE",
"248 182 OFFCURVE",
"274 240 OFFCURVE",
"274 287 CURVE SMOOTH",
"274 329 OFFCURVE",
"250 386 OFFCURVE",
"165 386 CURVE SMOOTH",
"103 386 OFFCURVE",
"61 361 OFFCURVE",
"44 330 CURVE",
"56 243 LINE",
"62 255 OFFCURVE",
"96 313 OFFCURVE",
"148 313 CURVE SMOOTH",
"174 313 OFFCURVE",
"184 295 OFFCURVE",
"184 270 CURVE SMOOTH",
"184 245 OFFCURVE",
"175 202 OFFCURVE",
"28 0 CURVE"
);
}
);
width = 333;
}
);
unicode = 2082;
},
{
glyphname = threeinferior;
lastChange = "2016-08-25 20:31:12 +0000";
layers = (
{
layerId = UUID0;
paths = (
{
closed = 1;
nodes = (
"142 -8 LINE",
"217 -8 OFFCURVE",
"291 34 OFFCURVE",
"291 117 CURVE SMOOTH",
"291 161 OFFCURVE",
"272 190 OFFCURVE",
"237 210 CURVE",
"263 225 OFFCURVE",
"276 251 OFFCURVE",
"276 285 CURVE SMOOTH",
"276 325 OFFCURVE",
"255 386 OFFCURVE",
"150 386 CURVE SMOOTH",
"106 386 OFFCURVE",
"71 372 OFFCURVE",
"59 361 CURVE",
"70 308 LINE",
"86 321 OFFCURVE",
"115 325 OFFCURVE",
"141 325 CURVE SMOOTH",
"184 325 OFFCURVE",
"201 306 OFFCURVE",
"201 281 CURVE SMOOTH",
"201 256 OFFCURVE",
"184 233 OFFCURVE",
"124 233 CURVE SMOOTH",
"97 233 LINE",
"91 178 LINE",
"143 178 LINE SMOOTH",
"205 178 OFFCURVE",
"217 148 OFFCURVE",
"217 114 CURVE SMOOTH",
"217 75 OFFCURVE",
"180 62 OFFCURVE",
"139 62 CURVE SMOOTH",
"105 62 OFFCURVE",
"68 74 OFFCURVE",
"51 88 CURVE",
"33 22 LINE",
"41 12 OFFCURVE",
"91 -8 OFFCURVE",
"142 -8 CURVE SMOOTH"
);
}
);
width = 337;
},
{
layerId = "7C863538-AAB4-42AD-A9FE-7240E615272A";
paths = (
{
closed = 1;
nodes = (
"137 -8 LINE",
"214 -8 OFFCURVE",
"288 35 OFFCURVE",
"288 120 CURVE SMOOTH",
"288 171 OFFCURVE",
"263 186 OFFCURVE",
"253 210 CURVE",
"257 212 OFFCURVE",
"273 240 OFFCURVE",
"273 280 CURVE SMOOTH",
"273 319 OFFCURVE",
"252 386 OFFCURVE",
"144 386 CURVE SMOOTH",
"114 386 OFFCURVE",
"72 376 OFFCURVE",
"56 361 CURVE",
"69 296 LINE",
"87 313 OFFCURVE",
"123 309 OFFCURVE",
"131 309 CURVE SMOOTH",
"171 309 OFFCURVE",
"179 285 OFFCURVE",
"179 272 CURVE SMOOTH",
"179 265 OFFCURVE",
"170 241 OFFCURVE",
"128 241 CURVE SMOOTH",
"94 241 LINE",
"87 169 LINE",
"153 169 LINE SMOOTH",
"189 169 OFFCURVE",
"197 144 OFFCURVE",
"197 112 CURVE SMOOTH",
"197 99 OFFCURVE",
"174 90 OFFCURVE",
"130 90 CURVE SMOOTH",
"102 90 OFFCURVE",
"47 102 OFFCURVE",
"54 112 CURVE",
"30 22 LINE",
"37 12 OFFCURVE",
"90 -8 OFFCURVE",
"137 -8 CURVE SMOOTH"
);
}
);
width = 331;
}
);
unicode = 2083;
},
{
glyphname = fourinferior;
lastChange = "2016-08-25 20:31:12 +0000";
layers = (
{
layerId = UUID0;
paths = (
{
closed = 1;
nodes = (
"315 103 LINE",
"315 160 LINE",
"266 160 LINE",
"266 378 LINE",
"204 378 LINE",
"17 103 LINE",
"192 103 LINE",
"192 0 LINE",
"266 0 LINE",
"266 103 LINE"
);
},
{
closed = 1;
nodes = (
"192 160 LINE",
"118 160 LINE",
"192 270 LINE"
);
}
);
width = 357;
},
{
layerId = "7C863538-AAB4-42AD-A9FE-7240E615272A";
paths = (
{
closed = 1;
nodes = (
"333 103 LINE",
"333 174 LINE",
"284 174 LINE",
"284 378 LINE",
"200 378 LINE",
"13 103 LINE",
"188 103 LINE",
"188 0 LINE",
"284 0 LINE",
"284 103 LINE"
);
},
{
closed = 1;
nodes = (
"188 174 LINE",
"134 174 LINE",
"188 250 LINE"
);
}
);
width = 373;
}
);
unicode = 2084;
},
{
glyphname = fiveinferior;
lastChange = "2016-08-25 20:31:12 +0000";
layers = (
{
layerId = UUID0;
paths = (
{
closed = 1;
nodes = (
"141 -7 LINE",
"216 -7 OFFCURVE",
"289 35 OFFCURVE",
"289 124 CURVE SMOOTH",
"289 202 OFFCURVE",
"240 236 OFFCURVE",
"127 237 CURVE",
"137 308 LINE",
"260 308 LINE",
"268 378 LINE",
"81 378 LINE",
"56 177 LINE",
"118 177 LINE SMOOTH",
"201 177 OFFCURVE",
"217 150 OFFCURVE",
"217 122 CURVE SMOOTH",
"217 74 OFFCURVE",
"179 61 OFFCURVE",
"139 61 CURVE SMOOTH",
"103 61 OFFCURVE",
"71 74 OFFCURVE",
"52 90 CURVE",
"35 25 LINE",
"37 16 OFFCURVE",
"89 -7 OFFCURVE",
"141 -7 CURVE SMOOTH"
);
}
);
width = 332;
},
{
layerId = "7C863538-AAB4-42AD-A9FE-7240E615272A";
paths = (
{
closed = 1;
nodes = (
"155 -6 LINE",
"222 -6 OFFCURVE",
"292 24 OFFCURVE",
"292 121 CURVE SMOOTH",
"292 202 OFFCURVE",
"241 235 OFFCURVE",
"149 236 CURVE",
"156 279 LINE",
"263 279 LINE",
"273 378 LINE",
"85 378 LINE",
"58 160 LINE",
"137 160 LINE SMOOTH",
"214 160 OFFCURVE",
"205 126 OFFCURVE",
"205 117 CURVE SMOOTH",
"205 73 OFFCURVE",
"174 87 OFFCURVE",
"151 87 CURVE SMOOTH",
"103 87 OFFCURVE",
"71 106 OFFCURVE",
"61 124 CURVE",
"38 38 LINE",
"32 28 OFFCURVE",
"87 -6 OFFCURVE",
"155 -6 CURVE SMOOTH"
);
}
);
width = 335;
}
);
unicode = 2085;
},
{
glyphname = sixinferior;
lastChange = "2016-08-25 20:31:12 +0000";
layers = (
{
layerId = UUID0;
paths = (
{
closed = 1;
nodes = (
"171 -8 LINE SMOOTH",
"258 -8 OFFCURVE",
"313 52 OFFCURVE",
"313 118 CURVE SMOOTH",
"313 191 OFFCURVE",
"259 227 OFFCURVE",
"191 227 CURVE SMOOTH",
"172 227 OFFCURVE",
"139 225 OFFCURVE",
"123 208 CURVE",
"132 268 OFFCURVE",
"227 350 OFFCURVE",
"268 350 CURVE",
"219 378 LINE",
"164 378 OFFCURVE",
"45 279 OFFCURVE",
"45 138 CURVE SMOOTH",
"45 32 OFFCURVE",
"101 -8 OFFCURVE",
"171 -8 CURVE SMOOTH"
);
},
{
closed = 1;
nodes = (
"186 169 LINE SMOOTH",
"227 169 OFFCURVE",
"244 142 OFFCURVE",
"244 120 CURVE SMOOTH",
"244 86 OFFCURVE",
"219 57 OFFCURVE",
"179 57 CURVE SMOOTH",
"151 57 OFFCURVE",
"117 75 OFFCURVE",
"117 110 CURVE SMOOTH",
"117 151 OFFCURVE",
"147 169 OFFCURVE",
"186 169 CURVE SMOOTH"
);
}
);
width = 347;
},
{
layerId = "7C863538-AAB4-42AD-A9FE-7240E615272A";
paths = (
{
closed = 1;
nodes = (
"168 -8 LINE SMOOTH",
"255 -8 OFFCURVE",
"310 56 OFFCURVE",
"310 119 CURVE SMOOTH",
"310 189 OFFCURVE",
"260 228 OFFCURVE",
"188 228 CURVE SMOOTH",
"185 228 OFFCURVE",
"148 226 OFFCURVE",
"140 221 CURVE",
"140 238 OFFCURVE",
"227 341 OFFCURVE",
"280 341 CURVE",
"216 378 LINE",
"173 378 OFFCURVE",
"42 287 OFFCURVE",
"42 148 CURVE SMOOTH",
"42 37 OFFCURVE",
"96 -8 OFFCURVE",
"168 -8 CURVE SMOOTH"
);
},
{
closed = 1;
nodes = (
"185 154 LINE SMOOTH",
"203 154 OFFCURVE",
"225 140 OFFCURVE",
"225 125 CURVE SMOOTH",
"225 97 OFFCURVE",
"199 79 OFFCURVE",
"176 79 CURVE SMOOTH",
"163 79 OFFCURVE",
"133 93 OFFCURVE",
"133 111 CURVE SMOOTH",
"133 147 OFFCURVE",
"153 154 OFFCURVE",
"185 154 CURVE SMOOTH"
);
}
);
width = 343;
}
);
unicode = 2086;
},
{
glyphname = seveninferior;
lastChange = "2016-08-25 20:31:12 +0000";
layers = (
{
layerId = UUID0;
paths = (
{
closed = 1;
nodes = (
"309 378 LINE",
"42 378 LINE",
"42 308 LINE",
"201 308 LINE",
"62 0 LINE",
"139 0 LINE"
);
}
);
width = 332;
},
{
layerId = "7C863538-AAB4-42AD-A9FE-7240E615272A";
paths = (
{
closed = 1;
nodes = (
"314 378 LINE",
"42 378 LINE",
"42 279 LINE",
"169 279 LINE",
"49 0 LINE",
"154 0 LINE"
);
}
);
width = 334;
}
);
unicode = 2087;
},
{
glyphname = eightinferior;
lastChange = "2016-08-25 20:31:12 +0000";
layers = (
{
layerId = UUID0;
paths = (
{
closed = 1;
nodes = (
"180 -8 LINE",
"284 -8 OFFCURVE",
"328 56 OFFCURVE",
"328 111 CURVE SMOOTH",
"328 154 OFFCURVE",
"298 191 OFFCURVE",
"256 208 CURVE",
"288 231 OFFCURVE",
"306 262 OFFCURVE",
"306 298 CURVE SMOOTH",
"306 345 OFFCURVE",
"277 386 OFFCURVE",
"188 386 CURVE SMOOTH",
"96 386 OFFCURVE",
"67 339 OFFCURVE",
"67 290 CURVE SMOOTH",
"67 259 OFFCURVE",
"78 224 OFFCURVE",
"107 204 CURVE",
"60 172 OFFCURVE",
"44 134 OFFCURVE",
"44 100 CURVE SMOOTH",
"44 44 OFFCURVE",
"86 -8 OFFCURVE",
"180 -8 CURVE SMOOTH"
);
},
{
closed = 1;
nodes = (
"186 330 LINE",
"225 330 OFFCURVE",
"238 308 OFFCURVE",
"238 285 CURVE SMOOTH",
"238 262 OFFCURVE",
"225 240 OFFCURVE",
"183 230 CURVE",
"141 240 OFFCURVE",
"132 262 OFFCURVE",
"132 283 CURVE SMOOTH",
"132 308 OFFCURVE",
"146 330 OFFCURVE",
"186 330 CURVE SMOOTH"
);
},
{
closed = 1;
nodes = (
"188 179 LINE",
"223 172 OFFCURVE",
"255 149 OFFCURVE",
"255 108 CURVE SMOOTH",
"255 73 OFFCURVE",
"229 49 OFFCURVE",
"183 49 CURVE SMOOTH",
"141 49 OFFCURVE",
"115 70 OFFCURVE",
"115 106 CURVE SMOOTH",
"115 149 OFFCURVE",
"152 174 OFFCURVE",
"188 179 CURVE"
);
}
);
width = 372;
},
{
layerId = "7C863538-AAB4-42AD-A9FE-7240E615272A";
paths = (
{
closed = 1;
nodes = (
"177 -8 LINE",
"282 -8 OFFCURVE",
"326 57 OFFCURVE",
"326 115 CURVE SMOOTH",
"326 150 OFFCURVE",
"294 193 OFFCURVE",
"279 208 CURVE",
"286 219 OFFCURVE",
"305 264 OFFCURVE",
"305 296 CURVE SMOOTH",
"305 349 OFFCURVE",
"273 386 OFFCURVE",
"186 386 CURVE SMOOTH",
"94 386 OFFCURVE",
"63 342 OFFCURVE",
"63 287 CURVE SMOOTH",
"63 257 OFFCURVE",
"72 213 OFFCURVE",
"84 204 CURVE",
"59 172 OFFCURVE",
"42 134 OFFCURVE",
"42 97 CURVE SMOOTH",
"42 36 OFFCURVE",
"88 -8 OFFCURVE",
"177 -8 CURVE SMOOTH"
);
},
{
closed = 1;
nodes = (
"184 320 LINE",
"220 320 OFFCURVE",
"218 291 OFFCURVE",
"218 274 CURVE SMOOTH",
"218 255 OFFCURVE",
"217 240 OFFCURVE",
"181 233 CURVE",
"134 239 OFFCURVE",
"148 261 OFFCURVE",
"148 276 CURVE SMOOTH",
"148 293 OFFCURVE",
"146 320 OFFCURVE",
"184 320 CURVE SMOOTH"
);
},
{
closed = 1;
nodes = (
"187 174 LINE",
"209 171 OFFCURVE",
"233 152 OFFCURVE",
"233 109 CURVE SMOOTH",
"233 79 OFFCURVE",
"223 61 OFFCURVE",
"180 61 CURVE SMOOTH",
"148 61 OFFCURVE",
"127 83 OFFCURVE",
"127 110 CURVE SMOOTH",
"127 150 OFFCURVE",
"167 174 OFFCURVE",
"187 174 CURVE"
);
}
);
width = 367;
}
);
unicode = 2088;
},
{
glyphname = nineinferior;
lastChange = "2016-08-25 20:31:12 +0000";
layers = (
{
layerId = UUID0;
paths = (
{
closed = 1;
nodes = (
"174 386 LINE SMOOTH",
"87 386 OFFCURVE",
"32 327 OFFCURVE",
"32 258 CURVE SMOOTH",
"32 187 OFFCURVE",
"83 151 OFFCURVE",
"154 151 CURVE SMOOTH",
"163 151 OFFCURVE",
"209 154 OFFCURVE",
"225 170 CURVE",
"220 94 OFFCURVE",
"115 28 OFFCURVE",
"79 28 CURVE",
"126 0 LINE",
"199 0 OFFCURVE",
"301 105 OFFCURVE",
"301 241 CURVE SMOOTH",
"301 344 OFFCURVE",
"244 386 OFFCURVE",
"174 386 CURVE SMOOTH"
);
},
{
closed = 1;
nodes = (
"161 209 LINE SMOOTH",
"120 209 OFFCURVE",
"105 234 OFFCURVE",
"105 261 CURVE SMOOTH",
"105 290 OFFCURVE",
"127 321 OFFCURVE",
"169 321 CURVE SMOOTH",
"196 321 OFFCURVE",
"230 311 OFFCURVE",
"230 267 CURVE SMOOTH",
"230 227 OFFCURVE",
"200 209 OFFCURVE",
"161 209 CURVE SMOOTH"
);
}
);
width = 346;
},
{
layerId = "7C863538-AAB4-42AD-A9FE-7240E615272A";
paths = (
{
closed = 1;
nodes = (
"171 386 LINE SMOOTH",
"84 386 OFFCURVE",
"29 322 OFFCURVE",
"29 256 CURVE SMOOTH",
"29 189 OFFCURVE",
"87 151 OFFCURVE",
"151 151 CURVE SMOOTH",
"174 151 OFFCURVE",
"196 154 OFFCURVE",
"212 164 CURVE",
"209 112 OFFCURVE",
"103 37 OFFCURVE",
"63 37 CURVE",
"116 0 LINE",
"209 0 OFFCURVE",
"298 125 OFFCURVE",
"298 230 CURVE SMOOTH",
"298 332 OFFCURVE",
"249 386 OFFCURVE",
"171 386 CURVE SMOOTH"
);
},
{
closed = 1;
nodes = (
"160 225 LINE SMOOTH",
"142 225 OFFCURVE",
"124 235 OFFCURVE",
"124 258 CURVE SMOOTH",
"124 276 OFFCURVE",
"142 301 OFFCURVE",
"171 301 CURVE SMOOTH",
"181 301 OFFCURVE",
"212 301 OFFCURVE",
"212 264 CURVE SMOOTH",
"212 231 OFFCURVE",
"190 225 OFFCURVE",
"160 225 CURVE SMOOTH"
);
}
);
width = 340;
}
);
unicode = 2089;
},
{
glyphname = zerosuperior;
lastChange = "2016-08-25 20:31:12 +0000";
layers = (
{
layerId = UUID0;
paths = (
{
closed = 1;
nodes = (
"200 312 LINE",
"305 312 OFFCURVE",
"374 393 OFFCURVE",
"374 512 CURVE SMOOTH",
"374 626 OFFCURVE",
"303 706 OFFCURVE",
"207 706 CURVE SMOOTH",
"109 706 OFFCURVE",
"33 623 OFFCURVE",
"33 503 CURVE SMOOTH",
"33 389 OFFCURVE",
"100 312 OFFCURVE",
"200 312 CURVE SMOOTH"
);
},
{
closed = 1;
nodes = (
"206 642 LINE",
"255 642 OFFCURVE",
"301 601 OFFCURVE",
"301 512 CURVE SMOOTH",
"301 416 OFFCURVE",
"258 377 OFFCURVE",
"201 377 CURVE SMOOTH",
"148 377 OFFCURVE",
"107 414 OFFCURVE",
"107 503 CURVE SMOOTH",
"107 599 OFFCURVE",
"157 642 OFFCURVE",
"206 642 CURVE SMOOTH"
);
}
);
width = 407;
},
{
layerId = "7C863538-AAB4-42AD-A9FE-7240E615272A";
paths = (
{
closed = 1;
nodes = (
"196 312 LINE",
"303 312 OFFCURVE",
"370 396 OFFCURVE",
"370 511 CURVE SMOOTH",
"370 623 OFFCURVE",
"301 706 OFFCURVE",
"203 706 CURVE SMOOTH",
"103 706 OFFCURVE",
"29 620 OFFCURVE",
"29 504 CURVE SMOOTH",
"29 392 OFFCURVE",
"94 312 OFFCURVE",
"196 312 CURVE SMOOTH"
);
},
{
closed = 1;
nodes = (
"202 622 LINE",
"236 622 OFFCURVE",
"276 590 OFFCURVE",
"276 511 CURVE SMOOTH",
"276 425 OFFCURVE",
"239 399 OFFCURVE",
"197 399 CURVE SMOOTH",
"159 399 OFFCURVE",
"124 425 OFFCURVE",
"124 504 CURVE SMOOTH",
"124 588 OFFCURVE",
"167 622 OFFCURVE",
"202 622 CURVE SMOOTH"
);
}
);
width = 399;
}
);
unicode = 2070;
},
{
glyphname = onesuperior;
lastChange = "2016-08-25 20:31:12 +0000";
layers = (
{
layerId = UUID0;
paths = (
{
closed = 1;
nodes = (
"155 320 LINE",
"155 698 LINE",
"98 698 LINE",
"87 672 OFFCURVE",
"48 643 OFFCURVE",
"23 639 CURVE",
"29 579 LINE",
"49 582 OFFCURVE",
"65 589 OFFCURVE",
"80 596 CURVE",
"80 320 LINE"
);
}
);
width = 216;
},
{
layerId = "7C863538-AAB4-42AD-A9FE-7240E615272A";
paths = (
{
closed = 1;
nodes = (
"165 320 LINE",
"165 698 LINE",
"89 698 LINE",
"86 671 OFFCURVE",
"44 636 OFFCURVE",
"28 639 CURVE",
"30 565 LINE",
"54 565 OFFCURVE",
"71 572 OFFCURVE",
"69 563 CURVE",
"69 320 LINE"
);
}
);
width = 223;
}
);
unicode = 00B9;
},
{
glyphname = twosuperior;
lastChange = "2016-08-25 20:31:12 +0000";
layers = (
{
layerId = UUID0;
paths = (
{
closed = 1;
nodes = (
"273 320 LINE",
"273 390 LINE",
"153 390 LINE",
"228 494 OFFCURVE",
"259 555 OFFCURVE",
"259 604 CURVE SMOOTH",
"259 649 OFFCURVE",
"233 706 OFFCURVE",
"147 706 CURVE SMOOTH",
"81 706 OFFCURVE",
"41 672 OFFCURVE",
"30 652 CURVE",
"39 587 LINE",
"51 604 OFFCURVE",
"82 646 OFFCURVE",
"132 646 CURVE SMOOTH",
"168 646 OFFCURVE",
"189 626 OFFCURVE",
"189 593 CURVE SMOOTH",
"189 566 OFFCURVE",
"175 522 OFFCURVE",
"25 320 CURVE"
);
}
);
width = 304;
},
{
layerId = "7C863538-AAB4-42AD-A9FE-7240E615272A";
paths = (
{
closed = 1;
nodes = (
"276 320 LINE",
"276 419 LINE",
"182 419 LINE",
"237 502 OFFCURVE",
"263 560 OFFCURVE",
"263 607 CURVE SMOOTH",
"263 649 OFFCURVE",
"239 706 OFFCURVE",
"154 706 CURVE SMOOTH",
"92 706 OFFCURVE",
"50 681 OFFCURVE",
"33 650 CURVE",
"45 563 LINE",
"51 575 OFFCURVE",
"85 633 OFFCURVE",
"137 633 CURVE SMOOTH",
"163 633 OFFCURVE",
"173 615 OFFCURVE",
"173 590 CURVE SMOOTH",
"173 565 OFFCURVE",
"164 522 OFFCURVE",
"17 320 CURVE"
);
}
);
width = 309;
}
);
unicode = 00B2;
},
{
glyphname = threesuperior;
lastChange = "2016-08-25 20:31:12 +0000";
layers = (
{
layerId = UUID0;
paths = (
{
closed = 1;
nodes = (
"128 312 LINE",
"203 312 OFFCURVE",
"277 354 OFFCURVE",
"277 437 CURVE SMOOTH",
"277 481 OFFCURVE",
"258 510 OFFCURVE",
"223 530 CURVE",
"249 545 OFFCURVE",
"262 571 OFFCURVE",
"262 605 CURVE SMOOTH",
"262 645 OFFCURVE",
"241 706 OFFCURVE",
"136 706 CURVE SMOOTH",
"92 706 OFFCURVE",
"57 692 OFFCURVE",
"45 681 CURVE",
"56 628 LINE",
"72 641 OFFCURVE",
"101 645 OFFCURVE",
"127 645 CURVE SMOOTH",
"170 645 OFFCURVE",
"187 626 OFFCURVE",
"187 601 CURVE SMOOTH",
"187 576 OFFCURVE",
"170 553 OFFCURVE",
"110 553 CURVE SMOOTH",
"83 553 LINE",
"77 498 LINE",
"129 498 LINE SMOOTH",
"191 498 OFFCURVE",
"203 468 OFFCURVE",
"203 434 CURVE SMOOTH",
"203 395 OFFCURVE",
"166 382 OFFCURVE",
"125 382 CURVE SMOOTH",
"91 382 OFFCURVE",
"54 394 OFFCURVE",
"37 408 CURVE",
"19 342 LINE",
"27 332 OFFCURVE",
"77 312 OFFCURVE",
"128 312 CURVE SMOOTH"
);
}
);
width = 310;
},
{
layerId = "7C863538-AAB4-42AD-A9FE-7240E615272A";
paths = (
{
closed = 1;
nodes = (
"124 312 LINE",
"201 312 OFFCURVE",
"275 355 OFFCURVE",
"275 440 CURVE SMOOTH",
"275 491 OFFCURVE",
"250 506 OFFCURVE",
"240 530 CURVE",
"244 532 OFFCURVE",
"260 560 OFFCURVE",
"260 600 CURVE SMOOTH",
"260 639 OFFCURVE",
"239 706 OFFCURVE",
"131 706 CURVE SMOOTH",
"101 706 OFFCURVE",
"59 696 OFFCURVE",
"43 681 CURVE",
"56 616 LINE",
"74 633 OFFCURVE",
"110 629 OFFCURVE",
"118 629 CURVE SMOOTH",
"158 629 OFFCURVE",
"166 605 OFFCURVE",
"166 592 CURVE SMOOTH",
"166 585 OFFCURVE",
"157 561 OFFCURVE",
"115 561 CURVE SMOOTH",
"81 561 LINE",
"74 489 LINE",
"140 489 LINE SMOOTH",
"176 489 OFFCURVE",
"184 464 OFFCURVE",
"184 432 CURVE SMOOTH",
"184 419 OFFCURVE",
"161 410 OFFCURVE",
"117 410 CURVE SMOOTH",
"89 410 OFFCURVE",
"34 422 OFFCURVE",
"41 432 CURVE",
"17 342 LINE",
"24 332 OFFCURVE",
"77 312 OFFCURVE",
"124 312 CURVE SMOOTH"
);
}
);
width = 305;
}
);
unicode = 00B3;
},
{
glyphname = foursuperior;
lastChange = "2016-08-25 20:31:12 +0000";
layers = (
{
layerId = UUID0;
paths = (
{
closed = 1;
nodes = (
"303 423 LINE",
"303 480 LINE",
"254 480 LINE",
"254 698 LINE",
"192 698 LINE",
"5 423 LINE",
"180 423 LINE",
"180 320 LINE",
"254 320 LINE",
"254 423 LINE"
);
},
{
closed = 1;
nodes = (
"180 480 LINE",
"106 480 LINE",
"180 590 LINE"
);
}
);
width = 330;
},
{
layerId = "7C863538-AAB4-42AD-A9FE-7240E615272A";
paths = (
{
closed = 1;
nodes = (
"322 423 LINE",
"322 494 LINE",
"273 494 LINE",
"273 698 LINE",
"189 698 LINE",
"2 423 LINE",
"177 423 LINE",
"177 320 LINE",
"273 320 LINE",
"273 423 LINE"
);
},
{
closed = 1;
nodes = (
"177 494 LINE",
"123 494 LINE",
"177 570 LINE"
);
}
);
width = 348;
}
);
unicode = 2074;
},
{
glyphname = fivesuperior;
lastChange = "2016-08-25 20:31:12 +0000";
layers = (
{
layerId = UUID0;
paths = (
{
closed = 1;
nodes = (
"130 313 LINE",
"205 313 OFFCURVE",
"278 355 OFFCURVE",
"278 444 CURVE SMOOTH",
"278 522 OFFCURVE",
"229 556 OFFCURVE",
"116 557 CURVE",
"126 628 LINE",
"249 628 LINE",
"257 698 LINE",
"70 698 LINE",
"45 497 LINE",
"107 497 LINE SMOOTH",
"190 497 OFFCURVE",
"206 470 OFFCURVE",
"206 442 CURVE SMOOTH",
"206 394 OFFCURVE",
"168 381 OFFCURVE",
"128 381 CURVE SMOOTH",
"92 381 OFFCURVE",
"60 394 OFFCURVE",
"41 410 CURVE",
"24 345 LINE",
"26 336 OFFCURVE",
"78 313 OFFCURVE",
"130 313 CURVE SMOOTH"
);
}
);
width = 307;
},
{
layerId = "7C863538-AAB4-42AD-A9FE-7240E615272A";
paths = (
{
closed = 1;
nodes = (
"141 314 LINE",
"208 314 OFFCURVE",
"278 344 OFFCURVE",
"278 441 CURVE SMOOTH",
"278 522 OFFCURVE",
"227 555 OFFCURVE",
"135 556 CURVE",
"142 599 LINE",
"249 599 LINE",
"259 698 LINE",
"71 698 LINE",
"44 480 LINE",
"123 480 LINE SMOOTH",
"200 480 OFFCURVE",
"191 446 OFFCURVE",
"191 437 CURVE SMOOTH",
"191 393 OFFCURVE",
"160 407 OFFCURVE",
"137 407 CURVE SMOOTH",
"89 407 OFFCURVE",
"57 426 OFFCURVE",
"47 444 CURVE",
"24 358 LINE",
"18 348 OFFCURVE",
"73 314 OFFCURVE",
"141 314 CURVE SMOOTH"
);
}
);
width = 307;
}
);
unicode = 2075;
},
{
glyphname = sixsuperior;
lastChange = "2016-08-25 20:31:12 +0000";
layers = (
{
layerId = UUID0;
paths = (
{
closed = 1;
nodes = (
"158 312 LINE SMOOTH",
"245 312 OFFCURVE",
"300 372 OFFCURVE",
"300 438 CURVE SMOOTH",
"300 511 OFFCURVE",
"246 547 OFFCURVE",
"178 547 CURVE SMOOTH",
"159 547 OFFCURVE",
"126 545 OFFCURVE",
"110 528 CURVE",
"119 588 OFFCURVE",
"214 670 OFFCURVE",
"255 670 CURVE",
"206 698 LINE",
"151 698 OFFCURVE",
"32 599 OFFCURVE",
"32 458 CURVE SMOOTH",
"32 352 OFFCURVE",
"88 312 OFFCURVE",
"158 312 CURVE SMOOTH"
);
},
{
closed = 1;
nodes = (
"173 489 LINE SMOOTH",
"214 489 OFFCURVE",
"231 462 OFFCURVE",
"231 440 CURVE SMOOTH",
"231 406 OFFCURVE",
"206 377 OFFCURVE",
"166 377 CURVE SMOOTH",
"138 377 OFFCURVE",
"104 395 OFFCURVE",
"104 430 CURVE SMOOTH",
"104 471 OFFCURVE",
"134 489 OFFCURVE",
"173 489 CURVE SMOOTH"
);
}
);
width = 322;
},
{
layerId = "7C863538-AAB4-42AD-A9FE-7240E615272A";
paths = (
{
closed = 1;
nodes = (
"155 312 LINE SMOOTH",
"242 312 OFFCURVE",
"297 376 OFFCURVE",
"297 439 CURVE SMOOTH",
"297 509 OFFCURVE",
"245 548 OFFCURVE",
"179 548 CURVE SMOOTH",
"176 548 OFFCURVE",
"135 545 OFFCURVE",
"127 540 CURVE",
"127 551 OFFCURVE",
"227 661 OFFCURVE",
"267 661 CURVE",
"203 698 LINE",
"155 696 OFFCURVE",
"29 607 OFFCURVE",
"29 468 CURVE SMOOTH",
"29 357 OFFCURVE",
"83 312 OFFCURVE",
"155 312 CURVE SMOOTH"
);
},
{
closed = 1;
nodes = (
"172 473 LINE SMOOTH",
"190 473 OFFCURVE",
"212 460 OFFCURVE",
"212 445 CURVE SMOOTH",
"212 417 OFFCURVE",
"186 400 OFFCURVE",
"163 400 CURVE SMOOTH",
"150 400 OFFCURVE",
"120 413 OFFCURVE",
"120 431 CURVE SMOOTH",
"120 467 OFFCURVE",
"140 473 OFFCURVE",
"172 473 CURVE SMOOTH"
);
}
);
width = 318;
}
);
unicode = 2076;
},
{
glyphname = sevensuperior;
lastChange = "2016-08-25 20:31:12 +0000";
layers = (
{
layerId = UUID0;
paths = (
{
closed = 1;
nodes = (
"290 698 LINE",
"23 698 LINE",
"23 628 LINE",
"182 628 LINE",
"43 320 LINE",
"120 320 LINE"
);
}
);
width = 290;
},
{
layerId = "7C863538-AAB4-42AD-A9FE-7240E615272A";
paths = (
{
closed = 1;
nodes = (
"300 698 LINE",
"28 698 LINE",
"28 599 LINE",
"155 599 LINE",
"35 320 LINE",
"140 320 LINE"
);
}
);
width = 298;
}
);
unicode = 2077;
},
{
glyphname = eightsuperior;
lastChange = "2016-08-25 20:31:12 +0000";
layers = (
{
layerId = UUID0;
paths = (
{
closed = 1;
nodes = (
"167 312 LINE",
"271 312 OFFCURVE",
"315 376 OFFCURVE",
"315 431 CURVE SMOOTH",
"315 474 OFFCURVE",
"285 511 OFFCURVE",
"243 528 CURVE",
"275 551 OFFCURVE",
"293 582 OFFCURVE",
"293 618 CURVE SMOOTH",
"293 665 OFFCURVE",
"264 706 OFFCURVE",
"175 706 CURVE SMOOTH",
"83 706 OFFCURVE",
"54 659 OFFCURVE",
"54 610 CURVE SMOOTH",
"54 579 OFFCURVE",
"65 544 OFFCURVE",
"94 524 CURVE",
"47 492 OFFCURVE",
"31 454 OFFCURVE",
"31 420 CURVE SMOOTH",
"31 364 OFFCURVE",
"73 312 OFFCURVE",
"167 312 CURVE SMOOTH"
);
},
{
closed = 1;
nodes = (
"173 650 LINE",
"212 650 OFFCURVE",
"225 628 OFFCURVE",
"225 605 CURVE SMOOTH",
"225 582 OFFCURVE",
"212 560 OFFCURVE",
"170 550 CURVE",
"128 560 OFFCURVE",
"119 582 OFFCURVE",
"119 603 CURVE SMOOTH",
"119 628 OFFCURVE",
"133 650 OFFCURVE",
"173 650 CURVE SMOOTH"
);
},
{
closed = 1;
nodes = (
"175 499 LINE",
"210 492 OFFCURVE",
"242 469 OFFCURVE",
"242 428 CURVE SMOOTH",
"242 393 OFFCURVE",
"216 369 OFFCURVE",
"170 369 CURVE SMOOTH",
"128 369 OFFCURVE",
"102 390 OFFCURVE",
"102 426 CURVE SMOOTH",
"102 469 OFFCURVE",
"139 494 OFFCURVE",
"175 499 CURVE"
);
}
);
width = 346;
},
{
layerId = "7C863538-AAB4-42AD-A9FE-7240E615272A";
paths = (
{
closed = 1;
nodes = (
"164 312 LINE",
"269 312 OFFCURVE",
"313 377 OFFCURVE",
"313 435 CURVE SMOOTH",
"313 470 OFFCURVE",
"281 513 OFFCURVE",
"266 528 CURVE",
"273 539 OFFCURVE",
"292 584 OFFCURVE",
"292 616 CURVE SMOOTH",
"292 669 OFFCURVE",
"260 706 OFFCURVE",
"173 706 CURVE SMOOTH",
"81 706 OFFCURVE",
"50 662 OFFCURVE",
"50 607 CURVE SMOOTH",
"50 577 OFFCURVE",
"59 533 OFFCURVE",
"71 524 CURVE",
"46 492 OFFCURVE",
"29 454 OFFCURVE",
"29 417 CURVE SMOOTH",
"29 356 OFFCURVE",
"75 312 OFFCURVE",
"164 312 CURVE SMOOTH"
);
},
{
closed = 1;
nodes = (
"171 640 LINE",
"207 640 OFFCURVE",
"205 611 OFFCURVE",
"205 594 CURVE SMOOTH",
"205 575 OFFCURVE",
"204 560 OFFCURVE",
"168 553 CURVE",
"121 559 OFFCURVE",
"135 581 OFFCURVE",
"135 596 CURVE SMOOTH",
"135 613 OFFCURVE",
"133 640 OFFCURVE",
"171 640 CURVE SMOOTH"
);
},
{
closed = 1;
nodes = (
"174 494 LINE",
"196 491 OFFCURVE",
"220 472 OFFCURVE",
"220 429 CURVE SMOOTH",
"220 399 OFFCURVE",
"210 381 OFFCURVE",
"167 381 CURVE SMOOTH",
"135 381 OFFCURVE",
"114 403 OFFCURVE",
"114 430 CURVE SMOOTH",
"114 470 OFFCURVE",
"154 494 OFFCURVE",
"174 494 CURVE"
);
}
);
width = 341;
}
);
unicode = 2078;
},
{
glyphname = ninesuperior;
lastChange = "2016-08-25 20:31:12 +0000";
layers = (
{
layerId = UUID0;
paths = (
{
closed = 1;
nodes = (
"164 706 LINE SMOOTH",
"77 706 OFFCURVE",
"22 647 OFFCURVE",
"22 578 CURVE SMOOTH",
"22 507 OFFCURVE",
"73 471 OFFCURVE",
"144 471 CURVE SMOOTH",
"153 471 OFFCURVE",
"199 474 OFFCURVE",
"215 490 CURVE",
"210 414 OFFCURVE",
"107 348 OFFCURVE",
"69 348 CURVE",
"116 320 LINE",
"189 320 OFFCURVE",
"291 425 OFFCURVE",
"291 561 CURVE SMOOTH",
"291 664 OFFCURVE",
"234 706 OFFCURVE",
"164 706 CURVE SMOOTH"
);
},
{
closed = 1;
nodes = (
"151 529 LINE SMOOTH",
"110 529 OFFCURVE",
"95 554 OFFCURVE",
"95 581 CURVE SMOOTH",
"95 610 OFFCURVE",
"117 641 OFFCURVE",
"159 641 CURVE SMOOTH",
"186 641 OFFCURVE",
"220 631 OFFCURVE",
"220 587 CURVE SMOOTH",
"220 547 OFFCURVE",
"190 529 OFFCURVE",
"151 529 CURVE SMOOTH"
);
}
);
width = 324;
},
{
layerId = "7C863538-AAB4-42AD-A9FE-7240E615272A";
paths = (
{
closed = 1;
nodes = (
"161 706 LINE SMOOTH",
"74 706 OFFCURVE",
"19 642 OFFCURVE",
"19 576 CURVE SMOOTH",
"19 509 OFFCURVE",
"94 471 OFFCURVE",
"142 471 CURVE SMOOTH",
"166 471 OFFCURVE",
"185 473 OFFCURVE",
"201 483 CURVE",
"201 433 OFFCURVE",
"92 357 OFFCURVE",
"53 357 CURVE",
"106 320 LINE",
"199 320 OFFCURVE",
"288 445 OFFCURVE",
"288 550 CURVE SMOOTH",
"288 652 OFFCURVE",
"239 706 OFFCURVE",
"161 706 CURVE SMOOTH"
);
},
{
closed = 1;
nodes = (
"150 545 LINE SMOOTH",
"132 545 OFFCURVE",
"114 555 OFFCURVE",
"114 578 CURVE SMOOTH",
"114 596 OFFCURVE",
"131 622 OFFCURVE",
"160 622 CURVE SMOOTH",
"170 622 OFFCURVE",
"202 621 OFFCURVE",
"202 584 CURVE SMOOTH",
"202 551 OFFCURVE",
"180 545 OFFCURVE",
"150 545 CURVE SMOOTH"
);
}
);
width = 317;
}
);
unicode = 2079;
},
{
glyphname = asterisk;
lastChange = "2016-08-25 20:31:12 +0000";
layers = (
{
layerId = UUID0;
paths = (
{
closed = 1;
nodes = (
"315 427 LINE",
"348 459 LINE",
"235 574 LINE",
"393 637 LINE",
"370 679 LINE",
"221 593 LINE",
"237 749 LINE",
"191 749 LINE",
"204 593 LINE",
"56 679 LINE",
"33 638 LINE",
"189 573 LINE",
"81 456 LINE",
"113 424 LINE",
"213 560 LINE"
);
}
);
width = 426;
},
{
layerId = "7C863538-AAB4-42AD-A9FE-7240E615272A";
paths = (
{
closed = 1;
nodes = (
"309 412 LINE",
"376 477 LINE",
"256 567 LINE",
"415 617 LINE",
"368 699 LINE",
"234 592 LINE",
"270 749 LINE",
"176 749 LINE",
"211 592 LINE",
"78 699 LINE",
"31 617 LINE",
"193 565 LINE",
"72 474 LINE",
"139 409 LINE",
"225 549 LINE"
);
}
);
width = 446;
}
);
unicode = 002A;
},
{
glyphname = backslash;
lastChange = "2016-08-25 20:31:12 +0000";
layers = (
{
layerId = UUID0;
paths = (
{
closed = 1;
nodes = (
"506 -85 LINE",
"128 700 LINE",
"35 700 LINE",
"413 -85 LINE"
);
}
);
width = 525;
},
{
layerId = "7C863538-AAB4-42AD-A9FE-7240E615272A";
paths = (
{
closed = 1;
nodes = (
"532 -85 LINE",
"167 700 LINE",
"33 700 LINE",
"398 -85 LINE"
);
}
);
width = 551;
}
);
unicode = 005C;
},
{
glyphname = periodcentered;
lastChange = "2016-08-25 20:31:12 +0000";
layers = (
{
layerId = UUID0;
paths = (
{
closed = 1;
nodes = (
"181 213 LINE",
"181 343 LINE",
"57 343 LINE",
"57 213 LINE"
);
}
);
width = 238;
},
{
layerId = "7C863538-AAB4-42AD-A9FE-7240E615272A";
paths = (
{
closed = 1;
nodes = (
"178 213 LINE",
"178 343 LINE",
"54 343 LINE",
"54 213 LINE"
);
}
);
width = 232;
}
);
unicode = 00B7;
},
{
glyphname = bullet;
lastChange = "2016-08-25 20:31:12 +0000";
layers = (
{
layerId = UUID0;
paths = (
{
closed = 1;
nodes = (
"153 169 LINE",
"213 169 OFFCURVE",
"262 218 OFFCURVE",
"262 278 CURVE SMOOTH",
"262 338 OFFCURVE",
"213 387 OFFCURVE",
"153 387 CURVE SMOOTH",
"93 387 OFFCURVE",
"44 338 OFFCURVE",
"44 278 CURVE SMOOTH",
"44 218 OFFCURVE",
"93 169 OFFCURVE",
"153 169 CURVE SMOOTH"
);
}
);
width = 306;
},
{
layerId = "7C863538-AAB4-42AD-A9FE-7240E615272A";
paths = (
{
closed = 1;
nodes = (
"149 169 LINE",
"209 169 OFFCURVE",
"258 218 OFFCURVE",
"258 278 CURVE SMOOTH",
"258 338 OFFCURVE",
"209 387 OFFCURVE",
"149 387 CURVE SMOOTH",
"89 387 OFFCURVE",
"40 338 OFFCURVE",
"40 278 CURVE SMOOTH",
"40 218 OFFCURVE",
"89 169 OFFCURVE",
"149 169 CURVE SMOOTH"
);
}
);
width = 298;
}
);
unicode = 2022;
},
{
glyphname = colon;
lastChange = "2016-08-25 20:31:12 +0000";
layers = (
{
layerId = UUID0;
paths = (
{
closed = 1;
nodes = (
"147 354 LINE",
"147 440 LINE",
"57 440 LINE",
"57 354 LINE"
);
},
{
closed = 1;
nodes = (
"147 0 LINE",
"147 86 LINE",
"57 86 LINE",
"57 0 LINE"
);
}
);
width = 204;
},
{
layerId = "7C863538-AAB4-42AD-A9FE-7240E615272A";
paths = (
{
closed = 1;
nodes = (
"178 310 LINE",
"178 440 LINE",
"54 440 LINE",
"54 310 LINE"
);
},
{
closed = 1;
nodes = (
"178 0 LINE",
"178 130 LINE",
"54 130 LINE",
"54 0 LINE"
);
}
);
width = 232;
}
);
unicode = 003A;
},
{
glyphname = comma;
lastChange = "2016-08-25 20:31:12 +0000";
layers = (
{
layerId = UUID0;
paths = (
{
closed = 1;
nodes = (
"158 0 LINE",
"158 86 LINE",
"58 86 LINE",
"58 0 LINE",
"92 -9 LINE",
"57 -96 LINE",
"80 -109 LINE"
);
}
);
width = 216;
},
{
layerId = "7C863538-AAB4-42AD-A9FE-7240E615272A";
paths = (
{
closed = 1;
nodes = (
"178 0 LINE",
"178 130 LINE",
"54 130 LINE",
"54 0 LINE",
"87 -10 LINE",
"54 -96 LINE",
"80 -110 LINE"
);
}
);
width = 232;
}
);
unicode = 002C;
},
{
glyphname = ellipsis;
lastChange = "2016-08-25 20:31:12 +0000";
layers = (
{
layerId = UUID0;
paths = (
{
closed = 1;
nodes = (
"147 0 LINE",
"147 86 LINE",
"57 86 LINE",
"57 0 LINE"
);
},
{
closed = 1;
nodes = (
"383 0 LINE",
"383 86 LINE",
"293 86 LINE",
"293 0 LINE"
);
},
{
closed = 1;
nodes = (
"619 0 LINE",
"619 86 LINE",
"529 86 LINE",
"529 0 LINE"
);
}
);
width = 676;
},
{
layerId = "7C863538-AAB4-42AD-A9FE-7240E615272A";
paths = (
{
closed = 1;
nodes = (
"178 0 LINE",
"178 130 LINE",
"54 130 LINE",
"54 0 LINE"
);
},
{
closed = 1;
nodes = (
"414 0 LINE",
"414 130 LINE",
"290 130 LINE",
"290 0 LINE"
);
},
{
closed = 1;
nodes = (
"650 0 LINE",
"650 130 LINE",
"526 130 LINE",
"526 0 LINE"
);
}
);
width = 704;
}
);
leftKerningGroup = period;
unicode = 2026;
},
{
glyphname = exclam;
lastChange = "2016-08-25 20:31:12 +0000";
layers = (
{
layerId = UUID0;
paths = (
{
closed = 1;
nodes = (
"183 750 LINE",
"59 750 LINE",
"89 200 LINE",
"153 200 LINE"
);
},
{
closed = 1;
nodes = (
"163 0 LINE",
"163 86 LINE",
"79 86 LINE",
"79 0 LINE"
);
}
);
width = 242;
},
{
layerId = "7C863538-AAB4-42AD-A9FE-7240E615272A";
paths = (
{
closed = 1;
nodes = (
"187 750 LINE",
"63 750 LINE",
"83 200 LINE",
"167 200 LINE"
);
},
{
closed = 1;
nodes = (
"187 0 LINE",
"187 124 LINE",
"63 124 LINE",
"63 0 LINE"
);
}
);
width = 250;
}
);
unicode = 0021;
},
{
glyphname = exclamdown;
lastChange = "2016-08-25 20:31:12 +0000";
layers = (
{
layerId = UUID0;
paths = (
{
closed = 1;
nodes = (
"50 -250 LINE",
"174 -250 LINE",
"144 300 LINE",
"80 300 LINE"
);
},
{
closed = 1;
nodes = (
"70 500 LINE",
"70 414 LINE",
"154 414 LINE",
"154 500 LINE"
);
}
);
width = 224;
},
{
layerId = "7C863538-AAB4-42AD-A9FE-7240E615272A";
paths = (
{
closed = 1;
nodes = (
"53 -250 LINE",
"177 -250 LINE",
"157 300 LINE",
"73 300 LINE"
);
},
{
closed = 1;
nodes = (
"53 500 LINE",
"53 376 LINE",
"177 376 LINE",
"177 500 LINE"
);
}
);
width = 230;
}
);
unicode = 00A1;
},
{
glyphname = numbersign;
lastChange = "2016-08-25 20:31:12 +0000";
layers = (
{
layerId = UUID0;
paths = (
{
closed = 1;
nodes = (
"672 507 LINE",
"559 507 LINE",
"633 700 LINE",
"553 700 LINE",
"478 507 LINE",
"345 507 LINE",
"420 700 LINE",
"339 700 LINE",
"265 507 LINE",
"136 507 LINE",
"107 422 LINE",
"233 422 LINE",
"188 307 LINE",
"73 307 LINE",
"33 216 LINE",
"153 216 LINE",
"67 -11 LINE",
"147 -11 LINE",
"234 216 LINE",
"367 216 LINE",
"280 -11 LINE",
"361 -11 LINE",
"447 216 LINE",
"569 216 LINE",
"610 307 LINE",
"482 307 LINE",
"527 422 LINE",
"643 422 LINE"
);
},
{
closed = 1;
nodes = (
"446 422 LINE",
"401 307 LINE",
"269 307 LINE",
"314 422 LINE"
);
}
);
width = 704;
},
{
layerId = "7C863538-AAB4-42AD-A9FE-7240E615272A";
paths = (
{
closed = 1;
nodes = (
"678 512 LINE",
"567 512 LINE",
"639 700 LINE",
"545 700 LINE",
"473 512 LINE",
"359 512 LINE",
"431 700 LINE",
"337 700 LINE",
"263 512 LINE",
"137 512 LINE",
"105 414 LINE",
"226 414 LINE",
"189 315 LINE",
"77 315 LINE",
"31 211 LINE",
"149 211 LINE",
"65 -11 LINE",
"159 -11 LINE",
"245 211 LINE",
"357 211 LINE",
"273 -11 LINE",
"369 -11 LINE",
"453 211 LINE",
"570 211 LINE",
"618 315 LINE",
"493 315 LINE",
"530 414 LINE",
"644 414 LINE"
);
},
{
closed = 1;
nodes = (
"436 414 LINE",
"397 315 LINE",
"283 315 LINE",
"322 414 LINE"
);
}
);
width = 710;
}
);
unicode = 0023;
},
{
glyphname = period;
lastChange = "2016-08-25 20:31:12 +0000";
layers = (
{
layerId = UUID0;
paths = (
{
closed = 1;
nodes = (
"147 0 LINE",
"147 86 LINE",
"57 86 LINE",
"57 0 LINE"
);
}
);
width = 204;
},
{
layerId = "7C863538-AAB4-42AD-A9FE-7240E615272A";
paths = (
{
closed = 1;
nodes = (
"178 0 LINE",
"178 130 LINE",
"54 130 LINE",
"54 0 LINE"
);
}
);
width = 232;
}
);
leftKerningGroup = period;
unicode = 002E;
},
{
glyphname = question;
lastChange = "2016-08-25 20:31:12 +0000";
layers = (
{
layerId = UUID0;
paths = (
{
closed = 1;
nodes = (
"226 200 LINE",
"226 227 LINE SMOOTH",
"226 332 OFFCURVE",
"397 436 OFFCURVE",
"397 563 CURVE SMOOTH",
"397 645 OFFCURVE",
"325 750 OFFCURVE",
"189 750 CURVE SMOOTH",
"116 750 OFFCURVE",
"54 720 OFFCURVE",
"30 683 CURVE",
"55 616 LINE",
"67 641 OFFCURVE",
"120 684 OFFCURVE",
"186 684 CURVE SMOOTH",
"248 684 OFFCURVE",
"314 646 OFFCURVE",
"314 561 CURVE SMOOTH",
"314 433 OFFCURVE",
"164 369 OFFCURVE",
"164 245 CURVE SMOOTH",
"164 242 OFFCURVE",
"165 227 OFFCURVE",
"167 200 CURVE"
);
},
{
closed = 1;
nodes = (
"244 0 LINE",
"244 86 LINE",
"153 86 LINE",
"153 0 LINE"
);
}
);
width = 441;
},
{
layerId = "7C863538-AAB4-42AD-A9FE-7240E615272A";
paths = (
{
closed = 1;
nodes = (
"244 200 LINE",
"244 213 LINE SMOOTH",
"244 357 OFFCURVE",
"399 439 OFFCURVE",
"399 560 CURVE SMOOTH",
"399 640 OFFCURVE",
"332 750 OFFCURVE",
"189 750 CURVE SMOOTH",
"125 750 OFFCURVE",
"62 728 OFFCURVE",
"29 679 CURVE",
"57 587 LINE",
"82 622 OFFCURVE",
"124 652 OFFCURVE",
"181 652 CURVE SMOOTH",
"238 652 OFFCURVE",
"282 623 OFFCURVE",
"282 559 CURVE SMOOTH",
"282 451 OFFCURVE",
"157 378 OFFCURVE",
"157 253 CURVE SMOOTH",
"157 249 OFFCURVE",
"157 245 OFFCURVE",
"160 200 CURVE"
);
},
{
closed = 1;
nodes = (
"264 0 LINE",
"264 124 LINE",
"140 124 LINE",
"140 0 LINE"
);
}
);
width = 442;
}
);
unicode = 003F;
},
{
glyphname = questiondown;
lastChange = "2016-08-25 20:31:12 +0000";
layers = (
{
layerId = UUID0;
paths = (
{
closed = 1;
nodes = (
"233 300 LINE",
"233 273 LINE SMOOTH",
"233 168 OFFCURVE",
"62 64 OFFCURVE",
"62 -63 CURVE SMOOTH",
"62 -145 OFFCURVE",
"134 -250 OFFCURVE",
"270 -250 CURVE SMOOTH",
"343 -250 OFFCURVE",
"405 -220 OFFCURVE",
"429 -183 CURVE",
"404 -116 LINE",
"392 -141 OFFCURVE",
"339 -184 OFFCURVE",
"273 -184 CURVE SMOOTH",
"211 -184 OFFCURVE",
"145 -146 OFFCURVE",
"145 -61 CURVE SMOOTH",
"145 67 OFFCURVE",
"295 131 OFFCURVE",
"295 255 CURVE SMOOTH",
"295 258 OFFCURVE",
"294 273 OFFCURVE",
"292 300 CURVE"
);
},
{
closed = 1;
nodes = (
"215 500 LINE",
"215 414 LINE",
"306 414 LINE",
"306 500 LINE"
);
}
);
width = 449;
},
{
layerId = "7C863538-AAB4-42AD-A9FE-7240E615272A";
paths = (
{
closed = 1;
nodes = (
"201 300 LINE",
"201 287 LINE SMOOTH",
"201 143 OFFCURVE",
"46 61 OFFCURVE",
"46 -60 CURVE SMOOTH",
"46 -140 OFFCURVE",
"113 -250 OFFCURVE",
"256 -250 CURVE SMOOTH",
"320 -250 OFFCURVE",
"383 -228 OFFCURVE",
"416 -179 CURVE",
"388 -87 LINE",
"363 -122 OFFCURVE",
"321 -152 OFFCURVE",
"264 -152 CURVE SMOOTH",
"207 -152 OFFCURVE",
"163 -123 OFFCURVE",
"163 -59 CURVE SMOOTH",
"163 49 OFFCURVE",
"288 122 OFFCURVE",
"288 247 CURVE SMOOTH",
"288 251 OFFCURVE",
"288 255 OFFCURVE",
"285 300 CURVE"
);
},
{
closed = 1;
nodes = (
"181 500 LINE",
"181 376 LINE",
"305 376 LINE",
"305 500 LINE"
);
}
);
width = 438;
}
);
unicode = 00BF;
},
{
glyphname = quotedbl;
lastChange = "2016-08-25 20:31:12 +0000";
layers = (
{
layerId = UUID0;
paths = (
{
closed = 1;
nodes = (
"362 750 LINE",
"270 750 LINE",
"290 450 LINE",
"342 450 LINE"
);
},
{
closed = 1;
nodes = (
"134 750 LINE",
"40 750 LINE",
"60 450 LINE",
"114 450 LINE"
);
}
);
width = 402;
},
{
layerId = "7C863538-AAB4-42AD-A9FE-7240E615272A";
paths = (
{
closed = 1;
nodes = (
"360 750 LINE",
"236 750 LINE",
"256 450 LINE",
"340 450 LINE"
);
},
{
closed = 1;
nodes = (
"160 750 LINE",
"36 750 LINE",
"56 450 LINE",
"140 450 LINE"
);
}
);
width = 396;
}
);
leftKerningGroup = quotesingle;
rightKerningGroup = quotesingle;
unicode = 0022;
},
{
glyphname = quotesingle;
lastChange = "2016-08-25 20:31:12 +0000";
layers = (
{
layerId = UUID0;
paths = (
{
closed = 1;
nodes = (
"141 750 LINE",
"41 750 LINE",
"59 450 LINE",
"123 450 LINE"
);
}
);
width = 182;
},
{
layerId = "7C863538-AAB4-42AD-A9FE-7240E615272A";
paths = (
{
closed = 1;
nodes = (
"160 750 LINE",
"36 750 LINE",
"56 450 LINE",
"140 450 LINE"
);
}
);
width = 196;
}
);
leftKerningGroup = quotesingle;
rightKerningGroup = quotesingle;
unicode = 0027;
},
{
glyphname = semicolon;
lastChange = "2016-08-25 20:31:12 +0000";
layers = (
{
layerId = UUID0;
paths = (
{
closed = 1;
nodes = (
"158 354 LINE",
"158 440 LINE",
"58 440 LINE",
"58 354 LINE"
);
},
{
closed = 1;
nodes = (
"158 -1 LINE",
"158 86 LINE",
"58 86 LINE",
"58 0 LINE",
"92 -9 LINE",
"57 -96 LINE",
"80 -109 LINE"
);
}
);
width = 216;
},
{
layerId = "7C863538-AAB4-42AD-A9FE-7240E615272A";
paths = (
{
closed = 1;
nodes = (
"193 310 LINE",
"193 440 LINE",
"56 440 LINE",
"56 310 LINE"
);
},
{
closed = 1;
nodes = (
"180 0 LINE",
"180 130 LINE",
"56 130 LINE",
"56 0 LINE",
"89 -10 LINE",
"56 -96 LINE",
"82 -110 LINE"
);
}
);
width = 247;
}
);
unicode = 003B;
},
{
glyphname = slash;
lastChange = "2016-08-25 20:31:12 +0000";
layers = (
{
layerId = UUID0;
paths = (
{
closed = 1;
nodes = (
"497 700 LINE",
"397 700 LINE",
"19 -85 LINE",
"119 -85 LINE"
);
}
);
width = 532;
},
{
layerId = "7C863538-AAB4-42AD-A9FE-7240E615272A";
paths = (
{
closed = 1;
nodes = (
"518 700 LINE",
"384 700 LINE",
"19 -85 LINE",
"153 -85 LINE"
);
}
);
width = 551;
}
);
unicode = 002F;
},
{
glyphname = underscore;
lastChange = "2016-08-25 20:31:12 +0000";
layers = (
{
layerId = UUID0;
paths = (
{
closed = 1;
nodes = (
"563 -122 LINE",
"563 -36 LINE",
"3 -36 LINE",
"3 -122 LINE"
);
}
);
width = 566;
},
{
layerId = "7C863538-AAB4-42AD-A9FE-7240E615272A";
paths = (
{
closed = 1;
nodes = (
"559 -130 LINE",
"559 -36 LINE",
"-1 -36 LINE",
"-1 -130 LINE"
);
}
);
width = 558;
}
);
unicode = 005F;
},
{
glyphname = braceleft;
lastChange = "2016-08-25 20:31:12 +0000";
layers = (
{
layerId = UUID0;
paths = (
{
closed = 1;
nodes = (
"83 14 LINE",
"83 -79 OFFCURVE",
"139 -130 OFFCURVE",
"297 -135 CURVE",
"297 -66 LINE",
"162 -62 OFFCURVE",
"156 -24 OFFCURVE",
"156 105 CURVE SMOOTH",
"156 139 OFFCURVE",
"159 170 OFFCURVE",
"159 199 CURVE SMOOTH",
"159 239 OFFCURVE",
"151 266 OFFCURVE",
"76 307 CURVE",
"151 349 OFFCURVE",
"159 381 OFFCURVE",
"159 424 CURVE SMOOTH",
"159 452 OFFCURVE",
"156 483 OFFCURVE",
"156 510 CURVE SMOOTH",
"156 639 OFFCURVE",
"162 677 OFFCURVE",
"297 681 CURVE",
"297 750 LINE",
"134 745 OFFCURVE",
"83 690 OFFCURVE",
"83 600 CURVE SMOOTH",
"83 560 OFFCURVE",
"91 503 OFFCURVE",
"91 456 CURVE SMOOTH",
"91 383 OFFCURVE",
"70 341 OFFCURVE",
"19 307 CURVE",
"74 272 OFFCURVE",
"91 227 OFFCURVE",
"91 159 CURVE SMOOTH",
"91 111 OFFCURVE",
"83 54 OFFCURVE",
"83 14 CURVE SMOOTH"
);
}
);
width = 299;
},
{
layerId = "7C863538-AAB4-42AD-A9FE-7240E615272A";
paths = (
{
closed = 1;
nodes = (
"89 29 LINE",
"89 -82 OFFCURVE",
"148 -136 OFFCURVE",
"307 -136 CURVE",
"307 -27 LINE",
"188 -27 OFFCURVE",
"187 -10 OFFCURVE",
"187 115 CURVE SMOOTH",
"187 147 OFFCURVE",
"190 177 OFFCURVE",
"190 204 CURVE SMOOTH",
"190 246 OFFCURVE",
"182 281 OFFCURVE",
"139 307 CURVE",
"182 334 OFFCURVE",
"190 375 OFFCURVE",
"190 418 CURVE SMOOTH",
"190 445 OFFCURVE",
"187 474 OFFCURVE",
"187 500 CURVE SMOOTH",
"187 624 OFFCURVE",
"188 641 OFFCURVE",
"307 641 CURVE",
"307 750 LINE",
"142 750 OFFCURVE",
"89 691 OFFCURVE",
"89 585 CURVE SMOOTH",
"89 547 OFFCURVE",
"96 493 OFFCURVE",
"96 449 CURVE SMOOTH",
"96 372 OFFCURVE",
"74 339 OFFCURVE",
"14 307 CURVE",
"78 274 OFFCURVE",
"96 237 OFFCURVE",
"96 166 CURVE SMOOTH",
"96 121 OFFCURVE",
"89 67 OFFCURVE",
"89 29 CURVE SMOOTH"
);
}
);
width = 319;
}
);
unicode = 007B;
},
{
glyphname = braceright;
lastChange = "2016-08-25 20:31:12 +0000";
layers = (
{
layerId = UUID0;
paths = (
{
closed = 1;
nodes = (
"160 -130 OFFCURVE",
"216 -79 OFFCURVE",
"216 14 CURVE",
"216 14 LINE SMOOTH",
"216 54 OFFCURVE",
"208 111 OFFCURVE",
"208 159 CURVE SMOOTH",
"208 227 OFFCURVE",
"225 272 OFFCURVE",
"280 307 CURVE",
"229 341 OFFCURVE",
"208 383 OFFCURVE",
"208 456 CURVE SMOOTH",
"208 503 OFFCURVE",
"216 560 OFFCURVE",
"216 600 CURVE SMOOTH",
"216 690 OFFCURVE",
"165 745 OFFCURVE",
"2 750 CURVE",
"2 681 LINE",
"137 677 OFFCURVE",
"143 639 OFFCURVE",
"143 510 CURVE SMOOTH",
"143 483 OFFCURVE",
"140 452 OFFCURVE",
"140 424 CURVE SMOOTH",
"140 381 OFFCURVE",
"148 349 OFFCURVE",
"223 307 CURVE",
"148 266 OFFCURVE",
"140 239 OFFCURVE",
"140 199 CURVE SMOOTH",
"140 170 OFFCURVE",
"143 139 OFFCURVE",
"143 105 CURVE SMOOTH",
"143 -24 OFFCURVE",
"137 -62 OFFCURVE",
"2 -66 CURVE",
"2 -135 LINE"
);
}
);
width = 299;
},
{
layerId = "7C863538-AAB4-42AD-A9FE-7240E615272A";
paths = (
{
closed = 1;
nodes = (
"171 -136 OFFCURVE",
"230 -82 OFFCURVE",
"230 29 CURVE",
"230 29 LINE SMOOTH",
"230 67 OFFCURVE",
"223 121 OFFCURVE",
"223 166 CURVE SMOOTH",
"223 237 OFFCURVE",
"241 274 OFFCURVE",
"305 307 CURVE",
"245 339 OFFCURVE",
"223 372 OFFCURVE",
"223 449 CURVE SMOOTH",
"223 493 OFFCURVE",
"230 547 OFFCURVE",
"230 585 CURVE SMOOTH",
"230 691 OFFCURVE",
"177 750 OFFCURVE",
"12 750 CURVE",
"12 641 LINE",
"131 641 OFFCURVE",
"132 624 OFFCURVE",
"132 500 CURVE SMOOTH",
"132 474 OFFCURVE",
"129 445 OFFCURVE",
"129 418 CURVE SMOOTH",
"129 375 OFFCURVE",
"137 334 OFFCURVE",
"180 307 CURVE",
"137 281 OFFCURVE",
"129 246 OFFCURVE",
"129 204 CURVE SMOOTH",
"129 177 OFFCURVE",
"132 147 OFFCURVE",
"132 115 CURVE SMOOTH",
"132 -10 OFFCURVE",
"131 -27 OFFCURVE",
"12 -27 CURVE",
"12 -136 LINE"
);
}
);
width = 319;
}
);
unicode = 007D;
},
{
glyphname = bracketleft;
lastChange = "2016-08-25 20:31:12 +0000";
layers = (
{
layerId = UUID0;
paths = (
{
closed = 1;
nodes = (
"327 -135 LINE",
"327 -67 LINE",
"153 -67 LINE",
"153 682 LINE",
"327 682 LINE",
"327 750 LINE",
"70 750 LINE",
"70 -135 LINE"
);
}
);
width = 327;
},
{
layerId = "7C863538-AAB4-42AD-A9FE-7240E615272A";
paths = (
{
closed = 1;
nodes = (
"324 -136 LINE",
"324 -27 LINE",
"180 -27 LINE",
"180 641 LINE",
"324 641 LINE",
"324 750 LINE",
"67 750 LINE",
"67 -136 LINE"
);
}
);
width = 335;
}
);
unicode = 005B;
},
{
glyphname = bracketright;
lastChange = "2016-08-25 20:31:12 +0000";
layers = (
{
layerId = UUID0;
paths = (
{
closed = 1;
nodes = (
"263 -135 LINE",
"263 750 LINE",
"6 750 LINE",
"6 666 LINE",
"180 666 LINE",
"180 -51 LINE",
"6 -51 LINE",
"6 -135 LINE"
);
}
);
width = 333;
},
{
layerId = "7C863538-AAB4-42AD-A9FE-7240E615272A";
paths = (
{
closed = 1;
nodes = (
"273 -136 LINE",
"273 750 LINE",
"16 750 LINE",
"16 626 LINE",
"160 626 LINE",
"160 -12 LINE",
"16 -12 LINE",
"16 -136 LINE"
);
}
);
width = 340;
}
);
unicode = 005D;
},
{
glyphname = parenleft;
lastChange = "2016-08-25 20:31:12 +0000";
layers = (
{
layerId = UUID0;
paths = (
{
closed = 1;
nodes = (
"237 -136 LINE",
"168 -24 OFFCURVE",
"114 116 OFFCURVE",
"114 307 CURVE SMOOTH",
"114 498 OFFCURVE",
"168 638 OFFCURVE",
"237 750 CURVE",
"158 750 LINE",
"87 642 OFFCURVE",
"42 518 OFFCURVE",
"42 307 CURVE SMOOTH",
"42 96 OFFCURVE",
"87 -28 OFFCURVE",
"158 -136 CURVE"
);
}
);
width = 261;
},
{
layerId = "7C863538-AAB4-42AD-A9FE-7240E615272A";
paths = (
{
closed = 1;
nodes = (
"255 -136 LINE",
"193 -27 OFFCURVE",
"142 111 OFFCURVE",
"142 307 CURVE SMOOTH",
"142 503 OFFCURVE",
"193 641 OFFCURVE",
"255 750 CURVE",
"142 750 LINE",
"80 641 OFFCURVE",
"41 518 OFFCURVE",
"41 307 CURVE SMOOTH",
"41 96 OFFCURVE",
"80 -27 OFFCURVE",
"142 -136 CURVE"
);
}
);
width = 277;
}
);
unicode = 0028;
},
{
glyphname = parenright;
lastChange = "2016-08-25 20:31:12 +0000";
layers = (
{
layerId = UUID0;
paths = (
{
closed = 1;
nodes = (
"103 -136 LINE",
"174 -28 OFFCURVE",
"219 96 OFFCURVE",
"219 307 CURVE SMOOTH",
"219 518 OFFCURVE",
"174 642 OFFCURVE",
"103 750 CURVE",
"24 750 LINE",
"93 638 OFFCURVE",
"147 498 OFFCURVE",
"147 307 CURVE SMOOTH",
"147 116 OFFCURVE",
"93 -24 OFFCURVE",
"24 -136 CURVE"
);
}
);
width = 261;
},
{
layerId = "7C863538-AAB4-42AD-A9FE-7240E615272A";
paths = (
{
closed = 1;
nodes = (
"135 -136 LINE",
"197 -27 OFFCURVE",
"236 96 OFFCURVE",
"236 307 CURVE SMOOTH",
"236 518 OFFCURVE",
"197 641 OFFCURVE",
"135 750 CURVE",
"22 750 LINE",
"84 641 OFFCURVE",
"135 503 OFFCURVE",
"135 307 CURVE SMOOTH",
"135 111 OFFCURVE",
"84 -27 OFFCURVE",
"22 -136 CURVE"
);
}
);
width = 277;
}
);
unicode = 0029;
},
{
glyphname = emdash;
lastChange = "2016-08-25 20:31:12 +0000";
layers = (
{
layerId = UUID0;
paths = (
{
closed = 1;
nodes = (
"537 238 LINE",
"537 324 LINE",
"57 324 LINE",
"57 238 LINE"
);
}
);
width = 594;
},
{
layerId = "7C863538-AAB4-42AD-A9FE-7240E615272A";
paths = (
{
closed = 1;
nodes = (
"534 230 LINE",
"534 324 LINE",
"54 324 LINE",
"54 230 LINE"
);
}
);
width = 588;
}
);
leftKerningGroup = hyphen;
rightKerningGroup = hyphen;
unicode = 2014;
},
{
glyphname = endash;
lastChange = "2016-08-25 20:31:12 +0000";
layers = (
{
layerId = UUID0;
paths = (
{
closed = 1;
nodes = (
"445 238 LINE",
"445 324 LINE",
"57 324 LINE",
"57 238 LINE"
);
}
);
width = 502;
},
{
layerId = "7C863538-AAB4-42AD-A9FE-7240E615272A";
paths = (
{
closed = 1;
nodes = (
"442 230 LINE",
"442 324 LINE",
"54 324 LINE",
"54 230 LINE"
);
}
);
width = 496;
}
);
leftKerningGroup = hyphen;
rightKerningGroup = hyphen;
unicode = 2013;
},
{
glyphname = hyphen;
lastChange = "2016-08-25 20:31:12 +0000";
layers = (
{
layerId = UUID0;
paths = (
{
closed = 1;
nodes = (
"367 238 LINE",
"367 324 LINE",
"57 324 LINE",
"57 238 LINE"
);
}
);
width = 424;
},
{
layerId = "7C863538-AAB4-42AD-A9FE-7240E615272A";
paths = (
{
closed = 1;
nodes = (
"364 230 LINE",
"364 324 LINE",
"54 324 LINE",
"54 230 LINE"
);
}
);
width = 418;
}
);
leftKerningGroup = hyphen;
rightKerningGroup = hyphen;
unicode = 002D;
},
{
glyphname = softhyphen;
lastChange = "2016-08-23 10:40:18 +0000";
layers = (
{
layerId = UUID0;
paths = (
{
closed = 1;
nodes = (
"377 230 LINE",
"377 324 LINE",
"67 324 LINE",
"67 230 LINE"
);
}
);
width = 444;
},
{
layerId = "7C863538-AAB4-42AD-A9FE-7240E615272A";
paths = (
{
closed = 1;
nodes = (
"377 230 LINE",
"377 324 LINE",
"67 324 LINE",
"67 230 LINE"
);
}
);
width = 444;
}
);
unicode = 00AD;
},
{
glyphname = guillemetleft;
lastChange = "2016-08-23 10:40:18 +0000";
layers = (
{
layerId = UUID0;
paths = (
{
closed = 1;
nodes = (
"518 78 LINE",
"370 284 LINE",
"518 490 LINE",
"417 490 LINE",
"270 284 LINE",
"417 78 LINE"
);
},
{
closed = 1;
nodes = (
"257 78 LINE",
"110 284 LINE",
"257 490 LINE",
"157 490 LINE",
"10 284 LINE",
"157 78 LINE"
);
}
);
width = 607;
},
{
layerId = "7C863538-AAB4-42AD-A9FE-7240E615272A";
paths = (
{
closed = 1;
nodes = (
"570 78 LINE",
"418 284 LINE",
"570 490 LINE",
"423 490 LINE",
"271 284 LINE",
"423 78 LINE"
);
},
{
closed = 1;
nodes = (
"310 78 LINE",
"158 284 LINE",
"310 490 LINE",
"163 490 LINE",
"11 284 LINE",
"163 78 LINE"
);
}
);
width = 607;
}
);
leftKerningGroup = guilsinglleft;
rightKerningGroup = guilsinglleft;
unicode = 00AB;
},
{
glyphname = guillemetright;
lastChange = "2016-08-23 10:40:18 +0000";
layers = (
{
layerId = UUID0;
paths = (
{
closed = 1;
nodes = (
"595 284 LINE",
"448 490 LINE",
"348 490 LINE",
"495 284 LINE",
"348 78 LINE",
"448 78 LINE"
);
},
{
closed = 1;
nodes = (
"336 284 LINE",
"189 490 LINE",
"88 490 LINE",
"236 284 LINE",
"88 78 LINE",
"189 78 LINE"
);
}
);
width = 607;
},
{
layerId = "7C863538-AAB4-42AD-A9FE-7240E615272A";
paths = (
{
closed = 1;
nodes = (
"596 284 LINE",
"444 490 LINE",
"297 490 LINE",
"449 284 LINE",
"297 78 LINE",
"444 78 LINE"
);
},
{
closed = 1;
nodes = (
"336 284 LINE",
"184 490 LINE",
"37 490 LINE",
"189 284 LINE",
"37 78 LINE",
"184 78 LINE"
);
}
);
width = 607;
}
);
leftKerningGroup = guilsinglright;
rightKerningGroup = guilsinglright;
unicode = 00BB;
},
{
glyphname = guilsinglleft;
lastChange = "2016-08-25 20:31:12 +0000";
layers = (
{
layerId = UUID0;
paths = (
{
closed = 1;
nodes = (
"282 78 LINE",
"123 284 LINE",
"282 490 LINE",
"173 490 LINE",
"14 284 LINE",
"173 78 LINE"
);
}
);
width = 322;
},
{
layerId = "7C863538-AAB4-42AD-A9FE-7240E615272A";
paths = (
{
closed = 1;
nodes = (
"310 78 LINE",
"158 284 LINE",
"310 490 LINE",
"163 490 LINE",
"11 284 LINE",
"163 78 LINE"
);
}
);
width = 347;
}
);
leftKerningGroup = guilsinglleft;
rightKerningGroup = guilsinglleft;
unicode = 2039;
},
{
glyphname = guilsinglright;
lastChange = "2016-08-25 20:31:12 +0000";
layers = (
{
layerId = UUID0;
paths = (
{
closed = 1;
nodes = (
"309 284 LINE",
"150 490 LINE",
"41 490 LINE",
"200 284 LINE",
"41 78 LINE",
"150 78 LINE"
);
}
);
width = 323;
},
{
layerId = "7C863538-AAB4-42AD-A9FE-7240E615272A";
paths = (
{
closed = 1;
nodes = (
"336 284 LINE",
"184 490 LINE",
"37 490 LINE",
"189 284 LINE",
"37 78 LINE",
"184 78 LINE"
);
}
);
width = 347;
}
);
leftKerningGroup = guilsinglright;
rightKerningGroup = guilsinglright;
unicode = 203A;
},
{
glyphname = quotedblbase;
lastChange = "2016-08-25 20:31:12 +0000";
layers = (
{
layerId = UUID0;
paths = (
{
closed = 1;
nodes = (
"158 0 LINE",
"158 86 LINE",
"58 86 LINE",
"58 0 LINE",
"92 -9 LINE",
"57 -96 LINE",
"80 -109 LINE"
);
},
{
closed = 1;
nodes = (
"388 0 LINE",
"388 86 LINE",
"288 86 LINE",
"288 0 LINE",
"322 -9 LINE",
"287 -96 LINE",
"310 -109 LINE"
);
}
);
width = 446;
},
{
layerId = "7C863538-AAB4-42AD-A9FE-7240E615272A";
paths = (
{
closed = 1;
nodes = (
"178 0 LINE",
"178 130 LINE",
"54 130 LINE",
"54 0 LINE",
"87 -10 LINE",
"54 -96 LINE",
"80 -110 LINE"
);
},
{
closed = 1;
nodes = (
"408 0 LINE",
"408 130 LINE",
"284 130 LINE",
"284 0 LINE",
"317 -10 LINE",
"284 -96 LINE",
"310 -110 LINE"
);
}
);
width = 462;
}
);
leftKerningGroup = quotesinglbase;
rightKerningGroup = quotesinglbase;
unicode = 201E;
},
{
glyphname = quotedblleft;
lastChange = "2016-08-25 20:31:12 +0000";
layers = (
{
layerId = UUID0;
paths = (
{
closed = 1;
nodes = (
"43 641 LINE",
"43 555 LINE",
"143 555 LINE",
"143 641 LINE",
"109 650 LINE",
"144 737 LINE",
"121 750 LINE"
);
},
{
closed = 1;
nodes = (
"253 641 LINE",
"253 555 LINE",
"353 555 LINE",
"353 641 LINE",
"319 650 LINE",
"354 737 LINE",
"331 750 LINE"
);
}
);
width = 396;
},
{
layerId = "7C863538-AAB4-42AD-A9FE-7240E615272A";
paths = (
{
closed = 1;
nodes = (
"43 640 LINE",
"43 510 LINE",
"167 510 LINE",
"167 640 LINE",
"134 650 LINE",
"167 736 LINE",
"141 750 LINE"
);
},
{
closed = 1;
nodes = (
"253 640 LINE",
"253 510 LINE",
"377 510 LINE",
"377 640 LINE",
"344 650 LINE",
"377 736 LINE",
"351 750 LINE"
);
}
);
width = 420;
}
);
leftKerningGroup = quoteleft;
rightKerningGroup = quoteleft;
unicode = 201C;
},
{
glyphname = quotedblright;
lastChange = "2016-08-25 20:31:12 +0000";
layers = (
{
layerId = UUID0;
paths = (
{
closed = 1;
nodes = (
"353 664 LINE",
"353 750 LINE",
"253 750 LINE",
"253 664 LINE",
"287 655 LINE",
"252 568 LINE",
"275 555 LINE"
);
},
{
closed = 1;
nodes = (
"143 664 LINE",
"143 750 LINE",
"43 750 LINE",
"43 664 LINE",
"77 655 LINE",
"42 568 LINE",
"65 555 LINE"
);
}
);
width = 379;
},
{
layerId = "7C863538-AAB4-42AD-A9FE-7240E615272A";
paths = (
{
closed = 1;
nodes = (
"375 620 LINE",
"375 750 LINE",
"251 750 LINE",
"251 620 LINE",
"284 610 LINE",
"251 524 LINE",
"277 510 LINE"
);
},
{
closed = 1;
nodes = (
"165 620 LINE",
"165 750 LINE",
"41 750 LINE",
"41 620 LINE",
"74 610 LINE",
"41 524 LINE",
"67 510 LINE"
);
}
);
width = 402;
}
);
leftKerningGroup = quoteright;
rightKerningGroup = quoteright;
unicode = 201D;
},
{
glyphname = quoteleft;
lastChange = "2016-08-25 20:31:12 +0000";
layers = (
{
layerId = UUID0;
paths = (
{
closed = 1;
nodes = (
"43 641 LINE",
"43 555 LINE",
"143 555 LINE",
"143 641 LINE",
"109 650 LINE",
"144 737 LINE",
"121 750 LINE"
);
}
);
width = 186;
},
{
layerId = "7C863538-AAB4-42AD-A9FE-7240E615272A";
paths = (
{
closed = 1;
nodes = (
"43 640 LINE",
"43 510 LINE",
"167 510 LINE",
"167 640 LINE",
"134 650 LINE",
"167 736 LINE",
"141 750 LINE"
);
}
);
width = 210;
}
);
leftKerningGroup = quoteleft;
rightKerningGroup = quoteleft;
unicode = 2018;
},
{
glyphname = quoteright;
lastChange = "2016-08-25 20:31:12 +0000";
layers = (
{
layerId = UUID0;
paths = (
{
closed = 1;
nodes = (
"143 664 LINE",
"143 750 LINE",
"43 750 LINE",
"43 664 LINE",
"77 655 LINE",
"42 568 LINE",
"65 555 LINE"
);
}
);
width = 169;
},
{
layerId = "7C863538-AAB4-42AD-A9FE-7240E615272A";
paths = (
{
closed = 1;
nodes = (
"165 620 LINE",
"165 750 LINE",
"41 750 LINE",
"41 620 LINE",
"74 610 LINE",
"41 524 LINE",
"67 510 LINE"
);
}
);
width = 192;
}
);
leftKerningGroup = quoteright;
rightKerningGroup = quoteright;
unicode = 2019;
},
{
glyphname = quotesinglbase;
lastChange = "2016-08-25 20:31:12 +0000";
layers = (
{
layerId = UUID0;
paths = (
{
closed = 1;
nodes = (
"158 0 LINE",
"158 86 LINE",
"58 86 LINE",
"58 0 LINE",
"92 -9 LINE",
"57 -96 LINE",
"80 -109 LINE"
);
}
);
width = 216;
},
{
layerId = "7C863538-AAB4-42AD-A9FE-7240E615272A";
paths = (
{
closed = 1;
nodes = (
"178 0 LINE",
"178 130 LINE",
"54 130 LINE",
"54 0 LINE",
"87 -10 LINE",
"54 -96 LINE",
"80 -110 LINE"
);
}
);
width = 232;
}
);
leftKerningGroup = quotesinglbase;
rightKerningGroup = quotesinglbase;
unicode = 201A;
},
{
glyphname = .notdef;
lastChange = "2016-08-25 20:31:12 +0000";
layers = (
{
layerId = UUID0;
paths = (
{
closed = 1;
nodes = (
"162 250 LINE",
"162 360 LINE",
"72 360 LINE",
"72 250 LINE"
);
}
);
width = 250;
},
{
layerId = "7C863538-AAB4-42AD-A9FE-7240E615272A";
paths = (
{
closed = 1;
nodes = (
"179 240 LINE",
"179 370 LINE",
"55 370 LINE",
"55 240 LINE"
);
}
);
width = 250;
}
);
},
{
glyphname = cent;
lastChange = "2016-08-25 20:31:12 +0000";
layers = (
{
layerId = UUID0;
paths = (
{
closed = 1;
nodes = (
"292 87 LINE",
"365 91 OFFCURVE",
"399 104 OFFCURVE",
"426 119 CURVE",
"418 197 LINE",
"378 176 OFFCURVE",
"338 165 OFFCURVE",
"291 165 CURVE SMOOTH",
"193 165 OFFCURVE",
"140 247 OFFCURVE",
"140 347 CURVE SMOOTH",
"140 448 OFFCURVE",
"193 531 OFFCURVE",
"291 531 CURVE SMOOTH",
"338 531 OFFCURVE",
"378 519 OFFCURVE",
"418 498 CURVE",
"426 576 LINE",
"398 592 OFFCURVE",
"364 604 OFFCURVE",
"290 608 CURVE",
"308 748 LINE",
"240 748 LINE",
"259 608 LINE",
"107 589 OFFCURVE",
"34 476 OFFCURVE",
"34 347 CURVE SMOOTH",
"34 219 OFFCURVE",
"106 107 OFFCURVE",
"257 87 CURVE",
"240 -31 LINE",
"308 -31 LINE"
);
}
);
width = 477;
},
{
layerId = "7C863538-AAB4-42AD-A9FE-7240E615272A";
paths = (
{
closed = 1;
nodes = (
"304 89 LINE",
"366 93 OFFCURVE",
"399 108 OFFCURVE",
"427 126 CURVE",
"416 232 LINE",
"375 205 OFFCURVE",
"335 191 OFFCURVE",
"287 191 CURVE SMOOTH",
"207 191 OFFCURVE",
"161 255 OFFCURVE",
"161 348 CURVE SMOOTH",
"161 441 OFFCURVE",
"207 505 OFFCURVE",
"287 505 CURVE SMOOTH",
"335 505 OFFCURVE",
"375 491 OFFCURVE",
"416 464 CURVE",
"427 570 LINE",
"398 588 OFFCURVE",
"365 603 OFFCURVE",
"302 606 CURVE",
"319 748 LINE",
"223 748 LINE",
"241 605 LINE",
"105 588 OFFCURVE",
"34 477 OFFCURVE",
"34 348 CURVE SMOOTH",
"34 219 OFFCURVE",
"104 109 OFFCURVE",
"239 91 CURVE",
"223 -32 LINE",
"319 -32 LINE"
);
}
);
width = 476;
}
);
unicode = 00A2;
},
{
glyphname = currency;
lastChange = "2016-08-25 20:31:12 +0000";
layers = (
{
layerId = UUID0;
paths = (
{
closed = 1;
nodes = (
"564 53 LINE",
"485 154 LINE",
"541 214 OFFCURVE",
"565 278 OFFCURVE",
"565 348 CURVE SMOOTH",
"565 417 OFFCURVE",
"542 481 OFFCURVE",
"486 540 CURVE",
"564 643 LINE",
"536 667 LINE",
"456 563 LINE",
"404 591 OFFCURVE",
"362 602 OFFCURVE",
"313 602 CURVE SMOOTH",
"264 602 OFFCURVE",
"222 591 OFFCURVE",
"169 564 CURVE",
"91 667 LINE",
"63 643 LINE",
"141 541 LINE",
"84 482 OFFCURVE",
"61 418 OFFCURVE",
"61 348 CURVE SMOOTH",
"61 278 OFFCURVE",
"84 214 OFFCURVE",
"140 155 CURVE",
"63 53 LINE",
"91 29 LINE",
"170 132 LINE",
"222 104 OFFCURVE",
"264 94 OFFCURVE",
"313 94 CURVE SMOOTH",
"362 94 OFFCURVE",
"404 104 OFFCURVE",
"456 132 CURVE",
"535 29 LINE"
);
},
{
closed = 1;
nodes = (
"313 540 LINE",
"419 540 OFFCURVE",
"475 455 OFFCURVE",
"475 348 CURVE SMOOTH",
"475 241 OFFCURVE",
"419 156 OFFCURVE",
"313 156 CURVE SMOOTH",
"207 156 OFFCURVE",
"151 241 OFFCURVE",
"151 348 CURVE SMOOTH",
"151 455 OFFCURVE",
"207 540 OFFCURVE",
"313 540 CURVE SMOOTH"
);
}
);
width = 626;
},
{
layerId = "7C863538-AAB4-42AD-A9FE-7240E615272A";
paths = (
{
closed = 1;
nodes = (
"574 69 LINE",
"500 166 LINE",
"543 213 OFFCURVE",
"567 278 OFFCURVE",
"567 348 CURVE SMOOTH",
"567 417 OFFCURVE",
"544 482 OFFCURVE",
"501 529 CURVE",
"574 627 LINE",
"514 677 LINE",
"439 577 LINE",
"404 596 OFFCURVE",
"362 607 OFFCURVE",
"314 607 CURVE SMOOTH",
"266 607 OFFCURVE",
"224 596 OFFCURVE",
"189 578 CURVE",
"115 677 LINE",
"55 627 LINE",
"128 530 LINE",
"84 483 OFFCURVE",
"61 418 OFFCURVE",
"61 348 CURVE SMOOTH",
"61 278 OFFCURVE",
"84 213 OFFCURVE",
"127 166 CURVE",
"55 69 LINE",
"115 19 LINE",
"189 118 LINE",
"224 99 OFFCURVE",
"266 89 OFFCURVE",
"314 89 CURVE SMOOTH",
"362 89 OFFCURVE",
"404 99 OFFCURVE",
"439 118 CURVE",
"514 19 LINE"
);
},
{
closed = 1;
nodes = (
"314 505 LINE",
"394 505 OFFCURVE",
"440 441 OFFCURVE",
"440 348 CURVE SMOOTH",
"440 255 OFFCURVE",
"394 191 OFFCURVE",
"314 191 CURVE SMOOTH",
"234 191 OFFCURVE",
"188 255 OFFCURVE",
"188 348 CURVE SMOOTH",
"188 441 OFFCURVE",
"234 505 OFFCURVE",
"314 505 CURVE SMOOTH"
);
}
);
width = 628;
}
);
unicode = 00A4;
},
{
glyphname = dollar;
lastChange = "2016-08-25 20:31:12 +0000";
layers = (
{
layerId = UUID0;
paths = (
{
closed = 1;
nodes = (
"285 82 LINE",
"452 96 OFFCURVE",
"478 180 OFFCURVE",
"478 234 CURVE SMOOTH",
"478 432 OFFCURVE",
"149 379 OFFCURVE",
"149 488 CURVE SMOOTH",
"149 533 OFFCURVE",
"211 546 OFFCURVE",
"270 546 CURVE SMOOTH",
"319 546 OFFCURVE",
"382 524 OFFCURVE",
"437 498 CURVE",
"446 594 LINE",
"418 610 OFFCURVE",
"355 627 OFFCURVE",
"285 631 CURVE",
"301 748 LINE",
"211 748 LINE",
"228 631 LINE",
"85 618 OFFCURVE",
"42 540 OFFCURVE",
"42 476 CURVE SMOOTH",
"42 309 OFFCURVE",
"360 351 OFFCURVE",
"360 233 CURVE SMOOTH",
"360 184 OFFCURVE",
"314 170 OFFCURVE",
"250 170 CURVE SMOOTH",
"166 170 OFFCURVE",
"102 197 OFFCURVE",
"64 228 CURVE",
"52 119 LINE",
"83 102 OFFCURVE",
"146 85 OFFCURVE",
"228 81 CURVE",
"211 -32 LINE",
"300 -32 LINE"
);
}
);
width = 514;
},
{
layerId = "7C863538-AAB4-42AD-A9FE-7240E615272A";
paths = (
{
closed = 1;
nodes = (
"298 80 LINE",
"460 94 OFFCURVE",
"489 180 OFFCURVE",
"489 237 CURVE SMOOTH",
"489 438 OFFCURVE",
"162 388 OFFCURVE",
"162 485 CURVE SMOOTH",
"162 526 OFFCURVE",
"222 533 OFFCURVE",
"274 533 CURVE SMOOTH",
"323 533 OFFCURVE",
"390 510 OFFCURVE",
"446 481 CURVE",
"457 594 LINE",
"429 610 OFFCURVE",
"364 629 OFFCURVE",
"298 633 CURVE",
"314 748 LINE",
"207 748 LINE",
"223 633 LINE",
"85 620 OFFCURVE",
"40 540 OFFCURVE",
"40 473 CURVE SMOOTH",
"40 304 OFFCURVE",
"355 340 OFFCURVE",
"355 236 CURVE SMOOTH",
"355 197 OFFCURVE",
"318 183 OFFCURVE",
"253 183 CURVE SMOOTH",
"165 183 OFFCURVE",
"99 214 OFFCURVE",
"65 246 CURVE",
"48 119 LINE",
"80 100 OFFCURVE",
"145 83 OFFCURVE",
"223 79 CURVE",
"207 -32 LINE",
"314 -32 LINE"
);
}
);
width = 524;
}
);
unicode = 0024;
},
{
glyphname = euro;
lastChange = "2016-08-23 10:40:18 +0000";
layers = (
{
layerId = UUID0;
paths = (
{
closed = 1;
nodes = (
"479 17 LINE",
"541 17 OFFCURVE",
"605 28 OFFCURVE",
"655 51 CURVE",
"643 149 LINE",
"591 127 OFFCURVE",
"542 111 OFFCURVE",
"479 111 CURVE SMOOTH",
"400 111 OFFCURVE",
"344 143 OFFCURVE",
"303 215 CURVE",
"501 215 LINE",
"525 284 LINE",
"282 284 LINE",
"278 310 OFFCURVE",
"277 329 OFFCURVE",
"277 350 CURVE SMOOTH",
"277 374 LINE",
"521 374 LINE",
"545 438 LINE",
"287 438 LINE",
"316 534 OFFCURVE",
"377 589 OFFCURVE",
"479 589 CURVE SMOOTH",
"542 589 OFFCURVE",
"591 573 OFFCURVE",
"643 551 CURVE",
"655 649 LINE",
"605 672 OFFCURVE",
"541 683 OFFCURVE",
"479 683 CURVE SMOOTH",
"327 683 OFFCURVE",
"208 592 OFFCURVE",
"170 438 CURVE",
"94 438 LINE",
"72 374 LINE",
"161 374 LINE",
"161 350 LINE",
"161 331 OFFCURVE",
"162 312 OFFCURVE",
"165 284 CURVE",
"66 284 LINE",
"42 215 LINE",
"183 215 LINE",
"234 89 OFFCURVE",
"344 17 OFFCURVE",
"479 17 CURVE SMOOTH"
);
}
);
width = 708;
},
{
layerId = "7C863538-AAB4-42AD-A9FE-7240E615272A";
paths = (
{
closed = 1;
nodes = (
"469 17 LINE",
"533 17 OFFCURVE",
"599 29 OFFCURVE",
"650 54 CURVE",
"636 167 LINE",
"582 144 OFFCURVE",
"533 127 OFFCURVE",
"469 127 CURVE SMOOTH",
"395 127 OFFCURVE",
"344 157 OFFCURVE",
"314 209 CURVE",
"497 209 LINE",
"527 295 LINE",
"286 295 LINE",
"283 312 OFFCURVE",
"282 330 OFFCURVE",
"282 350 CURVE SMOOTH",
"282 364 LINE",
"516 364 LINE",
"546 445 LINE",
"295 445 LINE",
"319 523 OFFCURVE",
"375 573 OFFCURVE",
"469 573 CURVE SMOOTH",
"533 573 OFFCURVE",
"582 556 OFFCURVE",
"636 533 CURVE",
"650 646 LINE",
"599 671 OFFCURVE",
"533 683 OFFCURVE",
"469 683 CURVE SMOOTH",
"317 683 OFFCURVE",
"198 592 OFFCURVE",
"162 445 CURVE",
"89 445 LINE",
"61 364 LINE",
"151 364 LINE",
"151 350 LINE",
"151 331 OFFCURVE",
"152 312 OFFCURVE",
"154 295 CURVE",
"62 295 LINE",
"32 209 LINE",
"176 209 LINE",
"224 89 OFFCURVE",
"334 17 OFFCURVE",
"469 17 CURVE SMOOTH"
);
}
);
width = 701;
}
);
unicode = 20AC;
},
{
glyphname = florin;
lastChange = "2016-08-27 22:34:25 +0000";
layers = (
{
layerId = UUID0;
paths = (
{
closed = 1;
nodes = (
"-8 -241 LINE SMOOTH",
"17 -241 OFFCURVE",
"84 -213 OFFCURVE",
"104 -92 CURVE SMOOTH",
"190 434 LINE",
"343 434 LINE",
"349 490 LINE",
"201 490 LINE",
"221 608 OFFCURVE",
"247 656 OFFCURVE",
"332 656 CURVE SMOOTH",
"342 656 OFFCURVE",
"355 654 OFFCURVE",
"364 648 CURVE",
"371 703 LINE",
"353 709 OFFCURVE",
"336 714 OFFCURVE",
"319 714 CURVE SMOOTH",
"228 714 OFFCURVE",
"151 656 OFFCURVE",
"135 551 CURVE SMOOTH",
"126 490 LINE",
"30 490 LINE",
"23 434 LINE",
"117 434 LINE",
"37 -77 LINE SMOOTH",
"27 -142 OFFCURVE",
"4 -170 OFFCURVE",
"-34 -178 CURVE",
"-21 -241 LINE"
);
}
);
width = 351;
},
{
layerId = "7C863538-AAB4-42AD-A9FE-7240E615272A";
paths = (
{
closed = 1;
nodes = (
"16 -242 LINE SMOOTH",
"53 -242 OFFCURVE",
"118 -202 OFFCURVE",
"137 -81 CURVE SMOOTH",
"215 418 LINE",
"347 418 LINE",
"355 500 LINE",
"228 500 LINE",
"242 586 OFFCURVE",
"261 615 OFFCURVE",
"319 615 CURVE SMOOTH",
"333 615 OFFCURVE",
"349 612 OFFCURVE",
"367 608 CURVE",
"378 702 LINE",
"354 710 OFFCURVE",
"331 714 OFFCURVE",
"308 714 CURVE SMOOTH",
"214 714 OFFCURVE",
"139 648 OFFCURVE",
"122 539 CURVE SMOOTH",
"116 500 LINE",
"35 500 LINE",
"26 418 LINE",
"104 418 LINE",
"34 -60 LINE SMOOTH",
"24 -129 OFFCURVE",
"3 -140 OFFCURVE",
"-35 -140 CURVE",
"-15 -242 LINE"
);
}
);
width = 355;
}
);
unicode = 0192;
},
{
glyphname = sterling;
lastChange = "2016-08-25 20:31:12 +0000";
layers = (
{
layerId = UUID0;
paths = (
{
closed = 1;
nodes = (
"447 618 LINE",
"429 670 OFFCURVE",
"391 706 OFFCURVE",
"305 706 CURVE SMOOTH",
"165 706 OFFCURVE",
"146 609 OFFCURVE",
"146 510 CURVE SMOOTH",
"146 385 LINE",
"58 385 LINE",
"47 326 LINE",
"142 326 LINE",
"128 192 OFFCURVE",
"102 94 OFFCURVE",
"34 0 CURVE",
"440 0 LINE",
"440 72 LINE",
"160 72 LINE",
"208 178 OFFCURVE",
"216 226 OFFCURVE",
"223 326 CURVE",
"412 326 LINE",
"424 385 LINE",
"227 385 LINE",
"227 488 LINE",
"227 582 OFFCURVE",
"242 645 OFFCURVE",
"327 645 CURVE SMOOTH",
"383 645 OFFCURVE",
"399 618 OFFCURVE",
"418 580 CURVE"
);
}
);
width = 500;
},
{
layerId = "7C863538-AAB4-42AD-A9FE-7240E615272A";
paths = (
{
closed = 1;
nodes = (
"471 604 LINE",
"455 668 OFFCURVE",
"411 706 OFFCURVE",
"323 706 CURVE SMOOTH",
"172 706 OFFCURVE",
"154 596 OFFCURVE",
"154 500 CURVE SMOOTH",
"154 396 LINE",
"80 396 LINE",
"60 312 LINE",
"149 312 LINE",
"138 199 OFFCURVE",
"109 93 OFFCURVE",
"31 0 CURVE",
"462 0 LINE",
"462 104 LINE",
"219 104 LINE",
"250 175 OFFCURVE",
"262 237 OFFCURVE",
"267 312 CURVE",
"434 312 LINE",
"454 396 LINE",
"271 396 LINE",
"271 480 LINE",
"271 558 OFFCURVE",
"275 624 OFFCURVE",
"344 624 CURVE SMOOTH",
"395 624 OFFCURVE",
"409 587 OFFCURVE",
"423 543 CURVE"
);
}
);
width = 525;
}
);
unicode = 00A3;
},
{
glyphname = yen;
lastChange = "2016-08-25 20:31:12 +0000";
layers = (
{
layerId = UUID0;
paths = (
{
closed = 1;
nodes = (
"646 700 LINE",
"553 700 LINE",
"338 393 LINE",
"123 700 LINE",
"30 700 LINE",
"289 316 LINE",
"133 316 LINE",
"112 266 LINE",
"290 266 LINE",
"290 200 LINE",
"133 200 LINE",
"112 146 LINE",
"290 146 LINE",
"290 0 LINE",
"386 0 LINE",
"386 146 LINE",
"533 146 LINE",
"555 200 LINE",
"386 200 LINE",
"386 266 LINE",
"533 266 LINE",
"555 316 LINE",
"387 316 LINE"
);
}
);
width = 674;
},
{
layerId = "7C863538-AAB4-42AD-A9FE-7240E615272A";
paths = (
{
closed = 1;
nodes = (
"679 700 LINE",
"546 700 LINE",
"353 424 LINE",
"160 700 LINE",
"27 700 LINE",
"271 337 LINE",
"148 337 LINE",
"124 268 LINE",
"289 268 LINE",
"289 207 LINE",
"148 207 LINE",
"124 138 LINE",
"289 138 LINE",
"289 0 LINE",
"417 0 LINE",
"417 138 LINE",
"555 138 LINE",
"581 207 LINE",
"417 207 LINE",
"417 268 LINE",
"555 268 LINE",
"581 337 LINE",
"435 337 LINE"
);
}
);
width = 706;
}
);
unicode = 00A5;
},
{
glyphname = plus;
lastChange = "2016-08-25 20:31:12 +0000";
layers = (
{
layerId = UUID0;
paths = (
{
closed = 1;
nodes = (
"416 238 LINE",
"416 324 LINE",
"271 324 LINE",
"271 452 LINE",
"191 452 LINE",
"191 324 LINE",
"46 324 LINE",
"46 238 LINE",
"191 238 LINE",
"191 102 LINE",
"271 102 LINE",
"271 238 LINE"
);
}
);
width = 463;
},
{
layerId = "7C863538-AAB4-42AD-A9FE-7240E615272A";
paths = (
{
closed = 1;
nodes = (
"414 230 LINE",
"414 324 LINE",
"276 324 LINE",
"276 452 LINE",
"182 452 LINE",
"182 324 LINE",
"44 324 LINE",
"44 230 LINE",
"182 230 LINE",
"182 102 LINE",
"276 102 LINE",
"276 230 LINE"
);
}
);
width = 458;
}
);
unicode = 002B;
},
{
glyphname = multiply;
lastChange = "2016-08-25 20:31:12 +0000";
layers = (
{
layerId = UUID0;
paths = (
{
closed = 1;
nodes = (
"378 155 LINE",
"254 277 LINE",
"378 399 LINE",
"342 435 LINE",
"219 312 LINE",
"97 435 LINE",
"61 399 LINE",
"184 277 LINE",
"61 155 LINE",
"97 119 LINE",
"219 242 LINE",
"342 119 LINE"
);
}
);
width = 439;
},
{
layerId = "7C863538-AAB4-42AD-A9FE-7240E615272A";
paths = (
{
closed = 1;
nodes = (
"392 170 LINE",
"285 277 LINE",
"392 384 LINE",
"331 445 LINE",
"224 338 LINE",
"117 445 LINE",
"56 384 LINE",
"163 277 LINE",
"56 170 LINE",
"117 109 LINE",
"224 216 LINE",
"331 109 LINE"
);
}
);
width = 448;
}
);
unicode = 00D7;
},
{
glyphname = divide;
lastChange = "2016-08-25 20:31:12 +0000";
layers = (
{
layerId = UUID0;
paths = (
{
closed = 1;
nodes = (
"336 440 LINE",
"336 534 LINE",
"247 534 LINE",
"247 440 LINE"
);
},
{
closed = 1;
nodes = (
"526 245 LINE",
"526 319 LINE",
"66 319 LINE",
"66 245 LINE"
);
},
{
closed = 1;
nodes = (
"336 20 LINE",
"336 114 LINE",
"247 114 LINE",
"247 20 LINE"
);
}
);
width = 592;
},
{
layerId = "7C863538-AAB4-42AD-A9FE-7240E615272A";
paths = (
{
closed = 1;
nodes = (
"338 404 LINE",
"338 534 LINE",
"214 534 LINE",
"214 404 LINE"
);
},
{
closed = 1;
nodes = (
"510 230 LINE",
"510 324 LINE",
"50 324 LINE",
"50 230 LINE"
);
},
{
closed = 1;
nodes = (
"338 20 LINE",
"338 150 LINE",
"214 150 LINE",
"214 20 LINE"
);
}
);
width = 561;
}
);
unicode = 00F7;
},
{
glyphname = equal;
lastChange = "2016-08-25 20:31:12 +0000";
layers = (
{
layerId = UUID0;
paths = (
{
closed = 1;
nodes = (
"436 318 LINE",
"436 394 LINE",
"66 394 LINE",
"66 318 LINE"
);
},
{
closed = 1;
nodes = (
"436 160 LINE",
"436 236 LINE",
"66 236 LINE",
"66 160 LINE"
);
}
);
width = 502;
},
{
layerId = "7C863538-AAB4-42AD-A9FE-7240E615272A";
paths = (
{
closed = 1;
nodes = (
"432 310 LINE",
"432 404 LINE",
"62 404 LINE",
"62 310 LINE"
);
},
{
closed = 1;
nodes = (
"432 150 LINE",
"432 244 LINE",
"62 244 LINE",
"62 150 LINE"
);
}
);
width = 494;
}
);
unicode = 003D;
},
{
glyphname = greater;
lastChange = "2016-08-25 20:31:12 +0000";
layers = (
{
layerId = UUID0;
paths = (
{
closed = 1;
nodes = (
"371 284 LINE",
"155 490 LINE",
"60 490 LINE",
"276 284 LINE",
"60 78 LINE",
"155 78 LINE"
);
}
);
width = 404;
},
{
layerId = "7C863538-AAB4-42AD-A9FE-7240E615272A";
paths = (
{
closed = 1;
nodes = (
"417 284 LINE",
"205 490 LINE",
"58 490 LINE",
"270 284 LINE",
"58 78 LINE",
"205 78 LINE"
);
}
);
width = 446;
}
);
unicode = 003E;
},
{
glyphname = less;
lastChange = "2016-08-25 20:31:12 +0000";
layers = (
{
layerId = UUID0;
paths = (
{
closed = 1;
nodes = (
"344 78 LINE",
"128 284 LINE",
"344 490 LINE",
"249 490 LINE",
"33 284 LINE",
"249 78 LINE"
);
}
);
width = 405;
},
{
layerId = "7C863538-AAB4-42AD-A9FE-7240E615272A";
paths = (
{
closed = 1;
nodes = (
"388 78 LINE",
"176 284 LINE",
"388 490 LINE",
"241 490 LINE",
"29 284 LINE",
"241 78 LINE"
);
}
);
width = 446;
}
);
unicode = 003C;
},
